<?xml version="1.0" encoding="UTF-8" standalone="no"?>
<svg
   xmlns:dc="http://purl.org/dc/elements/1.1/"
   xmlns:cc="http://creativecommons.org/ns#"
   xmlns:rdf="http://www.w3.org/1999/02/22-rdf-syntax-ns#"
   xmlns:svg="http://www.w3.org/2000/svg"
   xmlns="http://www.w3.org/2000/svg"
   xmlns:sodipodi="http://sodipodi.sourceforge.net/DTD/sodipodi-0.dtd"
   xmlns:inkscape="http://www.inkscape.org/namespaces/inkscape"
   width="108.89642mm"
   height="108.88708mm"
   viewBox="0 0 108.89642 108.88707"
   version="1.1"
   id="svg787"
   inkscape:version="1.0.2 (e86c870879, 2021-01-15, custom)"
   sodipodi:docname="dog3.svg">
  <defs
     id="defs781" />
  <sodipodi:namedview
     id="base"
     pagecolor="#ffffff"
     bordercolor="#666666"
     borderopacity="1.0"
     inkscape:pageopacity="0.0"
     inkscape:pageshadow="2"
     inkscape:zoom="0.35"
     inkscape:cx="168.72437"
     inkscape:cy="265.82415"
     inkscape:document-units="mm"
     inkscape:current-layer="layer1"
     inkscape:document-rotation="0"
     showgrid="false"
     inkscape:window-width="1320"
     inkscape:window-height="900"
     inkscape:window-x="2082"
     inkscape:window-y="178"
     inkscape:window-maximized="0" />
  <metadata
     id="metadata784">
    <rdf:RDF>
      <cc:Work
         rdf:about="">
        <dc:format>image/svg+xml</dc:format>
        <dc:type
           rdf:resource="http://purl.org/dc/dcmitype/StillImage" />
        <dc:title></dc:title>
      </cc:Work>
    </rdf:RDF>
  </metadata>
  <g
     inkscape:label="Layer 1"
     inkscape:groupmode="layer"
     id="layer1"
     transform="translate(-61.191678,-77.834028)">
    <g
       id="g1841"
       transform="matrix(0.26458333,0,0,0.26458333,-213.82056,43.727166)">
      <path
         fill="#a27d51"
         stroke="#a27d51"
         stroke-width="0.5"
         d="m 1211.716,130.414 c 14.44,-1.24 28.99,-1.65 43.48,-0.83 7.56,0.8 15.57,1.13 22.35,4.98 5.59,3.12 11.87,4.72 17.66,7.44 2.45,1 3.57,3.58 5.42,5.32 1.8,0.91 3.79,1.37 5.72,1.99 5.61,-2.51 11.23,-5.97 17.57,-5.91 11.65,4.54 24.27,5.45 36.33,8.57 8.48,2.2 17.66,4.14 24.21,10.41 9.21,2.04 18.71,3.64 27.2,8 2.48,1.35 5.08,2.93 6.48,5.48 0.8,1.52 0.63,3.31 0.58,4.97 -1.15,14.41 -3.78,28.64 -6.63,42.79 -1.96,9.1 -4.55,18.11 -8.69,26.48 -2.08,4.15 -3.97,8.4 -5.59,12.75 1.71,3.26 3.25,6.61 4.43,10.11 -5.38,-7.47 -9.83,-15.55 -14.79,-23.3 -12.46,-19.61 -24.35,-39.59 -37.07,-59.03 -0.27,2.73 -0.43,5.47 -0.74,8.2 -2.7,-7.19 -6.05,-14.11 -9.29,-21.06 -2.24,-4.38 -4.85,-9.16 -9.51,-11.32 -3.04,-1.28 -5.89,0.63 -7.98,2.65 0.55,0.14 1.64,0.42 2.19,0.56 0.36,2.47 0.52,5.11 2.04,7.22 4.68,7.34 9.21,14.79 14.11,22 3.98,5.76 7.66,11.9 13.23,16.31 4.3,7.08 6.6,15.14 10.5,22.43 -4.11,7.33 -4.22,16.05 -7.42,23.73 -1.3,3.91 -3.87,7.4 -4.56,11.48 2.08,16 0.97,32.49 -4.19,47.83 -1.65,6.52 -5.99,11.84 -8.34,18.07 -3.02,7.72 -6.37,15.33 -8.75,23.29 -1.2,3.93 -1.7,8.06 -3.22,11.89 -0.98,2.57 -3.22,4.28 -4.92,6.34 -2.31,3.62 -4.22,7.52 -7.09,10.75 -3.61,4.4 -8.48,7.65 -11.57,12.48 -0.77,-1.93 -1.45,-3.89 -2.12,-5.84 5.02,-4.38 10.08,-8.9 13.85,-14.43 0.94,-1.75 2.54,-4.73 0.36,-6.14 -2.09,-1.61 -4.99,-1.41 -7.37,-0.75 -5.37,1.55 -9.35,5.8 -14.52,7.77 1.48,-6.98 7.26,-12.15 8.36,-19.26 0.79,-3.01 -0.49,-5.93 -1.44,-8.72 0.11,-5.38 0.82,-10.81 -0.09,-16.16 -0.9,-4.97 -2.52,-9.77 -4.55,-14.38 0.51,-0.14 1.51,-0.42 2.01,-0.56 -0.68,-0.83 -1.34,-1.65 -1.98,-2.47 -6.04,-9.25 -12.39,-18.29 -19.51,-26.75 0,-2.1 -0.23,-4.24 -1.51,-5.97 -6.16,-9.05 -13.27,-17.38 -20.84,-25.26 -4.59,-5.74 -10.44,-10.21 -15.76,-15.22 -2.64,-2.52 -5.62,-4.7 -9.03,-6.04 -1.14,-7.89 -0.65,-16.1 -3.29,-23.7 -1.27,1.93 -2.45,3.96 -2.91,6.25 -1.73,7.58 -2.79,15.37 -2.47,23.16 -0.34,-0.94 -0.69,-1.87 -1.02,-2.79 -6.93,6.56 -13.73,13.23 -20.35,20.1 -4.02,3.35 -6.46,8.12 -10.3,11.66 -4.2,5.02 -9.39,9.48 -11.84,15.71 -0.18,-1.41 -0.35,-2.82 -0.52,-4.22 -2.34,3.72 -3.71,7.89 -5.32,11.94 -1.6,4.05 -5.17,6.86 -6.99,10.79 -2.21,4.67 -3.76,9.61 -5.68,14.39 -2.4,5.77 -1.91,12.13 -1.86,18.23 0.05,7.43 4.56,13.81 8.85,19.52 0.39,3 1.03,5.97 1.5,8.96 -0.16,3.16 -0.03,6.37 -0.7,9.47 -1.2,2.85 -3,5.39 -4.23,8.22 -5.45,-6.66 -9.04,-14.56 -11.36,-22.79 -0.68,-5.25 -1.08,-10.6 -2.98,-15.59 -3.78,-9.59 -7.17,-19.34 -11.14,-28.86 -2.83,-8.39 -8.46,-15.9 -9.37,-24.88 0.88,-9.37 2.83,-18.66 3.87,-28.01 -1.64,-9.59 -4.44,-19.14 -4.01,-28.99 0.32,-5.98 -0.3,-13.07 -5.44,-16.99 -3.65,7.26 -8.75,13.68 -11.99,21.15 -5.99,10.21 -13.41,19.78 -22.88,26.98 -2.19,1.96 -5.14,1.59 -7.8,1.27 0.49,-7.3 7.92,-12.73 5.96,-20.35 -2.32,-10.86 -3.81,-21.87 -6.24,-32.69 -0.84,-10.15 -3.04,-20.18 -3.28,-30.39 0.03,-4.31 0.89,-8.59 0.55,-12.91 -0.07,-5.7 -1.93,-11.69 0.57,-17.16 2.77,-6.99 9.98,-11.08 17.11,-12.31 18.49,-3.33 37.37,-1.08 56.01,-2.18 9.72,-2.55 19.98,-5.47 30.04,-3.07 10.98,-2 20.06,-9.3 30.5,-12.81 m -18.35,39.51 c 3.77,-1.25 5.74,-4.99 8,-7.98 2.38,-3.83 5.44,-7.54 5.98,-12.17 -5.38,6.19 -9.42,13.37 -13.98,20.15 m 61.15,-20.33 c -0.46,5.28 -0.43,11.16 2.64,15.73 0.21,-5.3 0.02,-11 -2.64,-15.73 m 17.05,8.93 c 0.87,3.24 1.75,7.37 5.47,8.44 -2.45,-5.19 -3.84,-10.74 -5.29,-16.26 -0.72,2.55 -0.89,5.24 -0.18,7.82 m -67.55,15.18 c -0.87,2.91 -3.33,4.92 -4.97,7.38 4.3,-1.27 6.95,-5.36 7.88,-9.55 2.14,-7.59 8.36,-13 11.67,-20 -6.8,5.75 -12.54,13.37 -14.58,22.17 m 81.33,-20.89 c 0.64,6.23 4.13,12.24 9.39,15.67 0.05,-1.39 -0.85,-2.5 -1.56,-3.58 -2.8,-3.91 -4.69,-8.41 -7.83,-12.09 m -188.15,25.97 c -2.77,4.05 -5.75,8.37 -6.04,13.44 2.91,-3.98 5.11,-8.43 8.06,-12.39 2.92,-4.69 7.01,-8.69 9.01,-13.93 -4.57,3.44 -7.69,8.33 -11.03,12.88 m 51.74,-4.14 c -9.44,12.58 -15.15,27.45 -21.03,41.91 -0.9,2.66 -3.06,5.88 -0.55,8.31 3.59,-1.46 5.99,-4.59 8.17,-7.65 9.09,-13.02 15.1,-27.92 24.38,-40.83 1.57,-2.22 3.29,-4.72 2.74,-7.59 -5.28,-0.56 -10.66,1.37 -13.71,5.85 m 163.97,0.8 c 2.1,5.69 6.06,10.4 9.15,15.56 4.58,6.49 8.81,13.34 14.38,19.05 -3.9,-8.73 -9.82,-16.4 -15.19,-24.27 -2.69,-3.51 -4.94,-7.45 -8.34,-10.34 m 56.67,5.31 c 1.09,7.31 3.37,14.37 5.19,21.52 1.37,4.42 2.14,9.13 4.56,13.15 0.03,-5.96 -1.92,-11.66 -3.4,-17.36 -1.87,-5.84 -3.01,-12.09 -6.35,-17.31 m -62.81,1.5 c 1.55,3.89 4.11,7.24 6.51,10.63 4.47,5.71 8.14,12.07 13.19,17.3 -0.89,-5.1 -4.81,-8.84 -7.37,-13.14 -3.81,-5.13 -7.14,-10.93 -12.33,-14.79 m -185.73,15.31 c -7.11,13.67 -13.49,27.72 -20.09,41.63 7.51,-6.19 11.21,-15.61 15.84,-23.92 4.69,-10.39 10.21,-20.67 12.59,-31.88 -3.84,4.02 -5.54,9.46 -8.34,14.17 m 180.93,-10.13 c 1.42,4.15 4.19,7.6 6.43,11.31 7.76,12.67 16.1,24.98 23.46,37.89 1.26,-1 -0.31,-2.57 -0.56,-3.76 -5.5,-10.9 -11.98,-21.28 -18.74,-31.45 -3.43,-4.71 -6.12,-10.16 -10.59,-13.99 m -37.36,9.77 c -8.25,3.98 -16.21,8.66 -23.38,14.37 3.77,-0.46 6.82,-2.93 10.12,-4.59 7.01,-4.06 14.16,-7.87 21.05,-12.13 -2.73,0.29 -5.36,1.12 -7.79,2.35 m -70.58,-1.53 c 5.06,3.28 10.06,6.73 14.01,11.36 5.75,5.58 9.58,12.89 15.58,18.19 -4.5,-8.88 -10.62,-17.1 -18.14,-23.68 -3.43,-2.56 -6.9,-5.87 -11.45,-5.87 m 73.4,4.34 c -5.44,3.46 -10.22,7.9 -14.08,13.06 -3.08,4.16 -6.9,8.04 -8.36,13.14 5.05,-4.88 8.66,-11.01 13.63,-15.98 3.84,-4.49 8.68,-7.88 13.12,-11.72 -1.5,0.36 -3.04,0.62 -4.31,1.5 m -116.03,16.96 c -2.72,4.14 -5.87,8.35 -6.47,13.42 3.13,-3.63 5.15,-8.04 8.11,-11.81 2.44,-4.16 6.13,-7.59 7.75,-12.2 -4.08,2.56 -6.54,6.84 -9.39,10.59 m 29.29,-3.67 c 2.57,4.32 6.73,7.29 9.92,11.12 4.09,3.97 7.6,8.8 12.59,11.69 -3.77,-5.8 -8.64,-10.78 -13.42,-15.73 -2.87,-2.54 -5.28,-5.92 -9.09,-7.08 m 114.06,2.22 c 2.61,3.06 6.34,4.78 9.48,7.23 9.26,6.34 18.39,13.43 24.18,23.25 -0.88,-6.3 -5.8,-10.91 -10.13,-15.13 -7.06,-6.15 -14.77,-11.94 -23.53,-15.35 m -11.78,13.06 c 2.88,5.53 1.87,11.7 0.98,17.58 l -0.51,-0.08 c -1.78,7.46 -2.22,15.21 -1.97,22.87 -0.2,1.07 0.05,2.08 0.73,3.04 2.24,7.06 9.27,10.89 15.98,12.74 2.75,0.61 5.33,-1.1 7.75,-2.22 7.91,-4.31 15.28,-9.55 22.51,-14.91 -3.87,-4.65 -8.9,-8.14 -14.42,-10.56 -8.29,-4.55 -16.93,-8.42 -25.3,-12.77 1.8,-2.88 3.35,-6.58 1.92,-9.93 -1.43,-3.02 -4.28,-5.42 -7.67,-5.76 m -109.49,10.15 c 0.22,3.43 2.3,6.53 4.91,8.67 -8.19,2.18 -16.89,2.75 -25.02,5.42 -1.82,0.6 -2.82,2.36 -4.06,3.68 1.87,0.14 3.75,0.39 5.6,0.85 -4.4,2.79 -8.08,6.69 -10.67,11.21 3.08,-3.49 6.22,-7.04 10.37,-9.3 -1.01,5.03 -1.09,10.53 1.88,14.96 -2.78,-1.09 -5.29,-2.7 -7.57,-4.6 -0.5,4.74 -0.24,10.5 4.08,13.49 5.47,3.61 12.2,6.79 18.9,5.33 5.88,-2.02 9.16,-8.01 11.8,-13.24 2.21,-8.36 -0.96,-17.02 -3.83,-24.84 -0.22,-1.16 -0.62,-2.27 -0.9,-3.4 2.3,-1.37 1.11,-4.11 0.96,-6.19 -0.74,-3.11 0.66,-6.07 1.45,-9.01 -3.59,0.64 -7.48,3.07 -7.9,6.97 m 161.03,45.15 c -0.27,7.64 -1.84,16.04 -7.66,21.5 -4.22,3.99 -7.84,8.83 -9.62,14.42 2.52,-5.2 5.59,-10.22 9.94,-14.09 5.03,-4.5 6.84,-11.35 7.46,-17.83 0.57,-4.38 -0.81,-8.66 -1,-13.02 -0.17,3.04 0.44,6.03 0.88,9.02 m 7.31,34.23 c -2.56,4.7 -6.67,8.35 -8.88,13.25 -4.3,8.79 -7.92,17.99 -10.43,27.44 3.87,-10.41 7.04,-21.22 12.84,-30.78 4.8,-6.48 10.02,-13.11 11.74,-21.18 -1.49,3.87 -2.99,7.77 -5.27,11.27 z"
         id="path1715" />
      <path
         fill="#87633b"
         stroke="#87633b"
         stroke-width="0.5"
         d="m 1193.366,169.924 c 4.56,-6.78 8.6,-13.96 13.98,-20.15 -0.54,4.63 -3.6,8.34 -5.98,12.17 -2.26,2.99 -4.23,6.73 -8,7.98 z"
         id="path1717" />
      <path
         fill="#87633b"
         stroke="#87633b"
         stroke-width="0.5"
         d="m 1254.516,149.594 c 2.66,4.73 2.85,10.43 2.64,15.73 -3.07,-4.57 -3.1,-10.45 -2.64,-15.73 z"
         id="path1719" />
      <path
         fill="#86623a"
         stroke="#86623a"
         stroke-width="0.5"
         d="m 1271.566,158.524 c -0.71,-2.58 -0.54,-5.27 0.18,-7.82 1.45,5.52 2.84,11.07 5.29,16.26 -3.72,-1.07 -4.6,-5.2 -5.47,-8.44 z"
         id="path1721" />
      <path
         fill="#85623a"
         stroke="#85623a"
         stroke-width="0.5"
         d="m 1204.016,173.704 c 2.04,-8.8 7.78,-16.42 14.58,-22.17 -3.31,7 -9.53,12.41 -11.67,20 -0.93,4.19 -3.58,8.28 -7.88,9.55 1.64,-2.46 4.1,-4.47 4.97,-7.38 z"
         id="path1723" />
      <path
         fill="#86623a"
         stroke="#86623a"
         stroke-width="0.5"
         d="m 1285.346,152.814 c 3.14,3.68 5.03,8.18 7.83,12.09 0.71,1.08 1.61,2.19 1.56,3.58 -5.26,-3.43 -8.75,-9.44 -9.39,-15.67 z"
         id="path1725" />
      <path
         fill="#86623b"
         stroke="#86623b"
         stroke-width="0.5"
         d="m 1097.196,178.784 c 3.34,-4.55 6.46,-9.44 11.03,-12.88 -2,5.24 -6.09,9.24 -9.01,13.93 -2.95,3.96 -5.15,8.41 -8.06,12.39 0.29,-5.07 3.27,-9.39 6.04,-13.44 z"
         id="path1727" />
      <path
         fill="#64462d"
         stroke="#64462d"
         stroke-width="0.5"
         d="m 1322.856,169.104 c 2.09,-2.02 4.94,-3.93 7.98,-2.65 4.66,2.16 7.27,6.94 9.51,11.32 3.24,6.95 6.59,13.87 9.29,21.06 l -1.09,0.18 c -4.47,-7.54 -9.49,-14.72 -14.7,-21.75 -2.41,-3.07 -4.3,-7.48 -8.8,-7.6 -0.55,-0.14 -1.64,-0.42 -2.19,-0.56 z"
         id="path1729" />
      <path
         fill="#795535"
         stroke="#795535"
         stroke-width="0.5"
         d="m 1148.936,174.644 c 3.05,-4.48 8.43,-6.41 13.71,-5.85 0.55,2.87 -1.17,5.37 -2.74,7.59 -9.28,12.91 -15.29,27.81 -24.38,40.83 -2.18,3.06 -4.58,6.19 -8.17,7.65 -2.51,-2.43 -0.35,-5.65 0.55,-8.31 5.88,-14.46 11.59,-29.33 21.03,-41.91 z"
         id="path1731" />
      <path
         fill="#6b5955"
         stroke="#6b5955"
         stroke-width="0.5"
         d="m 1325.046,169.664 c 4.5,0.12 6.39,4.53 8.8,7.6 5.21,7.03 10.23,14.21 14.7,21.75 2.59,5.06 6.44,10.2 5.88,16.18 -5.57,-4.41 -9.25,-10.55 -13.23,-16.31 -4.9,-7.21 -9.43,-14.66 -14.11,-22 -1.52,-2.11 -1.68,-4.75 -2.04,-7.22 z"
         id="path1733" />
      <path
         fill="#86623b"
         stroke="#86623b"
         stroke-width="0.5"
         d="m 1312.906,175.444 c 3.4,2.89 5.65,6.83 8.34,10.34 5.37,7.87 11.29,15.54 15.19,24.27 -5.57,-5.71 -9.8,-12.56 -14.38,-19.05 -3.09,-5.16 -7.05,-9.87 -9.15,-15.56 z"
         id="path1735" />
      <path
         fill="#86623b"
         stroke="#86623b"
         stroke-width="0.5"
         d="m 1369.576,180.754 c 3.34,5.22 4.48,11.47 6.35,17.31 1.48,5.7 3.43,11.4 3.4,17.36 -2.42,-4.02 -3.19,-8.73 -4.56,-13.15 -1.82,-7.15 -4.1,-14.21 -5.19,-21.52 z"
         id="path1737" />
      <path
         fill="#86623c"
         stroke="#86623c"
         stroke-width="0.5"
         d="m 1306.766,182.254 c 5.19,3.86 8.52,9.66 12.33,14.79 2.56,4.3 6.48,8.04 7.37,13.14 -5.05,-5.23 -8.72,-11.59 -13.19,-17.3 -2.4,-3.39 -4.96,-6.74 -6.51,-10.63 z"
         id="path1739" />
      <path
         fill="#805a37"
         stroke="#805a37"
         stroke-width="0.5"
         d="m 1121.036,197.564 c 2.8,-4.71 4.5,-10.15 8.34,-14.17 -2.38,11.21 -7.9,21.49 -12.59,31.88 -4.63,8.31 -8.33,17.73 -15.84,23.92 6.6,-13.91 12.98,-27.96 20.09,-41.63 z"
         id="path1741" />
      <path
         fill="#85623a"
         stroke="#85623a"
         stroke-width="0.5"
         d="m 1301.966,187.434 c 4.47,3.83 7.16,9.28 10.59,13.99 6.76,10.17 13.24,20.55 18.74,31.45 0.25,1.19 1.82,2.76 0.56,3.76 -7.36,-12.91 -15.7,-25.22 -23.46,-37.89 -2.24,-3.71 -5.01,-7.16 -6.43,-11.31 z"
         id="path1743" />
      <path
         fill="#795535"
         stroke="#795535"
         stroke-width="0.5"
         d="m 1350.376,190.634 c 12.72,19.44 24.61,39.42 37.07,59.03 4.96,7.75 9.41,15.83 14.79,23.3 2,3.77 4.05,7.65 4.06,12.05 -7.34,-1.03 -12.49,-6.84 -17.75,-11.49 -6.67,-5.97 -10.88,-13.98 -15.51,-21.5 -2.84,-4.72 -5.69,-9.45 -8.11,-14.4 -3.9,-7.29 -6.2,-15.35 -10.5,-22.43 0.56,-5.98 -3.29,-11.12 -5.88,-16.18 l 1.09,-0.18 c 0.31,-2.73 0.47,-5.47 0.74,-8.2 z"
         id="path1745" />
      <path
         fill="#85623b"
         stroke="#85623b"
         stroke-width="0.5"
         d="m 1264.606,197.204 c 2.43,-1.23 5.06,-2.06 7.79,-2.35 -6.89,4.26 -14.04,8.07 -21.05,12.13 -3.3,1.66 -6.35,4.13 -10.12,4.59 7.17,-5.71 15.13,-10.39 23.38,-14.37 z"
         id="path1747" />
      <path
         fill="#846139"
         stroke="#846139"
         stroke-width="0.5"
         d="m 1194.026,195.674 c 4.55,0 8.02,3.31 11.45,5.87 7.52,6.58 13.64,14.8 18.14,23.68 -6,-5.3 -9.83,-12.61 -15.58,-18.19 -3.95,-4.63 -8.95,-8.08 -14.01,-11.36 z"
         id="path1749" />
      <path
         fill="#836039"
         stroke="#836039"
         stroke-width="0.5"
         d="m 1267.426,200.014 c 1.27,-0.88 2.81,-1.14 4.31,-1.5 -4.44,3.84 -9.28,7.23 -13.12,11.72 -4.97,4.97 -8.58,11.1 -13.63,15.98 1.46,-5.1 5.28,-8.98 8.36,-13.14 3.86,-5.16 8.64,-9.6 14.08,-13.06 z"
         id="path1751" />
      <path
         fill="#856139"
         stroke="#856139"
         stroke-width="0.5"
         d="m 1151.396,216.974 c 2.85,-3.75 5.31,-8.03 9.39,-10.59 -1.62,4.61 -5.31,8.04 -7.75,12.2 -2.96,3.77 -4.98,8.18 -8.11,11.81 0.6,-5.07 3.75,-9.28 6.47,-13.42 z"
         id="path1753" />
      <path
         fill="#856139"
         stroke="#856139"
         stroke-width="0.5"
         d="m 1180.686,213.304 c 3.81,1.16 6.22,4.54 9.09,7.08 4.78,4.95 9.65,9.93 13.42,15.73 -4.99,-2.89 -8.5,-7.72 -12.59,-11.69 -3.19,-3.83 -7.35,-6.8 -9.92,-11.12 z"
         id="path1755" />
      <path
         fill="#856039"
         stroke="#856039"
         stroke-width="0.5"
         d="m 1294.746,215.524 c 8.76,3.41 16.47,9.2 23.53,15.35 4.33,4.22 9.25,8.83 10.13,15.13 -5.79,-9.82 -14.92,-16.91 -24.18,-23.25 -3.14,-2.45 -6.87,-4.17 -9.48,-7.23 z"
         id="path1757" />
      <path
         fill="#e4e4e2"
         stroke="#e4e4e2"
         stroke-width="0.5"
         d="m 1224.526,225.854 c 0.46,-2.29 1.64,-4.32 2.91,-6.25 2.64,7.6 2.15,15.81 3.29,23.7 1.01,10.93 -0.67,22.04 -4.7,32.24 -1.57,4.46 -3.56,9.84 -0.76,14.23 2.93,3.93 7.95,5.18 12.32,6.84 12.63,4.47 24.21,11.79 33.87,21.05 4.24,4.12 8.41,8.66 10.4,14.33 1.69,4.68 1.33,9.83 0.12,14.57 -2.71,8.18 -8.49,14.71 -13.61,21.45 -2.75,3.58 -5.55,7.13 -8.51,10.53 -0.2,-4.48 2.23,-8.43 3.38,-12.63 2.13,-7.45 3.87,-15.27 2.97,-23.06 -0.61,-4.73 -4.17,-8.46 -8.1,-10.83 -5.83,-3.47 -12.42,-5.48 -19.04,-6.79 -0.66,-0.14 -1.99,-0.44 -2.65,-0.59 -9.79,-2.52 -20.13,-3.46 -30.15,-1.94 -5.55,0.88 -12.14,3.95 -13.05,10.14 -1.97,10.21 -0.78,20.68 -1.02,31.01 0.9,11.14 1.07,22.78 5.93,33.08 -4.94,1.98 -9.75,4.29 -14.74,6.13 -5.15,-10.67 -11.36,-21.14 -13.52,-32.94 -2.46,-11.99 -0.47,-24.28 1.71,-36.15 2.55,-13.55 9.35,-26.02 18.5,-36.23 2.84,-3.22 6.47,-5.62 10.24,-7.64 8.06,-4.27 14.99,-10.99 19.04,-19.22 3.4,-6.74 3.12,-14.53 2.7,-21.87 -0.32,-7.79 0.74,-15.58 2.47,-23.16 z"
         id="path1759" />
      <path
         fill="#6bb576"
         stroke="#6bb576"
         stroke-width="0.5"
         d="m 1059.556,254.164 c 5.85,-11.56 12.3,-22.99 20.66,-32.92 2.43,10.82 3.92,21.83 6.24,32.69 1.96,7.62 -5.47,13.05 -5.96,20.35 2.66,0.32 5.61,0.69 7.8,-1.27 9.47,-7.2 16.89,-16.77 22.88,-26.98 3.24,-7.47 8.34,-13.89 11.99,-21.15 5.14,3.92 5.76,11.01 5.44,16.99 -0.43,9.85 2.37,19.4 4.01,28.99 -1.04,9.35 -2.99,18.64 -3.87,28.01 0.91,8.98 6.54,16.49 9.37,24.88 3.97,9.52 7.36,19.27 11.14,28.86 1.9,4.99 2.3,10.34 2.98,15.59 -8.94,18.54 -16.32,37.81 -25.17,56.4 -4.43,10.79 -9.24,21.43 -13.94,32.11 -4.62,8.57 -7.49,17.9 -11.46,26.77 -31.93,-30.31 -53.82,-71.27 -59.94,-114.96 -5.69,-38.75 0.46,-79.22 17.83,-114.36 z"
         id="path1761" />
      <path
         fill="#6bb576"
         stroke="#6bb576"
         stroke-width="0.5"
         d="m 1412.086,223.624 c 24.93,32.86 38.43,74.11 38.65,115.3 0.34,38.5 -11.09,76.96 -32.33,109.06 -10.54,16.04 -23.43,30.52 -38.04,42.96 -2.17,-4 -4.13,-8.11 -6.1,-12.21 -7.66,-13.05 -14.16,-26.75 -20.76,-40.36 -10.91,-17.66 -17.59,-37.58 -28.74,-55.12 -0.45,-0.99 -0.86,-1.99 -1.24,-3 1.7,-2.06 3.94,-3.77 4.92,-6.34 1.52,-3.83 2.02,-7.96 3.22,-11.89 2.38,-7.96 5.73,-15.57 8.75,-23.29 2.35,-6.23 6.69,-11.55 8.34,-18.07 5.16,-15.34 6.27,-31.83 4.19,-47.83 0.69,-4.08 3.26,-7.57 4.56,-11.48 3.2,-7.68 3.31,-16.4 7.42,-23.73 2.42,4.95 5.27,9.68 8.11,14.4 4.63,7.52 8.84,15.53 15.51,21.5 5.26,4.65 10.41,10.46 17.75,11.49 -0.01,-4.4 -2.06,-8.28 -4.06,-12.05 -1.18,-3.5 -2.72,-6.85 -4.43,-10.11 1.62,-4.35 3.51,-8.6 5.59,-12.75 4.14,-8.37 6.73,-17.38 8.69,-26.48 z"
         id="path1763" />
      <path
         fill="#302418"
         stroke="#302418"
         stroke-width="0.5"
         d="m 1282.966,228.584 c 3.39,0.34 6.24,2.74 7.67,5.76 1.43,3.35 -0.12,7.05 -1.92,9.93 -0.53,0.82 -1.08,1.63 -1.58,2.44 -1.08,-0.18 -2.14,-0.37 -3.19,-0.55 0.89,-5.88 1.9,-12.05 -0.98,-17.58 z"
         id="path1765" />
      <path
         fill="#302417"
         stroke="#302417"
         stroke-width="0.5"
         d="m 1173.476,238.734 c 0.42,-3.9 4.31,-6.33 7.9,-6.97 -0.79,2.94 -2.19,5.9 -1.45,9.01 0.15,2.08 1.34,4.82 -0.96,6.19 l -0.58,0.44 c -2.61,-2.14 -4.69,-5.24 -4.91,-8.67 z"
         id="path1767" />
      <path
         fill="#9a774d"
         stroke="#9a774d"
         stroke-width="0.5"
         d="m 1230.726,243.304 c 3.41,1.34 6.39,3.52 9.03,6.04 5.32,5.01 11.17,9.48 15.76,15.22 7.57,7.88 14.68,16.21 20.84,25.26 1.28,1.73 1.51,3.87 1.51,5.97 -5.23,-5.26 -10.56,-10.67 -17.38,-13.82 15.76,9.94 25.16,26.63 36.89,40.57 0.64,0.82 1.3,1.64 1.98,2.47 -0.5,0.14 -1.5,0.42 -2.01,0.56 2.03,4.61 3.65,9.41 4.55,14.38 0.91,5.35 0.2,10.78 0.09,16.16 -1.01,2.93 -2.43,5.71 -4.34,8.14 -2.22,-2.76 -4.1,-5.77 -6.09,-8.68 -2.48,-3.69 -6.13,-6.31 -9.58,-9.01 1.21,-4.74 1.57,-9.89 -0.12,-14.57 -1.99,-5.67 -6.16,-10.21 -10.4,-14.33 -9.66,-9.26 -21.24,-16.58 -33.87,-21.05 -4.37,-1.66 -9.39,-2.91 -12.32,-6.84 -2.8,-4.39 -0.81,-9.77 0.76,-14.23 4.03,-10.2 5.71,-21.31 4.7,-32.24 m 20.69,44.64 c 5.28,3.55 9.38,8.43 13.55,13.17 4.05,3.97 7.37,8.59 11.39,12.58 3.13,3.17 5.54,6.98 8.87,9.97 -7.13,-9.67 -15.05,-18.76 -23.55,-27.25 -3.07,-3.22 -6.23,-6.46 -10.26,-8.47 z"
         id="path1769" />
      <path
         fill="#4d494b"
         stroke="#4d494b"
         stroke-width="0.5"
         d="m 1287.136,246.714 c 0.5,-0.81 1.05,-1.62 1.58,-2.44 8.37,4.35 17.01,8.22 25.3,12.77 5.52,2.42 10.55,5.91 14.42,10.56 -7.23,5.36 -14.6,10.6 -22.51,14.91 -2.42,1.12 -5,2.83 -7.75,2.22 -6.71,-1.85 -13.74,-5.68 -15.98,-12.74 6.21,4.81 14.49,5 21.98,4.46 1.67,0.05 2.72,-1.38 3.82,-2.43 l 0.39,1.03 c 4.83,-2.28 8.28,-7.36 7.12,-12.83 -1.77,-0.22 -3.53,-0.46 -5.27,-0.71 -4.77,-3.49 -9.7,-8.23 -16.08,-7.7 -1.8,0.01 -3.57,0.18 -5.34,0.34 -3,4.64 -5.6,9.55 -7.35,14.8 -0.25,-7.66 0.19,-15.41 1.97,-22.87 l 0.51,0.08 c 1.05,0.18 2.11,0.37 3.19,0.55 z"
         id="path1771" />
      <path
         fill="#9a774d"
         stroke="#9a774d"
         stroke-width="0.5"
         d="m 1200.686,266.324 c 6.62,-6.87 13.42,-13.54 20.35,-20.1 0.33,0.92 0.68,1.85 1.02,2.79 0.42,7.34 0.7,15.13 -2.7,21.87 -4.05,8.23 -10.98,14.95 -19.04,19.22 0.53,-1.14 1.09,-2.27 1.65,-3.4 -15.41,9.86 -26.24,25.88 -31.65,43.18 -3.55,11.09 -4.29,22.91 -3.29,34.46 -4.29,-5.71 -8.8,-12.09 -8.85,-19.52 -0.05,-6.1 -0.54,-12.46 1.86,-18.23 1.92,-4.78 3.47,-9.72 5.68,-14.39 1.82,-3.93 5.39,-6.74 6.99,-10.79 1.61,-4.05 2.98,-8.22 5.32,-11.94 0.17,1.4 0.34,2.81 0.52,4.22 2.45,-6.23 7.64,-10.69 11.84,-15.71 3.84,-3.54 6.28,-8.31 10.3,-11.66 z"
         id="path1773" />
      <path
         fill="#4c4b4d"
         stroke="#4c4b4d"
         stroke-width="0.5"
         d="m 1178.386,247.404 0.58,-0.44 c 0.28,1.13 0.68,2.24 0.9,3.4 -0.76,2.31 -0.88,5.68 -3.71,6.41 -1.21,0.49 -2.44,0.91 -3.66,1.34 -2.85,-1.58 -5.85,-3.25 -9.18,-3.31 -3.02,-0.13 -5.82,1.16 -8.41,2.55 -1.85,-0.46 -3.73,-0.71 -5.6,-0.85 1.24,-1.32 2.24,-3.08 4.06,-3.68 8.13,-2.67 16.83,-3.24 25.02,-5.42 z"
         id="path1775" />
      <path
         fill="#3d3837"
         stroke="#3d3837"
         stroke-width="0.5"
         d="m 1176.156,256.774 c 2.83,-0.73 2.95,-4.1 3.71,-6.41 2.87,7.82 6.04,16.48 3.83,24.84 -2.64,5.23 -5.92,11.22 -11.8,13.24 -6.7,1.46 -13.43,-1.72 -18.9,-5.33 -4.32,-2.99 -4.58,-8.75 -4.08,-13.49 2.28,1.9 4.79,3.51 7.57,4.6 4.75,3.13 10.59,2.39 15.59,0.29 2.35,-0.78 4.75,-1.39 7.17,-1.98 -1.46,-3.03 -3.03,-6.02 -4.29,-9.14 -0.72,-1.81 -1.48,-3.61 -2.46,-5.28 1.22,-0.43 2.45,-0.85 3.66,-1.34 z"
         id="path1777" />
      <path
         fill="#181919"
         stroke="#181919"
         stroke-width="0.5"
         d="m 1288.816,254.154 c 1.77,-0.16 3.54,-0.33 5.34,-0.34 6.38,-0.53 11.31,4.21 16.08,7.7 -0.51,4.21 -1.35,8.37 -2.24,12.51 -1.1,1.05 -2.15,2.48 -3.82,2.43 -7.49,0.54 -15.77,0.35 -21.98,-4.46 -0.68,-0.96 -0.93,-1.97 -0.73,-3.04 1.75,-5.25 4.35,-10.16 7.35,-14.8 m 9.65,8.33 c -1.6,0.99 0.2,3.59 1.68,2.33 1.34,-1.04 -0.29,-3.41 -1.68,-2.33 z"
         id="path1779" />
      <path
         fill="#121210"
         stroke="#121210"
         stroke-width="0.5"
         d="m 1154.906,257.354 c 2.59,-1.39 5.39,-2.68 8.41,-2.55 3.33,0.06 6.33,1.73 9.18,3.31 0.98,1.67 1.74,3.47 2.46,5.28 -0.06,3.89 -1.02,7.7 -2.88,11.12 -5,2.1 -10.84,2.84 -15.59,-0.29 -2.97,-4.43 -2.89,-9.93 -1.88,-14.96 -4.15,2.26 -7.29,5.81 -10.37,9.3 2.59,-4.52 6.27,-8.42 10.67,-11.21 z"
         id="path1781" />
      <path
         fill="#ffffff"
         stroke="#ffffff"
         stroke-width="0.5"
         d="m 1298.466,262.484 c 1.39,-1.08 3.02,1.29 1.68,2.33 -1.48,1.26 -3.28,-1.34 -1.68,-2.33 z"
         id="path1783" />
      <path
         fill="#787c86"
         stroke="#787c86"
         stroke-width="0.5"
         d="m 1310.236,261.514 c 1.74,0.25 3.5,0.49 5.27,0.71 1.16,5.47 -2.29,10.55 -7.12,12.83 l -0.39,-1.03 c 0.89,-4.14 1.73,-8.3 2.24,-12.51 z"
         id="path1785" />
      <path
         fill="#9a9fb2"
         stroke="#9a9fb2"
         stroke-width="0.5"
         d="m 1174.956,263.394 c 1.26,3.12 2.83,6.11 4.29,9.14 -2.42,0.59 -4.82,1.2 -7.17,1.98 1.86,-3.42 2.82,-7.23 2.88,-11.12 z"
         id="path1787" />
      <path
         fill="#4a2d1f"
         stroke="#4a2d1f"
         stroke-width="0.5"
         d="m 1334.506,283.884 c -0.44,-2.99 -1.05,-5.98 -0.88,-9.02 0.19,4.36 1.57,8.64 1,13.02 -0.62,6.48 -2.43,13.33 -7.46,17.83 -4.35,3.87 -7.42,8.89 -9.94,14.09 1.78,-5.59 5.4,-10.43 9.62,-14.42 5.82,-5.46 7.39,-13.86 7.66,-21.5 z"
         id="path1789" />
      <path
         fill="#4a2d1f"
         stroke="#4a2d1f"
         stroke-width="0.5"
         d="m 1260.486,281.974 c 6.82,3.15 12.15,8.56 17.38,13.82 7.12,8.46 13.47,17.5 19.51,26.75 -11.73,-13.94 -21.13,-30.63 -36.89,-40.57 z"
         id="path1791" />
      <path
         fill="#573e22"
         stroke="#573e22"
         stroke-width="0.5"
         d="m 1170.316,329.884 c 5.41,-17.3 16.24,-33.32 31.65,-43.18 -0.56,1.13 -1.12,2.26 -1.65,3.4 -3.77,2.02 -7.4,4.42 -10.24,7.64 -9.15,10.21 -15.95,22.68 -18.5,36.23 -2.18,11.87 -4.17,24.16 -1.71,36.15 -0.27,0.62 -0.8,1.86 -1.06,2.48 l -0.28,0.7 c -0.47,-2.99 -1.11,-5.96 -1.5,-8.96 -1,-11.55 -0.26,-23.37 3.29,-34.46 z"
         id="path1793" />
      <path
         fill="#4a2d1f"
         stroke="#4a2d1f"
         stroke-width="0.5"
         d="m 1251.416,287.944 c 4.03,2.01 7.19,5.25 10.26,8.47 8.5,8.49 16.42,17.58 23.55,27.25 -3.33,-2.99 -5.74,-6.8 -8.87,-9.97 -4.02,-3.99 -7.34,-8.61 -11.39,-12.58 -4.17,-4.74 -8.27,-9.62 -13.55,-13.17 z"
         id="path1795" />
      <path
         fill="#4a2d1f"
         stroke="#4a2d1f"
         stroke-width="0.5"
         d="m 1341.816,318.114 c 2.28,-3.5 3.78,-7.4 5.27,-11.27 -1.72,8.07 -6.94,14.7 -11.74,21.18 -5.8,9.56 -8.97,20.37 -12.84,30.78 2.51,-9.45 6.13,-18.65 10.43,-27.44 2.21,-4.9 6.32,-8.55 8.88,-13.25 z"
         id="path1797" />
      <path
         fill="#dbcfce"
         stroke="#dbcfce"
         stroke-width="0.5"
         d="m 1206.266,322.704 c 10.02,-1.52 20.36,-0.58 30.15,1.94 -3.69,-0.09 -6.85,2.16 -8.8,5.14 -0.68,-0.1 -1.35,-0.2 -1.99,-0.3 -1.6,-1.79 -3.16,-3.81 -5.47,-4.68 -1.95,0.13 -3.06,2.13 -4.47,3.24 -1.24,1.16 -2.58,2.21 -3.96,3.18 -0.51,-2.24 -1.06,-4.45 -1.87,-6.58 -1.39,2.1 -2.69,4.26 -3.92,6.45 -0.75,0.04 -2.24,0.12 -2.99,0.17 0.03,2.14 0.12,4.28 0.24,6.43 -0.23,0.31 -0.69,0.91 -0.91,1.22 -0.22,4.29 0.24,8.76 2.17,12.65 1.08,0.97 2.41,1.56 3.69,2.28 l -1.23,0.6 c -0.4,0.2 -1.19,0.58 -1.58,0.78 0.08,1.08 0.19,2.16 0.32,3.24 -1.41,0.13 -2.79,0.32 -4.16,0.57 -1.17,5.51 -0.16,11.16 0.03,16.71 7.81,3.73 16.04,6.58 23.56,10.93 -5.28,2.96 -10.63,6.36 -16.77,7.04 -3.56,0.49 -6.89,1.87 -10.18,3.22 -4.86,-10.3 -5.03,-21.94 -5.93,-33.08 0.24,-10.33 -0.95,-20.8 1.02,-31.01 0.91,-6.19 7.5,-9.26 13.05,-10.14 z"
         id="path1799" />
      <path
         fill="#7f7472"
         stroke="#7f7472"
         stroke-width="0.5"
         d="m 1209.856,324.644 c 0.81,2.13 1.36,4.34 1.87,6.58 -3.01,1.93 -6,3.94 -8.54,6.47 -0.12,-2.15 -0.21,-4.29 -0.24,-6.43 0.75,-0.05 2.24,-0.13 2.99,-0.17 1.23,-2.19 2.53,-4.35 3.92,-6.45 z"
         id="path1801" />
      <path
         fill="#867c7a"
         stroke="#867c7a"
         stroke-width="0.5"
         d="m 1215.686,328.044 c 1.41,-1.11 2.52,-3.11 4.47,-3.24 2.31,0.87 3.87,2.89 5.47,4.68 -3.32,-0.5 -6.63,-0.94 -9.94,-1.44 z"
         id="path1803" />
      <path
         fill="#7e7573"
         stroke="#7e7573"
         stroke-width="0.5"
         d="m 1227.616,329.784 c 1.95,-2.98 5.11,-5.23 8.8,-5.14 0.66,0.15 1.99,0.45 2.65,0.59 0.72,0.76 1.47,1.53 2.25,2.26 -4.81,-0.49 -8.99,2.81 -13.7,2.29 z"
         id="path1805" />
      <path
         fill="#dbcfce"
         stroke="#dbcfce"
         stroke-width="0.5"
         d="m 1239.066,325.234 c 6.62,1.31 13.21,3.32 19.04,6.79 3.93,2.37 7.49,6.1 8.1,10.83 0.9,7.79 -0.84,15.61 -2.97,23.06 -1.15,4.2 -3.58,8.15 -3.38,12.63 -3.7,4.7 -5.31,10.59 -8.28,15.72 -4.35,-1.15 -8.44,-3 -12.26,-5.34 -0.09,-3.1 -0.94,-6.1 -3.14,-8.36 0.3,-0.88 0.62,-1.76 0.96,-2.63 2.28,0.31 5.06,1.9 6.91,-0.27 3.95,-3.63 8.19,-8.06 8.2,-13.8 0.16,-4.58 1.24,-9.38 -0.4,-13.82 -2.39,-0.22 -4.42,1.33 -6.58,2.02 -0.46,-0.04 -1.39,-0.13 -1.85,-0.18 -0.16,-0.87 -0.46,-2.62 -0.61,-3.49 2.89,0.74 5.3,-1.76 5.5,-4.51 0.58,-6.14 -1.74,-12.83 -6.99,-16.39 -0.78,-0.73 -1.53,-1.5 -2.25,-2.26 m 21.77,25.93 c -1.39,1.11 -2.74,2.25 -4.04,3.44 1.01,2.77 1.73,5.69 3.31,8.22 5.84,-4.03 3.06,-12.08 0.79,-17.4 -2.34,1.37 -0.76,3.88 -0.06,5.74 z"
         id="path1807" />
      <path
         fill="#1b1b19"
         stroke="#1b1b19"
         stroke-width="0.5"
         d="m 1211.726,331.224 c 1.38,-0.97 2.72,-2.02 3.96,-3.18 3.31,0.5 6.62,0.94 9.94,1.44 0.64,0.1 1.31,0.2 1.99,0.3 4.71,0.52 8.89,-2.78 13.7,-2.29 5.25,3.56 7.57,10.25 6.99,16.39 -0.2,2.75 -2.61,5.25 -5.5,4.51 -5.14,-1.76 -7.7,5.43 -5.07,8.99 1.24,1.98 2.87,3.7 4.51,5.38 0.18,-0.22 0.53,-0.65 0.71,-0.87 2.16,-2.6 4.17,-5.4 6.96,-7.39 -0.99,5.74 -1.81,11.97 -5.28,16.81 -6.06,2.02 -11.31,5.79 -15.24,10.82 -0.46,-1.82 -1.05,-3.61 -1.64,-5.39 -0.71,1.02 -1.37,2.05 -2.04,3.07 -1.67,-2.52 -4.01,-4.78 -7.02,-5.48 -2.63,-0.86 -5.95,-0.67 -7.68,-3.18 -2.86,-3.66 -4.57,-8.14 -5.37,-12.69 -0.13,-1.08 -0.24,-2.16 -0.32,-3.24 0.39,-0.2 1.18,-0.58 1.58,-0.78 2.36,1.51 4.55,3.29 6.72,5.07 1.55,-2.68 3.64,-4.97 6.06,-6.91 -1.5,-1.55 -3.14,-2.95 -4.89,-4.19 -1.11,3.05 -3.32,5.23 -6.66,5.43 -1.28,-0.72 -2.61,-1.31 -3.69,-2.28 -1.93,-3.89 -2.39,-8.36 -2.17,-12.65 0.22,-0.31 0.68,-0.91 0.91,-1.22 2.54,-2.53 5.53,-4.54 8.54,-6.47 z"
         id="path1809" />
      <path
         fill="#837471"
         stroke="#837471"
         stroke-width="0.5"
         d="m 1260.836,351.164 c -0.7,-1.86 -2.28,-4.37 0.06,-5.74 2.27,5.32 5.05,13.37 -0.79,17.4 -1.58,-2.53 -2.3,-5.45 -3.31,-8.22 1.3,-1.19 2.65,-2.33 4.04,-3.44 z"
         id="path1811" />
      <path
         fill="#65503b"
         stroke="#65503b"
         stroke-width="0.5"
         d="m 1281.976,346.564 c 3.45,2.7 7.1,5.32 9.58,9.01 1.99,2.91 3.87,5.92 6.09,8.68 1.91,-2.43 3.33,-5.21 4.34,-8.14 0.95,2.79 2.23,5.71 1.44,8.72 -1.1,7.11 -6.88,12.28 -8.36,19.26 5.17,-1.97 9.15,-6.22 14.52,-7.77 2.38,-0.66 5.28,-0.86 7.37,0.75 2.18,1.41 0.58,4.39 -0.36,6.14 -3.77,5.53 -8.83,10.05 -13.85,14.43 -4.84,3.59 -9.2,8.87 -15.75,8.84 -5.01,-0.38 -9.6,-2.55 -14.35,-3.99 -5.05,-1.57 -10.07,-3.26 -15.07,-4.96 0.05,-0.31 0.16,-0.91 0.22,-1.21 -2.08,-0.71 -4.15,-1.41 -6.22,-2.06 2.97,-5.13 4.58,-11.02 8.28,-15.72 2.96,-3.4 5.76,-6.95 8.51,-10.53 5.12,-6.74 10.9,-13.27 13.61,-21.45 z"
         id="path1813" />
      <path
         fill="#7b7887"
         stroke="#7b7887"
         stroke-width="0.5"
         d="m 1214.796,348.414 c 1.75,1.24 3.39,2.64 4.89,4.19 -2.42,1.94 -4.51,4.23 -6.06,6.91 -2.17,-1.78 -4.36,-3.56 -6.72,-5.07 l 1.23,-0.6 c 3.34,-0.2 5.55,-2.38 6.66,-5.43 z"
         id="path1815" />
      <path
         fill="#7d7689"
         stroke="#7d7689"
         stroke-width="0.5"
         d="m 1237.736,357.384 c -2.63,-3.56 -0.07,-10.75 5.07,-8.99 0.15,0.87 0.45,2.62 0.61,3.49 0.46,0.05 1.39,0.14 1.85,0.18 -1.04,3.21 -2.02,6.45 -2.31,9.83 -0.18,0.22 -0.53,0.65 -0.71,0.87 -1.64,-1.68 -3.27,-3.4 -4.51,-5.38 z"
         id="path1817" />
      <path
         fill="#807471"
         stroke="#807471"
         stroke-width="0.5"
         d="m 1245.266,352.064 c 2.16,-0.69 4.19,-2.24 6.58,-2.02 1.64,4.44 0.56,9.24 0.4,13.82 -0.01,5.74 -4.25,10.17 -8.2,13.8 -1.85,2.17 -4.63,0.58 -6.91,0.27 -0.34,0.87 -0.66,1.75 -0.96,2.63 2.2,2.26 3.05,5.26 3.14,8.36 -3.12,-1.6 -6.33,-3 -9.47,-4.54 -0.11,-0.56 -0.34,-1.69 -0.45,-2.25 3.93,-5.03 9.18,-8.8 15.24,-10.82 3.47,-4.84 4.29,-11.07 5.28,-16.81 -2.79,1.99 -4.8,4.79 -6.96,7.39 0.29,-3.38 1.27,-6.62 2.31,-9.83 z"
         id="path1819" />
      <path
         fill="#817470"
         stroke="#817470"
         stroke-width="0.5"
         d="m 1201.486,359.034 c 1.37,-0.25 2.75,-0.44 4.16,-0.57 0.8,4.55 2.51,9.03 5.37,12.69 1.73,2.51 5.05,2.32 7.68,3.18 3.01,0.7 5.35,2.96 7.02,5.48 0.52,1.81 0.94,3.64 1.43,5.48 -0.71,0.46 -1.4,0.92 -2.07,1.38 -7.52,-4.35 -15.75,-7.2 -23.56,-10.93 -0.19,-5.55 -1.2,-11.2 -0.03,-16.71 z"
         id="path1821" />
      <path
         fill="#9a774d"
         stroke="#9a774d"
         stroke-width="0.5"
         d="m 1152.236,368.204 c 2.32,8.23 5.91,16.13 11.36,22.79 1.59,2.17 3.11,4.41 4.85,6.48 -5.91,26.55 5.29,53.4 0.29,80 -1.25,5.4 -2.17,11.48 -6.56,15.35 -7.6,7.07 -17.01,11.75 -25.73,17.24 -12.44,-7.69 -24.1,-16.6 -34.78,-26.58 3.97,-8.87 6.84,-18.2 11.46,-26.77 4.7,-10.68 9.51,-21.32 13.94,-32.11 8.85,-18.59 16.23,-37.86 25.17,-56.4 z"
         id="path1823" />
      <path
         fill="#3b2c22"
         stroke="#3b2c22"
         stroke-width="0.5"
         d="m 1169.866,370.124 c 2.16,11.8 8.37,22.27 13.52,32.94 4.99,-1.84 9.8,-4.15 14.74,-6.13 3.29,-1.35 6.62,-2.73 10.18,-3.22 6.14,-0.68 11.49,-4.08 16.77,-7.04 0.67,-0.46 1.36,-0.92 2.07,-1.38 -0.49,-1.84 -0.91,-3.67 -1.43,-5.48 0.67,-1.02 1.33,-2.05 2.04,-3.07 0.59,1.78 1.18,3.57 1.64,5.39 0.11,0.56 0.34,1.69 0.45,2.25 3.14,1.54 6.35,2.94 9.47,4.54 3.82,2.34 7.91,4.19 12.26,5.34 2.07,0.65 4.14,1.35 6.22,2.06 -0.06,0.3 -0.17,0.9 -0.22,1.21 -4.41,-1.57 -8.85,-3.08 -13.43,-4.02 -5.28,-0.95 -9.84,-3.85 -14.77,-5.7 -1.52,0.75 -2.87,1.74 -4.25,2.68 0.33,0.28 0.99,0.83 1.32,1.11 -2.74,0.17 -5.57,0.17 -8.08,1.37 -5.42,2.66 -11.73,2.2 -17.15,4.87 -6.47,2.17 -12.31,6.24 -19.11,7.29 -6.39,-9.84 -11.47,-20.89 -13.3,-32.53 0.26,-0.62 0.79,-1.86 1.06,-2.48 z"
         id="path1825" />
      <path
         fill="#64503a"
         stroke="#64503a"
         stroke-width="0.5"
         d="m 1168.526,373.304 0.28,-0.7 c 1.83,11.64 6.91,22.69 13.3,32.53 -0.76,-0.04 -2.3,-0.12 -3.07,-0.16 -4.14,-1.5 -7.53,-4.42 -10.59,-7.5 -1.74,-2.07 -3.26,-4.31 -4.85,-6.48 1.23,-2.83 3.03,-5.37 4.23,-8.22 0.67,-3.1 0.54,-6.31 0.7,-9.47 z"
         id="path1827" />
      <path
         fill="#78654f"
         stroke="#78654f"
         stroke-width="0.5"
         d="m 1316.436,391.004 c 2.87,-3.23 4.78,-7.13 7.09,-10.75 0.38,1.01 0.79,2.01 1.24,3 -3.97,9.43 -7.99,19.23 -15.63,26.36 -0.46,-0.14 -1.36,-0.41 -1.81,-0.54 -0.83,-1.87 -1.68,-3.72 -2.46,-5.59 3.09,-4.83 7.96,-8.08 11.57,-12.48 z"
         id="path1829" />
      <path
         fill="#9a774d"
         stroke="#9a774d"
         stroke-width="0.5"
         d="m 1324.766,383.254 c 11.15,17.54 17.83,37.46 28.74,55.12 6.6,13.61 13.1,27.31 20.76,40.36 1.97,4.1 3.93,8.21 6.1,12.21 -8.99,7.69 -18.79,14.31 -28.74,20.67 -3.87,-6.84 -6.33,-14.35 -9.61,-21.46 -11.32,-26.35 -22.58,-52.71 -33.82,-79.09 -0.31,-0.67 -0.59,-1.33 -0.87,-1.99 0.45,0.13 1.35,0.4 1.81,0.54 7.64,-7.13 11.66,-16.93 15.63,-26.36 z"
         id="path1831" />
      <path
         fill="#82746f"
         stroke="#82746f"
         stroke-width="0.5"
         d="m 1225.126,390.494 c 1.38,-0.94 2.73,-1.93 4.25,-2.68 4.93,1.85 9.49,4.75 14.77,5.7 l -0.28,0.6 c -0.49,1.68 -0.8,3.4 -1.35,5.06 -6.42,1.63 -11.43,-4.06 -16.07,-7.57 -0.33,-0.28 -0.99,-0.83 -1.32,-1.11 z"
         id="path1833" />
      <path
         fill="#c7b5b5"
         stroke="#c7b5b5"
         stroke-width="0.5"
         d="m 1218.366,392.974 c 2.51,-1.2 5.34,-1.2 8.08,-1.37 4.64,3.51 9.65,9.2 16.07,7.57 0.55,-1.66 0.86,-3.38 1.35,-5.06 l 0.28,-0.6 c 4.58,0.94 9.02,2.45 13.43,4.02 5,1.7 10.02,3.39 15.07,4.96 4.75,1.44 9.34,3.61 14.35,3.99 0.88,0.16 2.64,0.48 3.52,0.64 -6.42,5.88 -14.89,8.71 -23.16,10.86 -10.8,2.73 -21.85,5.06 -33.06,4.67 -9.33,0.4 -18.67,-0.71 -27.65,-3.22 -4.35,-1.28 -8.4,-3.57 -12.97,-3.97 -4.76,-3.66 -9.4,-7.53 -14.64,-10.49 0.77,0.04 2.31,0.12 3.07,0.16 6.8,-1.05 12.64,-5.12 19.11,-7.29 5.42,-2.67 11.73,-2.21 17.15,-4.87 z"
         id="path1835" />
      <path
         fill="#e4e4e2"
         stroke="#e4e4e2"
         stroke-width="0.5"
         d="m 1168.446,397.474 c 3.06,3.08 6.45,6 10.59,7.5 5.24,2.96 9.88,6.83 14.64,10.49 12.73,10.76 29.11,16.62 45.59,18.21 24.78,2.66 50.79,-5.28 68.93,-22.61 11.24,26.38 22.5,52.74 33.82,79.09 3.28,7.11 5.74,14.62 9.61,21.46 -9.95,5.03 -19.66,10.66 -30.2,14.38 -59.7,23.51 -130.22,17.59 -184.98,-15.93 8.72,-5.49 18.13,-10.17 25.73,-17.24 4.39,-3.87 5.31,-9.95 6.56,-15.35 5,-26.6 -6.2,-53.45 -0.29,-80 z"
         id="path1837" />
      <path
         fill="#c3a989"
         stroke="#c3a989"
         stroke-width="0.5"
         d="m 1286.996,406.484 c 6.55,0.03 10.91,-5.25 15.75,-8.84 0.67,1.95 1.35,3.91 2.12,5.84 0.78,1.87 1.63,3.72 2.46,5.59 0.28,0.66 0.56,1.32 0.87,1.99 -18.14,17.33 -44.15,25.27 -68.93,22.61 -16.48,-1.59 -32.86,-7.45 -45.59,-18.21 4.57,0.4 8.62,2.69 12.97,3.97 8.98,2.51 18.32,3.62 27.65,3.22 11.21,0.39 22.26,-1.94 33.06,-4.67 8.27,-2.15 16.74,-4.98 23.16,-10.86 -0.88,-0.16 -2.64,-0.48 -3.52,-0.64 z"
         id="path1839" />
    </g>
  </g>
</svg>
