<?xml version="1.0" encoding="UTF-8" standalone="no"?>
<svg
   xmlns:dc="http://purl.org/dc/elements/1.1/"
   xmlns:cc="http://creativecommons.org/ns#"
   xmlns:rdf="http://www.w3.org/1999/02/22-rdf-syntax-ns#"
   xmlns:svg="http://www.w3.org/2000/svg"
   xmlns="http://www.w3.org/2000/svg"
   xmlns:sodipodi="http://sodipodi.sourceforge.net/DTD/sodipodi-0.dtd"
   xmlns:inkscape="http://www.inkscape.org/namespaces/inkscape"
   width="108.8828mm"
   height="109.59695mm"
   viewBox="0 0 108.88279 109.59693"
   version="1.1"
   id="svg787"
   inkscape:version="1.0.2 (e86c870879, 2021-01-15, custom)"
   sodipodi:docname="dog5.svg">
  <defs
     id="defs781" />
  <sodipodi:namedview
     id="base"
     pagecolor="#ffffff"
     bordercolor="#666666"
     borderopacity="1.0"
     inkscape:pageopacity="0.0"
     inkscape:pageshadow="2"
     inkscape:zoom="0.35"
     inkscape:cx="443.12652"
     inkscape:cy="301.45648"
     inkscape:document-units="mm"
     inkscape:current-layer="layer1"
     inkscape:document-rotation="0"
     showgrid="false"
     inkscape:window-width="1320"
     inkscape:window-height="900"
     inkscape:window-x="2082"
     inkscape:window-y="178"
     inkscape:window-maximized="0" />
  <metadata
     id="metadata784">
    <rdf:RDF>
      <cc:Work
         rdf:about="">
        <dc:format>image/svg+xml</dc:format>
        <dc:type
           rdf:resource="http://purl.org/dc/dcmitype/StillImage" />
        <dc:title></dc:title>
      </cc:Work>
    </rdf:RDF>
  </metadata>
  <g
     inkscape:label="Layer 1"
     inkscape:groupmode="layer"
     id="layer1"
     transform="translate(11.410558,-68.406307)">
    <g
       id="g2815"
       transform="matrix(0.26458333,0,0,0.26458333,-28.726313,-112.36843)">
      <path
         fill="#8c5e44"
         stroke="#8c5e44"
         stroke-width="0.5"
         d="m 282.826,684.634 c 1.61,2.9 2.17,6.88 5.22,8.66 5.42,0.03 8.54,-5.19 11.06,-9.25 0.12,2.02 0.35,4.07 0.82,6.06 2.6,0.18 5.4,1.55 7.9,0.28 1.39,-1.68 1.39,-4.05 1.96,-6.06 0.53,2.32 1.21,4.62 2.17,6.8 0.04,-0.94 0.1,-2.83 0.13,-3.77 1.58,2.02 3.32,3.92 5.28,5.6 0.65,-1.75 1.18,-3.52 1.61,-5.32 1.07,2.4 2.19,4.78 3.45,7.09 1.2,-1.68 2.33,-3.41 3.43,-5.16 0.37,2.34 0.02,5.04 1.62,7.01 2.04,-0.87 3.6,-2.47 5.25,-3.89 0.19,1.91 -0.25,4.09 1.06,5.71 3.11,1.9 6.88,0.93 10.25,0.51 0.08,1.36 -0.49,3.18 1.09,3.95 3.15,1.77 6.06,5.12 10,4.49 0.67,2.22 0.71,4.91 2.55,6.59 0.28,-0.72 0.84,-2.16 1.12,-2.88 0.83,3.33 1.67,6.66 2.48,10.01 -0.09,0.12 -0.27,0.36 -0.36,0.48 0.51,0.14 1.53,0.4 2.04,0.53 -0.01,1.42 -0.01,2.85 -0.01,4.29 0.8,1.11 1.6,2.23 2.4,3.36 -0.13,0.94 -0.26,1.88 -0.38,2.84 2.05,5.16 0.81,12.16 6.18,15.45 -0.3,4 -0.82,8.08 0.09,12.05 1.2,5.58 3.89,10.92 3.59,16.76 -0.25,4.45 0.25,8.88 1.26,13.21 -0.45,2.45 -0.75,4.93 -0.51,7.43 -0.16,0.11 -0.48,0.33 -0.64,0.44 -0.27,3.37 -1.31,6.62 -1.72,9.97 -0.4,2.61 1.74,4.44 3.26,6.22 -0.47,1.54 -1.16,3.06 -1.21,4.7 0.64,1.3 1.73,2.3 2.64,3.43 2.26,2.12 1.83,5.7 4.09,7.85 3.88,4.14 5.23,9.9 9.02,14.13 -0.12,0.6 -0.34,1.81 -0.45,2.41 0.24,1 0.54,1.99 0.83,3 -0.52,2.02 -1.09,4.2 0.19,6.08 1.37,1.97 0.82,4.26 0.38,6.43 -0.81,3.42 1.72,6.7 0.7,10.12 -0.86,3.46 -0.85,7.03 -1.31,10.54 -1.32,5.38 -5.13,9.56 -8.14,14.04 -1.41,2.28 -4.09,3.19 -6.02,4.92 -0.78,3.1 -1.08,6.53 -0.4,9.67 5.76,8.93 11.87,17.7 16.99,27.02 3.06,7.15 6.5,14.5 6.6,22.43 0.42,7.32 -3.17,14.25 -2.58,21.59 0.22,1.99 1.88,3.32 3.12,4.75 6.05,6.15 10.19,13.91 13.32,21.89 1.84,4.68 2.92,9.98 1.29,14.89 -1.24,3.81 -2.51,7.86 -1.36,11.87 0.31,1.41 0.67,2.82 1.03,4.25 l 0.12,0.49 c -30.84,29.25 -70.95,48.41 -113,54.45 -5.41,0.62 -10.85,1.75 -16.31,1.5 -4.84,-1.25 -9.86,-0.67 -14.79,-0.66 -5.22,0.08 -10.5,-0.56 -15.64,0.62 -27.33,-1.37 -54.24,-9.18 -78.8,-21.15 -18.57,-9.42 -36.07,-21.28 -50.88,-35.97 0.64,-4.08 -2.1,-7.29 -4.18,-10.46 1.01,-0.86 2.02,-1.7 3.03,-2.53 -0.78,-0.66 -1.56,-1.32 -2.34,-1.94 2.65,-5.07 5.56,-9.99 8.27,-15.02 1.47,-2.52 1.23,-5.45 0.7,-8.18 0.24,-0.39 0.73,-1.17 0.97,-1.55 0.05,0.78 0.16,2.36 0.21,3.15 1.87,-4.22 1.59,-9.39 4.85,-12.91 2.12,-2.31 2.08,-6.27 5.24,-7.6 2.28,-1.4 5.03,-2.65 6.01,-5.34 0.2,-1.9 -0.94,-3.64 -1.46,-5.4 0.82,-0.66 1.64,-1.29 2.47,-1.92 -0.61,-0.9 -1.22,-1.79 -1.82,-2.65 2.42,-2.83 3.02,-6.56 4.75,-9.75 4.45,-7.74 4.36,-17.02 7.77,-25.16 1.23,-2.5 0,-5.15 -0.64,-7.61 -1.64,-5.34 -2.39,-10.91 -4.11,-16.23 -2.85,-7.8 0.78,-16.12 -0.96,-24.07 -0.65,-1.3 -1.62,-2.4 -2.47,-3.55 3.77,-6.4 5.9,-16.04 -0.21,-21.7 0.95,-1.08 2.1,-2.01 2.79,-3.27 0.72,-1.66 -0.49,-3.21 -1.16,-4.63 0.37,-1.4 0.86,-2.78 1.05,-4.21 -0.5,-1.7 -1.54,-3.2 -1.96,-4.9 -0.08,-2.53 0,-5.08 -0.86,-7.49 1.33,-2.99 0.34,-6.03 -0.94,-8.82 0.87,-3.59 1.15,-7.28 0.99,-10.96 -0.34,1.5 -0.69,3.02 -0.95,4.55 -0.13,-1.84 -1.02,-3.4 -2.03,-4.87 0.64,-1.75 1.28,-3.49 1.79,-5.27 0.45,-3.49 0.05,-7.04 -1.27,-10.3 2.99,-6.02 -0.15,-12.74 1.78,-18.96 1.56,-5.62 0.96,-11.58 2.73,-17.14 1.2,-5.35 4.27,-9.95 6.12,-15.05 1.24,-3.58 4.34,-6.08 5.65,-9.6 1.28,-0.88 2.72,-1.57 3.83,-2.66 0.76,-1.65 1.19,-3.41 1.72,-5.12 3.75,-0.69 8.18,-3.03 7.54,-7.51 l 0.07,-0.84 c 0.39,-1.1 0.79,-2.18 1.21,-3.25 1.45,-0.1 3.17,0.52 4.37,-0.62 4.19,-3.13 6.96,-7.93 11.76,-10.3 6.04,-3.2 12.1,-6.97 18.99,-7.86 1.66,-0.02 2.43,-1.56 3.35,-2.65 1.84,0.41 3.69,1.29 5.61,0.97 1.67,-0.53 2.04,-2.34 2.76,-3.69 6.56,2.72 12.87,-1.46 18.6,-4.2 3.23,0.64 6.53,0.59 9.65,-0.53 3.36,-0.16 6.66,1.37 10.08,0.94 -0.5,-1.26 -1.01,-2.51 -1.53,-3.75 4.99,1.74 9.1,5.66 14.47,6.32 3.97,-0.71 3.83,-5.61 4.63,-8.66 m 43.79,37.57 c -3.76,0.9 -7.54,3.09 -9.26,6.69 0.5,3.13 1.53,6.69 4.26,8.59 5.04,2.05 6.32,-6.93 11.57,-5.42 6.12,2.23 11.08,6.65 15.75,11.04 1.92,2.07 4.12,4.08 5.21,6.74 0.02,1.93 -0.57,3.8 -0.66,5.73 2.97,3 7.61,3.27 11.61,3.28 1.81,-13.52 -6.06,-27.83 -18.54,-33.42 -6.04,-3.22 -13.17,-4.83 -19.94,-3.23 m -61.19,17.37 c 0.01,3.07 0.59,6.23 -0.3,9.24 -2.15,6.91 -7.29,12.78 -8.26,20.06 -0.36,4.22 5.28,2.68 6.67,5.74 2.24,3.96 3.12,8.51 4.17,12.89 0.88,4.44 1.53,9.63 -1.33,13.52 -2.77,3.58 -7.48,4.2 -11.51,5.5 3.37,0.9 7.1,1.77 10.47,0.41 2.61,-0.92 4.29,-3.22 5.97,-5.28 2.32,1.78 4.91,4.38 8.12,3.59 1.06,-0.4 2.9,-0.3 2.82,-1.84 -3.54,-1.26 -7.99,-2.17 -9.43,-6.16 0.32,-11.24 -0.93,-24.38 -9.97,-32.24 2.8,-7.92 7.88,-17.48 2.58,-25.43 m -76.81,7.66 c -6.26,0.22 -10.97,4.67 -15.56,8.37 -6.82,6.6 -12.03,15.56 -11.97,25.29 -0.02,4.95 0.04,10.69 3.48,14.63 3.19,1.08 6.64,-1.32 8.95,-3.41 3.03,-3.68 -2.47,-7.36 -1.09,-11.24 1.36,-4.79 3.76,-9.23 6.43,-13.4 2.43,-3.87 5.43,-8.12 10.37,-8.69 2.52,0.52 4.68,2.04 7.1,2.86 1.44,-0.08 1.72,-1.57 2.17,-2.63 0.79,-2.26 1.38,-4.73 0.82,-7.1 -1.77,-3.99 -6.73,-5.15 -10.7,-4.68 m 103.4,32.87 c 1.27,2.49 4.55,3.76 4.85,6.72 -0.43,3.62 -3.21,6.89 -2.17,10.68 -0.29,2.58 -0.49,5.17 -0.62,7.76 -6.43,-0.41 -13.03,1.28 -18.19,5.22 -1.97,1.19 -3.74,3.53 -6.32,2.94 -7.58,-1.15 -15.42,-0.47 -22.62,2.2 -2.36,0.91 -4.39,2.8 -7.04,2.85 1.26,-3.35 0.54,-6.96 0.75,-10.42 0.01,-3.77 -2.86,-6.32 -4.63,-9.32 -0.96,-3.07 1.94,-5.53 3.17,-8.08 -2.97,1.34 -6.38,3.52 -6.27,7.22 -0.54,4.41 3.48,7.54 3.62,11.86 -2.09,2.65 -3.74,6.07 -7.06,7.39 -2.12,-0.22 -4.53,-0.97 -6.41,0.48 -4.32,3.21 -7.66,7.67 -10.06,12.46 3.96,-2.08 7.12,-5.33 10.92,-7.67 l 0.13,-0.82 c 2.53,0.61 5.14,1.34 7.77,0.86 0.47,0.28 1.4,0.85 1.87,1.13 -9.47,6.58 -17.89,16.06 -20.53,27.52 4.89,-8.1 9.98,-16.24 17.12,-22.58 -3.34,7.7 -7.18,15.18 -10.48,22.9 -2.98,7.9 -6.74,16.76 -3.33,25.16 2.41,8.51 9.69,14.91 17.86,17.79 -1.08,1.57 -1.83,3.33 -2.28,5.19 0.66,4.12 1.3,8.36 3.28,12.1 1.88,2.87 4.78,5.05 7.95,6.35 8.98,2.24 18.44,2.27 27.39,-0.17 6.44,0.38 12.92,-0.76 19.11,-2.48 6.08,0.72 13.01,1.93 18.54,-1.4 5.1,-4.83 8.06,-11.52 9.86,-18.2 1.43,-3.43 2.62,-6.95 3.4,-10.57 3.72,-2.55 7.8,-4.83 10.47,-8.57 3.49,-4.91 5.42,-10.84 5.98,-16.8 0.23,-5.52 -3.03,-10.27 -6.38,-14.34 -3.13,-3.27 -2.25,-8.11 -3.95,-12 -3.93,-8.52 -9.9,-16.02 -17.32,-21.75 0.55,-0.74 1.1,-1.46 1.66,-2.18 1.1,-0.49 2.15,-1.1 3.27,-1.56 5.37,0.56 10.06,3.6 15.25,4.9 -3.6,-4.02 -8.11,-7.21 -13,-9.44 -2.02,-1.04 -4.3,-0.74 -6.46,-0.52 l 0.65,1.06 c -3.67,1.32 -7.89,-0.38 -10.01,-3.54 -0.83,-0.9 -1.36,-2.44 -2.79,-2.41 0.1,-4.4 2.72,-9.01 0.5,-13.23 -1.21,-3.05 -4.59,-3.96 -7.45,-4.69 m -137.56,212.77 c 0.37,2.83 0.99,5.75 2.79,8.07 3.88,5.43 5.22,12.07 6.5,18.48 4.21,0.9 8.33,2.8 10.08,7.01 0.8,-0.43 1.61,-0.84 2.42,-1.23 1.54,1 3.16,1.94 4.54,3.19 1.19,1.76 1.53,3.92 2.14,5.94 4.51,-2.35 6.65,3.36 8.33,6.5 1.6,0.58 3.22,1.17 4.83,1.78 -0.72,-0.69 -1.44,-1.37 -2.16,-2.02 -0.76,-0.04 -1.51,-0.06 -2.27,-0.06 -1.22,-2.63 -2.74,-5.11 -4.82,-7.14 -1.21,-0.09 -2.42,-0.18 -3.63,-0.25 -0.9,-2.05 -0.99,-4.82 -3.12,-6.03 -4.32,-2.4 -8.03,-5.88 -12.89,-7.23 0.16,-0.41 0.47,-1.24 0.63,-1.66 -1.16,0.34 -2.36,1.05 -3.6,0.67 -0.4,-1.6 0.49,-3.12 0.8,-4.63 -0.43,0.27 -1.31,0.82 -1.74,1.09 -0.5,-8.33 -5.94,-14.96 -8.83,-22.48 z"
         id="path2753" />
      <path
         fill="#7a8d5b"
         stroke="#7a8d5b"
         stroke-width="0.5"
         d="m 361.276,721.064 c 1.22,-1.51 2.42,-3.05 3.63,-4.57 -0.06,1.98 -0.89,4.08 -0.35,6.06 1.22,0.61 2.51,1.05 3.79,1.54 -0.24,3.09 -1.5,5.95 -2.7,8.78 2.61,-0.89 5.23,-1.78 7.85,-2.64 -2.32,2.58 -4.84,5.04 -6.45,8.17 2.62,0.54 5.24,1.04 7.86,1.58 -2.36,1.01 -4.72,2.01 -7.08,3.01 2.14,2.2 4.52,4.14 7.04,5.91 -1.09,0.82 -2.17,1.66 -3.26,2.5 -0.94,9.21 4.66,17.37 4.9,26.44 0.08,4.06 0.47,8.18 -0.42,12.19 -1.01,-4.33 -1.51,-8.76 -1.26,-13.21 0.3,-5.84 -2.39,-11.18 -3.59,-16.76 -0.91,-3.97 -0.39,-8.05 -0.09,-12.05 -5.37,-3.29 -4.13,-10.29 -6.18,-15.45 0.12,-0.96 0.25,-1.9 0.38,-2.84 -0.8,-1.13 -1.6,-2.25 -2.4,-3.36 0,-1.44 0,-2.87 0.01,-4.29 -0.51,-0.13 -1.53,-0.39 -2.04,-0.53 0.09,-0.12 0.27,-0.36 0.36,-0.48 z"
         id="path2755" />
      <path
         fill="#6bb576"
         stroke="#6bb576"
         stroke-width="0.5"
         d="m 97.406,792.954 c 20.04,-30.47 48.52,-55.41 81.47,-71.04 l -0.07,0.84 c -1.14,1.97 -2.13,4.25 -4.12,5.52 -1.67,0.63 -3.51,0.12 -5.25,0.11 0.02,1.82 0.12,3.65 -0.1,5.48 -1.27,3.02 -5.24,2.33 -7.89,2.81 0.89,0.95 1.86,1.85 2.58,2.96 -1.38,0.84 -2.92,1.38 -4.44,1.93 0.5,1.1 1.03,2.2 1.43,3.37 -1.33,1.2 -2.81,2.23 -4.26,3.29 2.84,3.14 -1.46,5.61 -2.13,8.69 -1.31,4.55 -2.96,9.08 -3.17,13.86 -0.22,4.45 -0.83,8.91 -2.51,13.08 0.91,5.04 2.18,10.72 -1.31,15.12 0.85,1.57 1.88,3.09 2.36,4.85 -0.23,1.74 -0.97,3.38 -1.54,5.05 0.56,0.05 1.69,0.17 2.25,0.22 -0.51,1.78 -1.15,3.52 -1.79,5.27 1.01,1.47 1.9,3.03 2.03,4.87 -0.14,1.31 -0.27,2.63 -0.39,3.96 -0.6,0.7 -1.19,1.43 -1.79,2.16 1.7,1.96 2.72,4.32 3.1,6.89 -1.42,-0.02 -2.84,-0.02 -4.27,-0.03 2.19,2.11 4.17,4.5 5.01,7.49 -1.5,0.38 -2.99,0.76 -4.48,1.15 2.01,1.81 4.84,3.22 5.66,5.97 -0.27,2.27 -2.11,3.95 -3.36,5.78 1.22,0.41 2.49,0.74 3.59,1.46 -0.67,2.83 -3.97,4.06 -6.04,5.84 2.13,0.73 5.18,0.65 6.17,3.08 0.94,2.88 0.53,5.99 0.36,8.96 -0.11,3.75 -2.81,6.6 -4.93,9.44 1.59,1.03 4.08,1.52 4.49,3.69 1.61,7.04 -2.08,14.24 -0.12,21.26 2.4,7.49 3.81,15.24 5.8,22.83 -2.08,7.87 -4.59,15.75 -6.79,23.64 -1.61,5.77 -6.27,10.56 -6.31,16.77 -0.2,2.61 0.37,5.19 1.18,7.67 -2.41,2.41 -5.62,3.77 -8.18,5.99 -1.2,2.12 -1.84,4.57 -3.44,6.47 -2.5,2.75 -2.83,6.58 -3.85,10 -0.24,0.38 -0.73,1.16 -0.97,1.55 l -0.82,1.29 c -0.35,1.91 -0.52,3.85 -0.71,5.81 -0.32,-0.19 -0.96,-0.56 -1.27,-0.74 -0.74,6.14 -5.39,10.66 -7.94,16.08 0.24,0.83 0.48,1.68 0.72,2.55 -2.49,4.18 2.17,7.56 2.84,11.58 -7.31,-8.35 -15.08,-16.32 -21.46,-25.44 -23.29,-31.86 -36.73,-71 -37,-110.52 -0.91,-38.41 10.48,-76.9 31.66,-108.91 z"
         id="path2757" />
      <path
         fill="#785239"
         stroke="#785239"
         stroke-width="0.5"
         d="m 326.616,722.204 c 6.77,-1.6 13.9,0.01 19.94,3.23 12.48,5.59 20.35,19.9 18.54,33.42 -4,-0.01 -8.64,-0.28 -11.61,-3.28 0.09,-1.93 0.68,-3.8 0.66,-5.73 -1.09,-2.66 -3.29,-4.67 -5.21,-6.74 -4.67,-4.39 -9.63,-8.81 -15.75,-11.04 -5.25,-1.51 -6.53,7.47 -11.57,5.42 -2.73,-1.9 -3.76,-5.46 -4.26,-8.59 1.72,-3.6 5.5,-5.79 9.26,-6.69 z"
         id="path2759" />
      <path
         fill="#55472d"
         stroke="#55472d"
         stroke-width="0.5"
         d="m 178.806,722.754 c 0.64,4.48 -3.79,6.82 -7.54,7.51 -0.53,1.71 -0.96,3.47 -1.72,5.12 -1.11,1.09 -2.55,1.78 -3.83,2.66 -1.31,3.52 -4.41,6.02 -5.65,9.6 -1.85,5.1 -4.92,9.7 -6.12,15.05 -1.77,5.56 -1.17,11.52 -2.73,17.14 -1.93,6.22 1.21,12.94 -1.78,18.96 1.32,3.26 1.72,6.81 1.27,10.3 -0.56,-0.05 -1.69,-0.17 -2.25,-0.22 0.57,-1.67 1.31,-3.31 1.54,-5.05 -0.48,-1.76 -1.51,-3.28 -2.36,-4.85 3.49,-4.4 2.22,-10.08 1.31,-15.12 1.68,-4.17 2.29,-8.63 2.51,-13.08 0.21,-4.78 1.86,-9.31 3.17,-13.86 0.67,-3.08 4.97,-5.55 2.13,-8.69 1.45,-1.06 2.93,-2.09 4.26,-3.29 -0.4,-1.17 -0.93,-2.27 -1.43,-3.37 1.52,-0.55 3.06,-1.09 4.44,-1.93 -0.72,-1.11 -1.69,-2.01 -2.58,-2.96 2.65,-0.48 6.62,0.21 7.89,-2.81 0.22,-1.83 0.12,-3.66 0.1,-5.48 1.74,0.01 3.58,0.52 5.25,-0.11 1.99,-1.27 2.98,-3.55 4.12,-5.52 z"
         id="path2761" />
      <path
         fill="#6bb576"
         stroke="#6bb576"
         stroke-width="0.5"
         d="m 368.506,722.754 0.47,0.06 c 0.22,1.36 1.01,2.44 2.3,2.99 30.25,16.18 56.36,40.11 74.87,69.02 23.01,35.57 33.68,78.91 29.79,121.1 -3.97,47.04 -26.34,91.98 -60.73,124.18 -0.36,-1.43 -0.72,-2.84 -1.03,-4.25 0.9,0.32 1.8,0.65 2.71,0.99 -1.04,-2.34 -2.01,-4.71 -2.86,-7.11 1.08,0.69 2.17,1.41 3.25,2.14 -0.35,-1.34 -0.71,-2.66 -1.05,-3.97 0.41,-0.65 0.83,-1.29 1.26,-1.92 -0.22,-4.58 0.93,-9.36 -0.78,-13.74 -3.56,-9.37 -7.99,-18.62 -14.8,-26.08 -1.89,-1.91 -3.07,-4.32 -3.76,-6.87 0.61,0.14 1.83,0.42 2.44,0.57 -0.54,-1.98 -1.07,-3.95 -1.59,-5.92 0.51,0.21 1.54,0.64 2.05,0.86 -1.05,-6.11 1.84,-12.19 0.4,-18.26 -2.91,-10.49 -6.88,-20.83 -13.28,-29.71 -4.24,-5.72 -7.03,-12.34 -11.23,-18.08 0.81,-0.14 2.41,-0.41 3.21,-0.55 -0.97,-1.51 -2,-2.98 -2.78,-4.59 1.95,-3.13 5.77,-4.21 8.8,-5.99 -0.47,-0.39 -1.4,-1.18 -1.87,-1.57 3.1,-2.38 5.31,-5.63 6.78,-9.23 2.36,-4.17 1.18,-9.14 2.65,-13.56 1.46,-3.54 -0.81,-6.98 -1.05,-10.5 0.27,-1.86 1.28,-3.48 2.03,-5.15 -1.07,-1.31 -2.6,-2.4 -3.13,-4.03 0.14,-1.72 1.21,-3.21 1.85,-4.77 -0.96,-0.74 -1.91,-1.48 -2.86,-2.2 0.11,-0.6 0.33,-1.81 0.45,-2.41 0.25,-0.95 0.52,-1.89 0.79,-2.82 -3.06,-1.74 -4.19,-5.06 -5.03,-8.26 0.77,-0.29 1.54,-0.58 2.31,-0.85 -3.35,-0.96 -6.4,-2.76 -8.11,-5.89 0.92,-0.1 2.75,-0.29 3.67,-0.39 -3.23,-2.64 -6.67,-5.18 -8.81,-8.84 1.77,-1.22 3.56,-2.42 5.36,-3.6 -1.86,-0.7 -3.82,-1.17 -5.5,-2.26 -1.59,-1.18 -1.4,-3.42 -0.96,-5.11 0.97,-3.64 2.53,-7.09 3.69,-10.67 -0.71,0.49 -2.14,1.46 -2.85,1.95 -0.24,-2.5 0.06,-4.98 0.51,-7.43 0.89,-4.01 0.5,-8.13 0.42,-12.19 -0.24,-9.07 -5.84,-17.23 -4.9,-26.44 1.09,-0.84 2.17,-1.68 3.26,-2.5 -2.52,-1.77 -4.9,-3.71 -7.04,-5.91 2.36,-1 4.72,-2 7.08,-3.01 -2.62,-0.54 -5.24,-1.04 -7.86,-1.58 1.61,-3.13 4.13,-5.59 6.45,-8.17 -2.62,0.86 -5.24,1.75 -7.85,2.64 1.2,-2.83 2.46,-5.69 2.7,-8.78 z"
         id="path2763" />
      <path
         fill="#5d341d"
         stroke="#5d341d"
         stroke-width="0.5"
         d="m 265.426,739.574 c 5.3,7.95 0.22,17.51 -2.58,25.43 9.04,7.86 10.29,21 9.97,32.24 1.44,3.99 5.89,4.9 9.43,6.16 0.08,1.54 -1.76,1.44 -2.82,1.84 -3.21,0.79 -5.8,-1.81 -8.12,-3.59 -1.68,2.06 -3.36,4.36 -5.97,5.28 -3.37,1.36 -7.1,0.49 -10.47,-0.41 4.03,-1.3 8.74,-1.92 11.51,-5.5 2.86,-3.89 2.21,-9.08 1.33,-13.52 -1.05,-4.38 -1.93,-8.93 -4.17,-12.89 -1.39,-3.06 -7.03,-1.52 -6.67,-5.74 0.97,-7.28 6.11,-13.15 8.26,-20.06 0.89,-3.01 0.31,-6.17 0.3,-9.24 z"
         id="path2765" />
      <path
         fill="#785238"
         stroke="#785238"
         stroke-width="0.5"
         d="m 188.616,747.234 c 3.97,-0.47 8.93,0.69 10.7,4.68 0.56,2.37 -0.03,4.84 -0.82,7.1 -0.45,1.06 -0.73,2.55 -2.17,2.63 -2.42,-0.82 -4.58,-2.34 -7.1,-2.86 -4.94,0.57 -7.94,4.82 -10.37,8.69 -2.67,4.17 -5.07,8.61 -6.43,13.4 -1.38,3.88 4.12,7.56 1.09,11.24 -2.31,2.09 -5.76,4.49 -8.95,3.41 -3.44,-3.94 -3.5,-9.68 -3.48,-14.63 -0.06,-9.73 5.15,-18.69 11.97,-25.29 4.59,-3.7 9.3,-8.15 15.56,-8.37 z"
         id="path2767" />
      <path
         fill="#472715"
         stroke="#472715"
         stroke-width="0.5"
         d="m 292.016,780.104 c 2.86,0.73 6.24,1.64 7.45,4.69 2.22,4.22 -0.4,8.83 -0.5,13.23 -1.37,0.27 -2.73,0.61 -4.07,0.97 -0.05,-0.37 -0.15,-1.12 -0.2,-1.49 -1.04,-3.79 1.74,-7.06 2.17,-10.68 -0.3,-2.96 -3.58,-4.23 -4.85,-6.72 z"
         id="path2769" />
      <path
         fill="#492615"
         stroke="#492615"
         stroke-width="0.5"
         d="m 232.926,797.874 c -0.11,-3.7 3.3,-5.88 6.27,-7.22 -1.23,2.55 -4.13,5.01 -3.17,8.08 1.77,3 4.64,5.55 4.63,9.32 -1.41,0.45 -2.81,0.96 -4.11,1.68 -0.14,-4.32 -4.16,-7.45 -3.62,-11.86 z"
         id="path2771" />
      <path
         fill="#686238"
         stroke="#686238"
         stroke-width="0.5"
         d="m 375.576,797.464 c 0.71,-0.49 2.14,-1.46 2.85,-1.95 -1.16,3.58 -2.72,7.03 -3.69,10.67 -0.44,1.69 -0.63,3.93 0.96,5.11 1.68,1.09 3.64,1.56 5.5,2.26 -1.8,1.18 -3.59,2.38 -5.36,3.6 2.14,3.66 5.58,6.2 8.81,8.84 -0.92,0.1 -2.75,0.29 -3.67,0.39 1.71,3.13 4.76,4.93 8.11,5.89 -0.77,0.27 -1.54,0.56 -2.31,0.85 0.84,3.2 1.97,6.52 5.03,8.26 -0.27,0.93 -0.54,1.87 -0.79,2.82 -3.79,-4.23 -5.14,-9.99 -9.02,-14.13 -2.26,-2.15 -1.83,-5.73 -4.09,-7.85 -0.91,-1.13 -2,-2.13 -2.64,-3.43 0.05,-1.64 0.74,-3.16 1.21,-4.7 -1.52,-1.78 -3.66,-3.61 -3.26,-6.22 0.41,-3.35 1.45,-6.6 1.72,-9.97 0.16,-0.11 0.48,-0.33 0.64,-0.44 z"
         id="path2773" />
      <path
         fill="#75533a"
         stroke="#75533a"
         stroke-width="0.5"
         d="m 294.696,797.504 c 0.05,0.37 0.15,1.12 0.2,1.49 0.13,1.95 0.06,3.91 0.22,5.88 4.5,1.89 9.4,2.91 13.48,5.75 0.85,-0.25 1.7,-0.5 2.56,-0.75 l 0.9,-0.34 c -0.56,0.72 -1.11,1.44 -1.66,2.18 7.42,5.73 13.39,13.23 17.32,21.75 1.7,3.89 0.82,8.73 3.95,12 3.35,4.07 6.61,8.82 6.38,14.34 -0.56,5.96 -2.49,11.89 -5.98,16.8 -2.67,3.74 -6.75,6.02 -10.47,8.57 -3.75,-0.02 -7.54,0.98 -11.25,0.28 -4.55,-1.68 -8.52,-4.57 -12.66,-7.05 -1.04,-0.65 -2.08,-1.25 -3.14,-1.84 -5.3,-3.47 -8.86,-9.75 -15.33,-11.21 -5.8,2.7 -7.37,9.62 -11.03,14.37 -3.45,4.5 -6.23,9.61 -10.35,13.53 -7.09,4.03 -15.9,3.23 -23.49,1.1 -8.17,-2.88 -15.45,-9.28 -17.86,-17.79 -3.41,-8.4 0.35,-17.26 3.33,-25.16 3.3,-7.72 7.14,-15.2 10.48,-22.9 1.43,-1.49 2.9,-2.94 4.35,-4.4 l -0.94,-0.54 c -0.47,-0.28 -1.4,-0.85 -1.87,-1.13 3.01,-0.53 6.01,-1.6 8.07,-3.96 2.65,-0.05 4.68,-1.94 7.04,-2.85 7.2,-2.67 15.04,-3.35 22.62,-2.2 2.58,0.59 4.35,-1.75 6.32,-2.94 5.16,-3.94 11.76,-5.63 18.19,-5.22 0.13,-2.59 0.33,-5.18 0.62,-7.76 m 2.98,25 c 2.85,3.21 6.68,5.23 9.98,7.91 4.09,3.26 8.05,6.77 11.26,10.93 2.26,2.73 2.83,6.33 3.92,9.61 1.56,-7.48 -4.03,-13.83 -9.21,-18.41 -4.87,-3.96 -9.83,-8.23 -15.95,-10.04 m -48.49,8.28 c -8.95,8.37 -17.28,18.08 -21.34,29.83 -2,5.56 -2.02,12 1.09,17.17 -1.71,-6.45 -1.06,-13.3 2.06,-19.21 4.69,-9.2 11.45,-17.1 18.26,-24.78 2.54,-2.79 5.46,-5.27 7.44,-8.53 -2.9,1.24 -5.2,3.43 -7.51,5.52 m 19.42,-3.51 c -5.42,2.04 -8.47,8.1 -8.42,13.64 1.37,5.15 6.03,8.6 10.02,11.78 2.85,1.77 6.78,4.9 10.01,2.22 4.34,-4.04 6.85,-9.69 8.7,-15.22 1.13,-3.18 1.55,-7.63 -2.04,-9.37 -5.49,-2.77 -12.21,-5.03 -18.27,-3.05 z"
         id="path2775" />
      <path
         fill="#141107"
         stroke="#141107"
         stroke-width="0.5"
         d="m 294.896,798.994 c 1.34,-0.36 2.7,-0.7 4.07,-0.97 1.43,-0.03 1.96,1.51 2.79,2.41 2.12,3.16 6.34,4.86 10.01,3.54 0.33,0.53 0.67,1.07 1.01,1.62 -0.54,1.42 -1.08,2.85 -1.62,4.28 -0.86,0.25 -1.71,0.5 -2.56,0.75 -4.08,-2.84 -8.98,-3.86 -13.48,-5.75 -0.16,-1.97 -0.09,-3.93 -0.22,-5.88 z"
         id="path2777" />
      <path
         fill="#472716"
         stroke="#472716"
         stroke-width="0.5"
         d="m 311.116,802.914 c 2.16,-0.22 4.44,-0.52 6.46,0.52 4.89,2.23 9.4,5.42 13,9.44 -5.19,-1.3 -9.88,-4.34 -15.25,-4.9 -1.12,0.46 -2.17,1.07 -3.27,1.56 l -0.9,0.34 c 0.54,-1.43 1.08,-2.86 1.62,-4.28 -0.34,-0.55 -0.68,-1.09 -1.01,-1.62 z"
         id="path2779" />
      <path
         fill="#151009"
         stroke="#151009"
         stroke-width="0.5"
         d="m 236.546,809.734 c 1.3,-0.72 2.7,-1.23 4.11,-1.68 -0.21,3.46 0.51,7.07 -0.75,10.42 -2.06,2.36 -5.06,3.43 -8.07,3.96 -2.63,0.48 -5.24,-0.25 -7.77,-0.86 0.16,-1.02 0.33,-2.03 0.49,-3.03 1.65,-0.44 3.31,-0.88 4.93,-1.42 3.32,-1.32 4.97,-4.74 7.06,-7.39 z"
         id="path2781" />
      <path
         fill="#55472d"
         stroke="#55472d"
         stroke-width="0.5"
         d="m 151.896,814.684 c 0.16,3.68 -0.12,7.37 -0.99,10.96 1.28,2.79 2.27,5.83 0.94,8.82 0.86,2.41 0.78,4.96 0.86,7.49 0.42,1.7 1.46,3.2 1.96,4.9 -0.19,1.43 -0.68,2.81 -1.05,4.21 0.67,1.42 1.88,2.97 1.16,4.63 -0.69,1.26 -1.84,2.19 -2.79,3.27 6.11,5.66 3.98,15.3 0.21,21.7 0.85,1.15 1.82,2.25 2.47,3.55 1.74,7.95 -1.89,16.27 0.96,24.07 1.72,5.32 2.47,10.89 4.11,16.23 0.64,2.46 1.87,5.11 0.64,7.61 -3.41,8.14 -3.32,17.42 -7.77,25.16 -1.73,3.19 -2.33,6.92 -4.75,9.75 0.6,0.86 1.21,1.75 1.82,2.65 -0.83,0.63 -1.65,1.26 -2.47,1.92 0.52,1.76 1.66,3.5 1.46,5.4 -0.98,2.69 -3.73,3.94 -6.01,5.34 -3.16,1.33 -3.12,5.29 -5.24,7.6 -3.26,3.52 -2.98,8.69 -4.85,12.91 -0.05,-0.79 -0.16,-2.37 -0.21,-3.15 1.02,-3.42 1.35,-7.25 3.85,-10 1.6,-1.9 2.24,-4.35 3.44,-6.47 2.56,-2.22 5.77,-3.58 8.18,-5.99 -0.81,-2.48 -1.38,-5.06 -1.18,-7.67 0.04,-6.21 4.7,-11 6.31,-16.77 2.2,-7.89 4.71,-15.77 6.79,-23.64 -1.99,-7.59 -3.4,-15.34 -5.8,-22.83 -1.96,-7.02 1.73,-14.22 0.12,-21.26 -0.41,-2.17 -2.9,-2.66 -4.49,-3.69 2.12,-2.84 4.82,-5.69 4.93,-9.44 0.17,-2.97 0.58,-6.08 -0.36,-8.96 -0.99,-2.43 -4.04,-2.35 -6.17,-3.08 2.07,-1.78 5.37,-3.01 6.04,-5.84 -1.1,-0.72 -2.37,-1.05 -3.59,-1.46 1.25,-1.83 3.09,-3.51 3.36,-5.78 -0.82,-2.75 -3.65,-4.16 -5.66,-5.97 1.49,-0.39 2.98,-0.77 4.48,-1.15 -0.84,-2.99 -2.82,-5.38 -5.01,-7.49 1.43,0.01 2.85,0.01 4.27,0.03 -0.38,-2.57 -1.4,-4.93 -3.1,-6.89 0.6,-0.73 1.19,-1.46 1.79,-2.16 0.12,-1.33 0.25,-2.65 0.39,-3.96 0.26,-1.53 0.61,-3.05 0.95,-4.55 z"
         id="path2783" />
      <path
         fill="#482919"
         stroke="#482919"
         stroke-width="0.5"
         d="m 223.076,817.604 c 1.88,-1.45 4.29,-0.7 6.41,-0.48 -1.62,0.54 -3.28,0.98 -4.93,1.42 -0.16,1 -0.33,2.01 -0.49,3.03 l -0.13,0.82 c -3.8,2.34 -6.96,5.59 -10.92,7.67 2.4,-4.79 5.74,-9.25 10.06,-12.46 z"
         id="path2785" />
      <path
         fill="#51301a"
         stroke="#51301a"
         stroke-width="0.5"
         d="m 297.676,822.504 c 6.12,1.81 11.08,6.08 15.95,10.04 5.18,4.58 10.77,10.93 9.21,18.41 -1.09,-3.28 -1.66,-6.88 -3.92,-9.61 -3.21,-4.16 -7.17,-7.67 -11.26,-10.93 -3.3,-2.68 -7.13,-4.7 -9.98,-7.91 z"
         id="path2787" />
      <path
         fill="#57301a"
         stroke="#57301a"
         stroke-width="0.5"
         d="m 213.176,851.084 c 2.64,-11.46 11.06,-20.94 20.53,-27.52 l 0.94,0.54 c -1.45,1.46 -2.92,2.91 -4.35,4.4 -7.14,6.34 -12.23,14.48 -17.12,22.58 z"
         id="path2789" />
      <path
         fill="#502f1a"
         stroke="#502f1a"
         stroke-width="0.5"
         d="m 249.186,830.784 c 2.31,-2.09 4.61,-4.28 7.51,-5.52 -1.98,3.26 -4.9,5.74 -7.44,8.53 -6.81,7.68 -13.57,15.58 -18.26,24.78 -3.12,5.91 -3.77,12.76 -2.06,19.21 -3.11,-5.17 -3.09,-11.61 -1.09,-17.17 4.06,-11.75 12.39,-21.46 21.34,-29.83 z"
         id="path2791" />
      <path
         fill="#1d191f"
         stroke="#1d191f"
         stroke-width="0.5"
         d="m 268.606,827.274 c 6.06,-1.98 12.78,0.28 18.27,3.05 3.59,1.74 3.17,6.19 2.04,9.37 -1.85,5.53 -4.36,11.18 -8.7,15.22 -3.23,2.68 -7.16,-0.45 -10.01,-2.22 -3.99,-3.18 -8.65,-6.63 -10.02,-11.78 -0.05,-5.54 3,-11.6 8.42,-13.64 m -3.48,4.31 c 6.3,-0.04 12.55,-0.95 18.86,-0.68 -5.58,-4.17 -12.96,-1.23 -18.86,0.68 z"
         id="path2793" />
      <path
         fill="#464140"
         stroke="#464140"
         stroke-width="0.5"
         d="m 265.126,831.584 c 5.9,-1.91 13.28,-4.85 18.86,-0.68 -6.31,-0.27 -12.56,0.64 -18.86,0.68 z"
         id="path2795" />
      <path
         fill="#55472d"
         stroke="#55472d"
         stroke-width="0.5"
         d="m 391.396,849.614 c -0.29,-1.01 -0.59,-2 -0.83,-3 0.95,0.72 1.9,1.46 2.86,2.2 -0.64,1.56 -1.71,3.05 -1.85,4.77 0.53,1.63 2.06,2.72 3.13,4.03 -0.75,1.67 -1.76,3.29 -2.03,5.15 0.24,3.52 2.51,6.96 1.05,10.5 -1.47,4.42 -0.29,9.39 -2.65,13.56 -1.47,3.6 -3.68,6.85 -6.78,9.23 0.47,0.39 1.4,1.18 1.87,1.57 -3.03,1.78 -6.85,2.86 -8.8,5.99 0.78,1.61 1.81,3.08 2.78,4.59 -0.8,0.14 -2.4,0.41 -3.21,0.55 4.2,5.74 6.99,12.36 11.23,18.08 6.4,8.88 10.37,19.22 13.28,29.71 1.44,6.07 -1.45,12.15 -0.4,18.26 -0.51,-0.22 -1.54,-0.65 -2.05,-0.86 0.52,1.97 1.05,3.94 1.59,5.92 -0.61,-0.15 -1.83,-0.43 -2.44,-0.57 0.69,2.55 1.87,4.96 3.76,6.87 6.81,7.46 11.24,16.71 14.8,26.08 1.71,4.38 0.56,9.16 0.78,13.74 -0.43,0.63 -0.85,1.27 -1.26,1.92 0.34,1.31 0.7,2.63 1.05,3.97 -1.08,-0.73 -2.17,-1.45 -3.25,-2.14 0.85,2.4 1.82,4.77 2.86,7.11 -0.91,-0.34 -1.81,-0.67 -2.71,-0.99 -1.15,-4.01 0.12,-8.06 1.36,-11.87 1.63,-4.91 0.55,-10.21 -1.29,-14.89 -3.13,-7.98 -7.27,-15.74 -13.32,-21.89 -1.24,-1.43 -2.9,-2.76 -3.12,-4.75 -0.59,-7.34 3,-14.27 2.58,-21.59 -0.1,-7.93 -3.54,-15.28 -6.6,-22.43 -5.12,-9.32 -11.23,-18.09 -16.99,-27.02 -0.68,-3.14 -0.38,-6.57 0.4,-9.67 1.93,-1.73 4.61,-2.64 6.02,-4.92 3.01,-4.48 6.82,-8.66 8.14,-14.04 0.46,-3.51 0.45,-7.08 1.31,-10.54 1.02,-3.42 -1.51,-6.7 -0.7,-10.12 0.44,-2.17 0.99,-4.46 -0.38,-6.43 -1.28,-1.88 -0.71,-4.06 -0.19,-6.08 z"
         id="path2797" />
      <path
         fill="#0f0c0b"
         stroke="#0f0c0b"
         stroke-width="0.5"
         d="m 268.186,879.724 c 3.66,-4.75 5.23,-11.67 11.03,-14.37 6.47,1.46 10.03,7.74 15.33,11.21 -5.44,-1.65 -10.48,-5.27 -16.32,-5.08 -5.78,1.41 -9.04,7.49 -10.46,12.83 -1.15,3.71 1.43,6.87 3.45,9.67 l -1.09,-0.07 c -4.71,-0.97 -6.9,4.6 -10.96,5.92 -8.77,3 -18.18,0.87 -27.1,-0.29 0.45,-1.86 1.2,-3.62 2.28,-5.19 7.59,2.13 16.4,2.93 23.49,-1.1 4.12,-3.92 6.9,-9.03 10.35,-13.53 z"
         id="path2799" />
      <path
         fill="#443944"
         stroke="#443944"
         stroke-width="0.5"
         d="m 267.766,884.314 c 1.42,-5.34 4.68,-11.42 10.46,-12.83 5.84,-0.19 10.88,3.43 16.32,5.08 1.06,0.59 2.1,1.19 3.14,1.84 -0.27,6.38 -3.83,12.3 -9.05,15.89 -3.34,2.23 -7.58,2.1 -11.44,1.93 -2.4,-0.63 -4.7,-1.59 -7.07,-2.31 l 1.09,0.07 c -2.02,-2.8 -4.6,-5.96 -3.45,-9.67 z"
         id="path2801" />
      <path
         fill="#0f0c0a"
         stroke="#0f0c0a"
         stroke-width="0.5"
         d="m 297.686,878.404 c 4.14,2.48 8.11,5.37 12.66,7.05 3.71,0.7 7.5,-0.3 11.25,-0.28 -0.78,3.62 -1.97,7.14 -3.4,10.57 -3.87,-3.96 -8.64,-6.91 -13.54,-9.4 -1.55,-0.55 -3.55,-1.75 -4.98,-0.3 -3.28,3.12 -5.23,7.62 -9.33,9.89 -3.99,2.43 -8.9,1.39 -13.15,0.29 3.86,0.17 8.1,0.3 11.44,-1.93 5.22,-3.59 8.78,-9.51 9.05,-15.89 z"
         id="path2803" />
      <path
         fill="#5a382c"
         stroke="#5a382c"
         stroke-width="0.5"
         d="m 299.676,886.044 c 1.43,-1.45 3.43,-0.25 4.98,0.3 4.9,2.49 9.67,5.44 13.54,9.4 -1.8,6.68 -4.76,13.37 -9.86,18.2 -5.53,3.33 -12.46,2.12 -18.54,1.4 -3.24,-0.59 -6.59,-1.7 -9.88,-0.81 -3.17,0.81 -6.13,2.24 -9.23,3.29 -8.95,2.44 -18.41,2.41 -27.39,0.17 -3.17,-1.3 -6.07,-3.48 -7.95,-6.35 -1.98,-3.74 -2.62,-7.98 -3.28,-12.1 8.92,1.16 18.33,3.29 27.1,0.29 4.06,-1.32 6.25,-6.89 10.96,-5.92 2.37,0.72 4.67,1.68 7.07,2.31 4.25,1.1 9.16,2.14 13.15,-0.29 4.1,-2.27 6.05,-6.77 9.33,-9.89 z"
         id="path2805" />
      <path
         fill="#140b06"
         stroke="#140b06"
         stroke-width="0.5"
         d="m 279.916,914.534 c 3.29,-0.89 6.64,0.22 9.88,0.81 -6.19,1.72 -12.67,2.86 -19.11,2.48 3.1,-1.05 6.06,-2.48 9.23,-3.29 z"
         id="path2807" />
      <path
         fill="#4a2d1f"
         stroke="#4a2d1f"
         stroke-width="0.5"
         d="m 154.456,992.874 c 2.89,7.52 8.33,14.15 8.83,22.48 0.43,-0.27 1.31,-0.82 1.74,-1.09 -0.31,1.51 -1.2,3.03 -0.8,4.63 1.24,0.38 2.44,-0.33 3.6,-0.67 -0.16,0.42 -0.47,1.25 -0.63,1.66 4.86,1.35 8.57,4.83 12.89,7.23 2.13,1.21 2.22,3.98 3.12,6.03 1.21,0.07 2.42,0.16 3.63,0.25 2.08,2.03 3.6,4.51 4.82,7.14 0.76,0 1.51,0.02 2.27,0.06 0.72,0.65 1.44,1.33 2.16,2.02 -1.61,-0.61 -3.23,-1.2 -4.83,-1.78 -1.68,-3.14 -3.82,-8.85 -8.33,-6.5 -0.61,-2.02 -0.95,-4.18 -2.14,-5.94 -1.38,-1.25 -3,-2.19 -4.54,-3.19 -0.81,0.39 -1.62,0.8 -2.42,1.23 -1.75,-4.21 -5.87,-6.11 -10.08,-7.01 -1.28,-6.41 -2.62,-13.05 -6.5,-18.48 -1.8,-2.32 -2.42,-5.24 -2.79,-8.07 z"
         id="path2809" />
      <path
         fill="#6c5c35"
         stroke="#6c5c35"
         stroke-width="0.5"
         d="m 130.566,1002.544 0.82,-1.29 c 0.53,2.73 0.77,5.66 -0.7,8.18 -2.71,5.03 -5.62,9.95 -8.27,15.02 0.78,0.62 1.56,1.28 2.34,1.94 -1.01,0.83 -2.02,1.67 -3.03,2.53 2.08,3.17 4.82,6.38 4.18,10.46 -0.43,-0.39 -1.28,-1.17 -1.7,-1.56 -0.67,-4.02 -5.33,-7.4 -2.84,-11.58 -0.24,-0.87 -0.48,-1.72 -0.72,-2.55 2.55,-5.42 7.2,-9.94 7.94,-16.08 0.31,0.18 0.95,0.55 1.27,0.74 0.19,-1.96 0.36,-3.9 0.71,-5.81 z"
         id="path2811" />
      <path
         fill="#725137"
         stroke="#725137"
         stroke-width="0.5"
         d="m 255.586,1096.504 c 5.14,-1.18 10.42,-0.54 15.64,-0.62 4.93,-0.01 9.95,-0.59 14.79,0.66 -10.09,0.9 -20.34,0.91 -30.43,-0.04 z"
         id="path2813" />
    </g>
  </g>
</svg>
