<?xml version="1.0" encoding="UTF-8" standalone="no"?>
<svg
   xmlns:dc="http://purl.org/dc/elements/1.1/"
   xmlns:cc="http://creativecommons.org/ns#"
   xmlns:rdf="http://www.w3.org/1999/02/22-rdf-syntax-ns#"
   xmlns:svg="http://www.w3.org/2000/svg"
   xmlns="http://www.w3.org/2000/svg"
   xmlns:sodipodi="http://sodipodi.sourceforge.net/DTD/sodipodi-0.dtd"
   xmlns:inkscape="http://www.inkscape.org/namespaces/inkscape"
   width="108.89879mm"
   height="108.88535mm"
   viewBox="0 0 108.89879 108.88535"
   version="1.1"
   id="svg787"
   inkscape:version="1.0.2 (e86c870879, 2021-01-15, custom)"
   sodipodi:docname="dog2.svg">
  <defs
     id="defs781" />
  <sodipodi:namedview
     id="base"
     pagecolor="#ffffff"
     bordercolor="#666666"
     borderopacity="1.0"
     inkscape:pageopacity="0.0"
     inkscape:pageshadow="2"
     inkscape:zoom="0.35"
     inkscape:cx="182.93586"
     inkscape:cy="265.76758"
     inkscape:document-units="mm"
     inkscape:current-layer="layer1"
     inkscape:document-rotation="0"
     showgrid="false"
     inkscape:window-width="1320"
     inkscape:window-height="900"
     inkscape:window-x="2082"
     inkscape:window-y="178"
     inkscape:window-maximized="0" />
  <metadata
     id="metadata784">
    <rdf:RDF>
      <cc:Work
         rdf:about="">
        <dc:format>image/svg+xml</dc:format>
        <dc:type
           rdf:resource="http://purl.org/dc/dcmitype/StillImage" />
        <dc:title></dc:title>
      </cc:Work>
    </rdf:RDF>
  </metadata>
  <g
     inkscape:label="Layer 1"
     inkscape:groupmode="layer"
     id="layer1"
     transform="translate(-57.431553,-77.848995)">
    <g
       id="g1713"
       transform="matrix(0.26458333,0,0,0.26458333,-87.542006,43.700738)">
      <path
         fill="#191919"
         stroke="#191919"
         stroke-width="0.5"
         d="m 703.636,132.334 c 11.01,-2.09 22.28,-3.81 33.51,-2.64 5.23,0.6 11.29,2.36 13.49,7.7 6.07,1.81 12.34,3.59 18.74,3.05 6.57,-0.68 12.98,1.27 19.27,2.91 8.15,2.24 16.2,4.81 24.4,6.86 5.57,1.3 10.46,4.45 15.17,7.57 10.72,7.41 20.44,16.15 29.88,25.1 2.61,2.71 5.28,5.38 7.52,8.42 4.83,7.03 13.2,11.67 21.79,11.53 5.45,1.65 10.44,4.52 15.27,7.5 9.03,5.75 17.77,12.09 25.47,19.56 8.14,8.44 10.33,20.38 15.51,30.54 2.85,6.16 6.68,11.78 10.4,17.44 2.98,4.93 6.54,10.6 4.71,16.61 -1.61,4.72 -2.76,9.63 -4.93,14.13 -0.5,0.84 -1,1.68 -1.49,2.51 0.06,2.28 0.15,4.56 0.27,6.85 -1.01,-1 -2,-1.99 -2.99,-2.98 -8.46,10.86 -18.31,20.55 -28.57,29.69 -7.75,7.9 -14.54,16.89 -23.49,23.52 -4.52,2.86 -11.44,4.26 -15.64,0.14 2.49,-1.38 5.27,-2.51 7.1,-4.79 3.33,-4.17 4.76,-9.48 5.46,-14.68 1,-7.62 2.3,-15.32 1.55,-23.03 -0.93,-8.99 -0.63,-18.04 -1.84,-27 -0.67,-9.07 2.01,-17.93 1.92,-26.98 -0.34,-9.48 -1.85,-18.95 -5.03,-27.91 -5,-11.71 -13.61,-21.97 -24.75,-28.25 -4.75,-2.87 -10.05,-4.59 -15.16,-6.67 -2.66,3 -1.86,7.17 -1.98,10.83 0.13,6.44 -0.44,12.93 0.61,19.32 1.52,7.98 2.06,16.25 5.23,23.83 1.6,4.42 4.54,8.15 7.2,11.97 3.55,4.86 2.86,11.2 2.99,16.87 -0.45,14.22 2.15,28.29 2.99,42.45 -1.95,5.62 -3.44,11.56 -7.07,16.41 -4.72,7.66 -8.73,15.77 -13.83,23.21 -3.49,4.09 -6.79,8.71 -11.8,11.06 -2.91,1.29 -5.42,4.21 -8.88,3.43 10.45,-10.07 20.06,-21.16 27.63,-33.57 3.47,-6.16 7.13,-12.77 6.96,-20.06 0.21,-8.91 -12.37,-15.22 -19.09,-9.08 -3.9,3.63 -5.77,8.84 -7.16,13.86 -1.47,5.33 1.09,11.63 -2.79,16.27 -4.52,5.68 -12.27,6.64 -19.03,7.23 -13.83,1.36 -27.38,4.6 -41.12,6.56 -2.78,0.27 -5.73,0.89 -8.4,-0.24 -0.19,-9.18 1.63,-18.69 -1.34,-27.65 -1.96,-5.94 -4.4,-12.47 -9.88,-16.04 -3.14,-2.05 -6.92,-0.86 -10.21,0.09 0.36,2.5 1.12,5.03 0.72,7.57 -0.46,2.26 -3.15,2.53 -4.85,3.48 -0.71,2.76 -2.75,4.17 -5.55,4.25 -0.53,2.34 0.07,5.41 -1.99,7.09 -3.8,1.22 -7.9,0.69 -11.8,1.41 0.9,-2.72 2.71,-5.4 2.16,-8.37 -0.86,-4.38 -2.66,-8.99 -6.6,-11.47 -3.31,-2.52 -7.52,-3.15 -11.2,-4.88 -4.28,-3.32 -7.69,-8.06 -13,-9.85 -3.11,-0.8 -7.31,-0.32 -8.9,2.86 -1.45,3.94 -1.38,8.24 -1.63,12.38 3.6,0.67 7.2,1.32 10.82,1.91 -0.01,4.44 -3.31,9.39 -7.91,9.81 -2.07,-1.59 -3.99,-3.38 -6.19,-4.79 -1.35,-2.06 -2.93,-4.02 -3.83,-6.33 -0.75,-4.02 -0.03,-8.27 1.89,-11.87 3.76,-7.12 8.03,-13.94 11.83,-21.03 -2.42,-1.56 -4.93,-3.44 -7.95,-3.38 -3.55,-0.18 -6.1,2.65 -9.04,4.13 -2.97,1.58 -6.73,0.75 -9.58,2.46 -2.51,2.99 -3.14,7.03 -4.35,10.64 -0.3,-1.64 -0.54,-3.29 -1.04,-4.87 -1.11,-2.98 -5.95,-2.72 -6.25,-6.15 -0.41,-3.64 0.72,-7.26 0.38,-10.91 -0.48,-3.04 -4.54,-1.48 -5.57,0.39 -2.97,5.57 -0.98,12.1 -0.63,18.04 -1.5,-5.68 -1.77,-11.57 -2.28,-17.4 -0.92,-12.2 -1.34,-24.71 1.86,-36.64 3.24,-12.3 10.39,-23.2 13.31,-35.58 1.51,-5.95 1,-13.36 -4.75,-16.89 -4.51,7.44 -8.66,15.17 -11.53,23.4 -1.64,4.62 -2.41,9.72 -5.47,13.69 -1.75,2.29 -4.75,2.86 -7.28,3.87 -0.5,-17.53 6.78,-33.92 8.79,-51.12 2.97,-14.72 9.48,-29.2 21.06,-39.14 13.18,-11.87 30.74,-16.87 47.78,-20.16 m -42.67,45.25 c -4.43,5.1 -8.21,11.37 -8.56,18.26 3.44,-5.38 7.9,-9.99 12.62,-14.26 4.59,-3.95 10.48,-5.84 15.37,-9.33 -6.76,-3.06 -14.84,-0.13 -19.43,5.33 m 56.43,28.44 c -3.6,1.79 -4.24,6.28 -4.59,9.86 -0.33,6.72 0.77,13.65 3.7,19.73 0.6,1.65 3.1,4.51 4.39,1.89 4.25,-7.47 8.06,-15.93 7.19,-24.74 -0.34,-4.9 -6.1,-8.72 -10.69,-6.74 m -35.08,29.79 c -2.21,3.57 -1.13,8.33 1.69,11.24 3.53,4.42 10.46,4.45 14.96,1.56 2.92,-2.51 4.19,-6.89 2.89,-10.55 -2.24,-4.22 -7.59,-5.29 -11.97,-4.82 -0.41,-0.08 -1.22,-0.24 -1.63,-0.32 -2.07,0.68 -4.84,0.68 -5.94,2.89 m 121.86,3.86 c -4.65,2.41 -7.2,7.28 -9.29,11.85 -1.97,4.73 -3.85,9.63 -4.2,14.8 7.05,0.19 12.68,-4.89 17.64,-9.27 3.52,-3.66 7.75,-8.32 6.43,-13.83 -1.76,-3.85 -6.88,-4.99 -10.58,-3.55 m -11.41,47.58 c -4.32,6.07 1.36,15.42 8.48,15.59 3.58,0.22 8.16,-0.52 9.7,-4.27 1.47,-2.3 0.93,-5.31 -1.11,-7.08 0.03,-0.4 0.09,-1.21 0.12,-1.61 l -0.74,0.13 c -1.99,-3.02 -4.8,-5.65 -8.31,-6.72 -3.26,-0.81 -6.51,1.21 -8.14,3.96 z"
         id="path1671" />
      <path
         fill="#2f2820"
         stroke="#2f2820"
         stroke-width="0.5"
         d="m 660.966,177.584 c 4.59,-5.46 12.67,-8.39 19.43,-5.33 -4.89,3.49 -10.78,5.38 -15.37,9.33 -4.72,4.27 -9.18,8.88 -12.62,14.26 0.35,-6.89 4.13,-13.16 8.56,-18.26 z"
         id="path1673" />
      <path
         fill="#6cb476"
         stroke="#6cb476"
         stroke-width="0.5"
         d="m 858.096,182.884 c 4.81,1.85 8.98,4.99 13.34,7.7 5.48,3.85 11.27,7.42 15.97,12.25 -8.59,0.14 -16.96,-4.5 -21.79,-11.53 -2.24,-3.04 -4.91,-5.71 -7.52,-8.42 z"
         id="path1675" />
      <path
         fill="#6bb576"
         stroke="#6bb576"
         stroke-width="0.5"
         d="m 630.756,193.484 c 1.19,-0.91 2.6,-1.42 4.04,-1.85 -2.01,17.2 -9.29,33.59 -8.79,51.12 2.53,-1.01 5.53,-1.58 7.28,-3.87 3.06,-3.97 3.83,-9.07 5.47,-13.69 2.87,-8.23 7.02,-15.96 11.53,-23.4 5.75,3.53 6.26,10.94 4.75,16.89 -2.92,12.38 -10.07,23.28 -13.31,35.58 -3.2,11.93 -2.78,24.44 -1.86,36.64 0.51,5.83 0.78,11.72 2.28,17.4 1.38,5.08 2.99,10.18 2.87,15.5 0.38,11.32 -8.45,20.14 -10.2,30.97 -1.34,10.24 4.15,19.97 11.37,26.81 -4.87,13.89 -11.32,27.2 -16.1,41.14 -0.82,2.01 -1.17,4.53 -3.27,5.65 -11.45,6.88 -19,18.53 -24.77,30.26 -2,4.49 -4.52,8.87 -5.23,13.8 -22.69,-25.11 -38.89,-56.26 -45.24,-89.57 -7.98,-40.23 -1.76,-83.06 17.3,-119.36 14.49,-27.94 36.14,-51.99 61.88,-70.02 z"
         id="path1677" />
      <path
         fill="#8b4f23"
         stroke="#8b4f23"
         stroke-width="0.5"
         d="m 717.396,206.024 c 4.59,-1.98 10.35,1.84 10.69,6.74 0.87,8.81 -2.94,17.27 -7.19,24.74 -1.29,2.62 -3.79,-0.24 -4.39,-1.89 -2.93,-6.08 -4.03,-13.01 -3.7,-19.73 0.35,-3.58 0.99,-8.07 4.59,-9.86 z"
         id="path1679" />
      <path
         fill="#12110f"
         stroke="#12110f"
         stroke-width="0.5"
         d="m 851.176,209.034 c 5.11,2.08 10.41,3.8 15.16,6.67 11.14,6.28 19.75,16.54 24.75,28.25 3.18,8.96 4.69,18.43 5.03,27.91 0.09,9.05 -2.59,17.91 -1.92,26.98 1.21,8.96 0.91,18.01 1.84,27 0.75,7.71 -0.55,15.41 -1.55,23.03 -0.7,5.2 -2.13,10.51 -5.46,14.68 -1.83,2.28 -4.61,3.41 -7.1,4.79 -2.77,-2.24 -5.93,-4.4 -7.23,-7.88 -3.3,-8.39 -4.81,-17.34 -6.48,-26.16 -0.84,-14.16 -3.44,-28.23 -2.99,-42.45 -0.13,-5.67 0.56,-12.01 -2.99,-16.87 -2.66,-3.82 -5.6,-7.55 -7.2,-11.97 -3.17,-7.58 -3.71,-15.85 -5.23,-23.83 -1.05,-6.39 -0.48,-12.88 -0.61,-19.32 0.12,-3.66 -0.68,-7.83 1.98,-10.83 z"
         id="path1681" />
      <path
         fill="#3d3734"
         stroke="#3d3734"
         stroke-width="0.5"
         d="m 682.316,235.814 c 1.1,-2.21 3.87,-2.21 5.94,-2.89 -1.99,2.63 -2.9,5.9 -2.09,9.15 2.03,-1.71 3.57,-3.88 4.89,-6.16 -0.29,-0.67 -0.88,-2.01 -1.17,-2.67 4.38,-0.47 9.73,0.6 11.97,4.82 1.3,3.66 0.03,8.04 -2.89,10.55 -4.5,2.89 -11.43,2.86 -14.96,-1.56 -2.82,-2.91 -3.9,-7.67 -1.69,-11.24 m 11.17,3.29 c -3.19,0.41 -4.67,5.59 -1.26,6.72 3,1.67 8.05,-3.31 4.7,-5.62 -1,-0.6 -2.22,-1.67 -3.44,-1.1 z"
         id="path1683" />
      <path
         fill="#d9d3d3"
         stroke="#d9d3d3"
         stroke-width="0.5"
         d="m 688.256,232.924 c 0.41,0.08 1.22,0.24 1.63,0.32 0.29,0.66 0.88,2 1.17,2.67 -1.32,2.28 -2.86,4.45 -4.89,6.16 -0.81,-3.25 0.1,-6.52 2.09,-9.15 z"
         id="path1685" />
      <path
         fill="#151311"
         stroke="#151311"
         stroke-width="0.5"
         d="m 693.486,239.104 c 1.22,-0.57 2.44,0.5 3.44,1.1 3.35,2.31 -1.7,7.29 -4.7,5.62 -3.41,-1.13 -1.93,-6.31 1.26,-6.72 z"
         id="path1687" />
      <path
         fill="#8a4f22"
         stroke="#8a4f22"
         stroke-width="0.5"
         d="m 804.176,239.674 c 3.7,-1.44 8.82,-0.3 10.58,3.55 1.32,5.51 -2.91,10.17 -6.43,13.83 -4.96,4.38 -10.59,9.46 -17.64,9.27 0.35,-5.17 2.23,-10.07 4.2,-14.8 2.09,-4.57 4.64,-9.44 9.29,-11.85 z"
         id="path1689" />
      <path
         fill="#3d3734"
         stroke="#3d3734"
         stroke-width="0.5"
         d="m 792.766,287.254 c 1.63,-2.75 4.88,-4.77 8.14,-3.96 3.51,1.07 6.32,3.7 8.31,6.72 -4.45,-0.31 -4.78,4.92 -4.97,8.16 2.73,-1.35 4.98,-3.61 5.59,-6.68 2.04,1.77 2.58,4.78 1.11,7.08 -1.54,3.75 -6.12,4.49 -9.7,4.27 -7.12,-0.17 -12.8,-9.52 -8.48,-15.59 m 4.63,1.93 c -3.94,1.58 -1.24,8.54 2.72,6.39 3.82,-1.68 1.36,-8.59 -2.72,-6.39 z"
         id="path1691" />
      <path
         fill="#a67648"
         stroke="#a67648"
         stroke-width="0.5"
         d="m 642.776,290.264 c 1.03,-1.87 5.09,-3.43 5.57,-0.39 0.34,3.65 -0.79,7.27 -0.38,10.91 0.3,3.43 5.14,3.17 6.25,6.15 0.5,1.58 0.74,3.23 1.04,4.87 1.21,-3.61 1.84,-7.65 4.35,-10.64 2.85,-1.71 6.61,-0.88 9.58,-2.46 2.94,-1.48 5.49,-4.31 9.04,-4.13 3.02,-0.06 5.53,1.82 7.95,3.38 -3.8,7.09 -8.07,13.91 -11.83,21.03 -1.92,3.6 -2.64,7.85 -1.89,11.87 0.9,2.31 2.48,4.27 3.83,6.33 -0.71,2.78 -2.14,5.66 -1.24,8.57 1.64,6.82 8.48,10.63 10.74,17.14 0.59,3.37 -0.36,6.79 -0.59,10.17 1.59,-3.03 3.04,-6.44 6.24,-8.12 3.64,-2.94 9.19,-0.87 12.48,-4.4 2.94,-2.32 5.19,-5.53 5.38,-9.38 0.53,-0.02 1.6,-0.07 2.13,-0.09 2.51,-0.03 4.92,-0.77 7.31,-1.49 3.9,-0.72 8,-0.19 11.8,-1.41 2.06,-1.68 1.46,-4.75 1.99,-7.09 2.8,-0.08 4.84,-1.49 5.55,-4.25 1.7,-0.95 4.39,-1.22 4.85,-3.48 0.4,-2.54 -0.36,-5.07 -0.72,-7.57 3.29,-0.95 7.07,-2.14 10.21,-0.09 5.48,3.57 7.92,10.1 9.88,16.04 2.97,8.96 1.15,18.47 1.34,27.65 2.67,1.13 5.62,0.51 8.4,0.24 13.74,-1.96 27.29,-5.2 41.12,-6.56 6.76,-0.59 14.51,-1.55 19.03,-7.23 3.88,-4.64 1.32,-10.94 2.79,-16.27 1.39,-5.02 3.26,-10.23 7.16,-13.86 6.72,-6.14 19.3,0.17 19.09,9.08 0.17,7.29 -3.49,13.9 -6.96,20.06 -7.57,12.41 -17.18,23.5 -27.63,33.57 -7.43,6.56 -18.02,6.83 -27.41,6.66 -3.8,-0.08 -8.13,-0.21 -11.02,2.71 -5.88,5.79 -10.59,12.88 -17.56,17.51 -5.82,3.82 -12.56,5.94 -19.25,7.66 -5.87,1.33 -12,2.55 -18,1.45 -4.35,-1.06 -6.91,-5.11 -9.21,-8.6 11.64,3.53 25.23,1.75 34.47,-6.55 3.41,-3.45 7.79,-5.57 11.77,-8.24 -6.23,0.86 -11.42,4.71 -17.33,6.57 -11.2,3.93 -23.92,4.89 -35.08,0.31 -3.63,-1.37 -6.78,-3.72 -9.54,-6.4 -7.32,-6.98 -14.66,-13.94 -21.85,-21.05 -1.04,-0.88 -1.99,-2.07 -3.39,-2.32 -11.45,-1.67 -23.76,-3.09 -34.53,2.19 -0.86,0.4 -1.69,0.83 -2.52,1.27 -7.22,-6.84 -12.71,-16.57 -11.37,-26.81 1.75,-10.83 10.58,-19.65 10.2,-30.97 0.12,-5.32 -1.49,-10.42 -2.87,-15.5 -0.35,-5.94 -2.34,-12.47 0.63,-18.04 z"
         id="path1693" />
      <path
         fill="#151511"
         stroke="#151511"
         stroke-width="0.5"
         d="m 797.396,289.184 c 4.08,-2.2 6.54,4.71 2.72,6.39 -3.96,2.15 -6.66,-4.81 -2.72,-6.39 z"
         id="path1695" />
      <path
         fill="#d8d1d2"
         stroke="#d8d1d2"
         stroke-width="0.5"
         d="m 804.246,298.174 c 0.19,-3.24 0.52,-8.47 4.97,-8.16 l 0.74,-0.13 c -0.03,0.4 -0.09,1.21 -0.12,1.61 -0.61,3.07 -2.86,5.33 -5.59,6.68 z"
         id="path1697" />
      <path
         fill="#6fb379"
         stroke="#6fb379"
         stroke-width="0.5"
         d="m 952.346,311.124 c 0.49,-0.83 0.99,-1.67 1.49,-2.51 3.51,14.13 4.59,28.78 4.44,43.31 -0.27,3.93 -0.08,7.95 -1.13,11.8 -1.19,-2.13 -2.77,-4.22 -2.76,-6.77 -0.67,-12.99 -1.17,-25.99 -1.77,-38.98 -0.12,-2.29 -0.21,-4.57 -0.27,-6.85 z"
         id="path1699" />
      <path
         fill="#292728"
         stroke="#292728"
         stroke-width="0.5"
         d="m 681.196,317.874 c 1.59,-3.18 5.79,-3.66 8.9,-2.86 5.31,1.79 8.72,6.53 13,9.85 3.68,1.73 7.89,2.36 11.2,4.88 3.94,2.48 5.74,7.09 6.6,11.47 0.55,2.97 -1.26,5.65 -2.16,8.37 -2.39,0.72 -4.8,1.46 -7.31,1.49 -1.37,-4.03 -2.89,-8.04 -5.17,-11.65 -2.77,3.47 -3.36,7.9 -3.79,12.18 2.27,-0.2 4.54,-0.37 6.83,-0.44 -0.19,3.85 -2.44,7.06 -5.38,9.38 -3.29,3.53 -8.84,1.46 -12.48,4.4 -3.2,1.68 -4.65,5.09 -6.24,8.12 0.23,-3.38 1.18,-6.8 0.59,-10.17 -2.26,-6.51 -9.1,-10.32 -10.74,-17.14 -0.9,-2.91 0.53,-5.79 1.24,-8.57 2.2,1.41 4.12,3.2 6.19,4.79 4.6,-0.42 7.9,-5.37 7.91,-9.81 -3.62,-0.59 -7.22,-1.24 -10.82,-1.91 0.25,-4.14 0.18,-8.44 1.63,-12.38 m 10.55,34.55 c -1.2,2.89 -2.3,5.85 -2.59,8.99 2.61,-3.37 3.6,-7.6 5.3,-11.44 1.07,-2.43 1.77,-5.01 2,-7.66 -2.3,2.99 -3.28,6.69 -4.71,10.11 z"
         id="path1701" />
      <path
         fill="#1f1f1f"
         stroke="#1f1f1f"
         stroke-width="0.5"
         d="m 949.626,314.994 c 0.99,0.99 1.98,1.98 2.99,2.98 0.6,12.99 1.1,25.99 1.77,38.98 -0.01,2.55 1.57,4.64 2.76,6.77 0.7,1.65 -0.06,3.49 -0.09,5.22 -3.72,32.4 -16.43,63.63 -36.06,89.65 -18.32,24.45 -42.44,44.46 -69.64,58.33 -37.35,19.24 -80.45,26.72 -122.14,22.1 -50.22,-5.28 -98.48,-29.05 -132.4,-66.59 0.71,-4.93 3.23,-9.31 5.23,-13.8 5.77,-11.73 13.32,-23.38 24.77,-30.26 2.1,-1.12 2.45,-3.64 3.27,-5.65 4.78,-13.94 11.23,-27.25 16.1,-41.14 14.58,14.15 32.7,24.46 52.11,30.33 5.02,1.52 10.31,0.54 15.38,-0.12 3.45,1.48 6.95,2.82 10.51,4.01 2.3,3.49 4.86,7.54 9.21,8.6 6,1.1 12.13,-0.12 18,-1.45 6.69,-1.72 13.43,-3.84 19.25,-7.66 6.97,-4.63 11.68,-11.72 17.56,-17.51 2.89,-2.92 7.22,-2.79 11.02,-2.71 9.39,0.17 19.98,-0.1 27.41,-6.66 3.46,0.78 5.97,-2.14 8.88,-3.43 5.01,-2.35 8.31,-6.97 11.8,-11.06 5.1,-7.44 9.11,-15.55 13.83,-23.21 3.63,-4.85 5.12,-10.79 7.07,-16.41 1.67,8.82 3.18,17.77 6.48,26.16 1.3,3.48 4.46,5.64 7.23,7.88 4.2,4.12 11.12,2.72 15.64,-0.14 8.95,-6.63 15.74,-15.62 23.49,-23.52 10.26,-9.14 20.11,-18.83 28.57,-29.69 z"
         id="path1703" />
      <path
         fill="#191919"
         stroke="#191919"
         stroke-width="0.5"
         d="m 702.466,351.604 c 0.43,-4.28 1.02,-8.71 3.79,-12.18 2.28,3.61 3.8,7.62 5.17,11.65 -0.53,0.02 -1.6,0.07 -2.13,0.09 -2.29,0.07 -4.56,0.24 -6.83,0.44 z"
         id="path1705" />
      <path
         fill="#0a090a"
         stroke="#0a090a"
         stroke-width="0.5"
         d="m 691.746,352.424 c 1.43,-3.42 2.41,-7.12 4.71,-10.11 -0.23,2.65 -0.93,5.23 -2,7.66 -1.7,3.84 -2.69,8.07 -5.3,11.44 0.29,-3.14 1.39,-6.1 2.59,-8.99 z"
         id="path1707" />
      <path
         fill="#402518"
         stroke="#402518"
         stroke-width="0.5"
         d="m 648.706,380.314 c 10.77,-5.28 23.08,-3.86 34.53,-2.19 1.4,0.25 2.35,1.44 3.39,2.32 7.19,7.11 14.53,14.07 21.85,21.05 2.76,2.68 5.91,5.03 9.54,6.4 11.16,4.58 23.88,3.62 35.08,-0.31 5.91,-1.86 11.1,-5.71 17.33,-6.57 -3.98,2.67 -8.36,4.79 -11.77,8.24 -9.24,8.3 -22.83,10.08 -34.47,6.55 -3.56,-1.19 -7.06,-2.53 -10.51,-4.01 -7.59,-3.37 -13.68,-9.21 -18.75,-15.66 -6.76,-7.76 -14.58,-16.75 -25.72,-17.02 -6.94,-1.04 -13.65,2.82 -20.5,1.2 z"
         id="path1709" />
      <path
         fill="#745332"
         stroke="#745332"
         stroke-width="0.5"
         d="m 648.706,380.314 c 6.85,1.62 13.56,-2.24 20.5,-1.2 11.14,0.27 18.96,9.26 25.72,17.02 5.07,6.45 11.16,12.29 18.75,15.66 -5.07,0.66 -10.36,1.64 -15.38,0.12 -19.41,-5.87 -37.53,-16.18 -52.11,-30.33 0.83,-0.44 1.66,-0.87 2.52,-1.27 z"
         id="path1711" />
    </g>
  </g>
</svg>
