<?xml version="1.0" encoding="UTF-8" standalone="no"?>
<svg
   xmlns:dc="http://purl.org/dc/elements/1.1/"
   xmlns:cc="http://creativecommons.org/ns#"
   xmlns:rdf="http://www.w3.org/1999/02/22-rdf-syntax-ns#"
   xmlns:svg="http://www.w3.org/2000/svg"
   xmlns="http://www.w3.org/2000/svg"
   xmlns:sodipodi="http://sodipodi.sourceforge.net/DTD/sodipodi-0.dtd"
   xmlns:inkscape="http://www.inkscape.org/namespaces/inkscape"
   width="108.8931mm"
   height="108.82993mm"
   viewBox="0 0 108.89309 108.82992"
   version="1.1"
   id="svg787"
   inkscape:version="1.0.2 (e86c870879, 2021-01-15, custom)"
   sodipodi:docname="dog4.svg">
  <defs
     id="defs781" />
  <sodipodi:namedview
     id="base"
     pagecolor="#ffffff"
     bordercolor="#666666"
     borderopacity="1.0"
     inkscape:pageopacity="0.0"
     inkscape:pageshadow="2"
     inkscape:zoom="0.35"
     inkscape:cx="300.22089"
     inkscape:cy="305.7727"
     inkscape:document-units="mm"
     inkscape:current-layer="layer1"
     inkscape:document-rotation="0"
     showgrid="false"
     inkscape:window-width="1320"
     inkscape:window-height="900"
     inkscape:window-x="2082"
     inkscape:window-y="178"
     inkscape:window-maximized="0" />
  <metadata
     id="metadata784">
    <rdf:RDF>
      <cc:Work
         rdf:about="">
        <dc:format>image/svg+xml</dc:format>
        <dc:type
           rdf:resource="http://purl.org/dc/dcmitype/StillImage" />
        <dc:title></dc:title>
      </cc:Work>
    </rdf:RDF>
  </metadata>
  <g
     inkscape:label="Layer 1"
     inkscape:groupmode="layer"
     id="layer1"
     transform="translate(-26.399889,-67.264306)">
    <g
       id="g2447"
       transform="matrix(0.26458333,0,0,0.26458333,-512.15414,-113.37617)">
      <path
         fill="#c37d3f"
         stroke="#c37d3f"
         stroke-width="0.5"
         d="m 2214.816,682.964 c 3.97,1.77 7.85,4.78 12.4,4.52 2.14,-0.11 1.36,-2.99 2.07,-4.31 2.56,2.48 5.08,5.9 9.01,5.94 3.66,-0.58 6.57,-3.07 9.51,-5.14 1.18,3.52 5.12,5.6 8.6,3.89 5.22,1.01 10.25,3.47 15.72,2.79 0.11,-1.4 0.24,-2.79 0.39,-4.18 3.11,2.98 5.85,7.63 10.46,8.1 2.2,-1.47 2.5,-4.35 2.9,-6.75 0.93,3.08 1.25,7.2 4.67,8.59 3.99,-0.9 7.21,-3.62 10.61,-5.76 0.35,1.61 -0.01,3.97 2.18,4.35 7.67,2.85 16.49,-0.14 23.94,3.67 6.82,3.57 13.44,7.78 18.97,13.18 5.05,5.42 6.01,15.26 14.41,16.94 -0.04,3.63 0.06,7.44 1.92,10.68 2.05,3.96 5.77,6.61 9.26,9.21 -0.74,7.32 3.53,13.59 7,19.62 2.63,4.25 1.63,9.48 3.11,14.1 1.73,4.8 -0.96,9.55 -1.44,14.33 1.09,0.42 2.2,0.84 3.35,1.28 -0.01,1.61 0.01,3.23 0.09,4.87 -0.5,-0.93 -0.96,-1.84 -1.37,-2.76 -4.7,5.04 -10.33,9.06 -15.25,13.85 -3.91,3.78 -8.29,7.02 -12.47,10.47 -4.83,3.84 -8.88,8.57 -13.95,12.12 -16.55,13.71 -33.13,27.41 -50.45,40.14 -3.48,-3.91 -7.36,-7.41 -11.33,-10.77 0.57,-0.04 1.71,-0.11 2.28,-0.15 12.2,1.04 23.15,-6.12 31.04,-14.78 5.02,-5.6 10.12,-11.46 12.46,-18.75 2.54,-3.37 4.62,-7.06 5.76,-11.14 7.15,-7.38 7.52,-18.83 4.15,-28.04 -1.73,0.18 -2.02,2.3 -2.91,3.46 -2.33,4.66 -7.2,8.58 -12.61,8.25 -4.49,-0.19 -9.06,-0.74 -13.44,0.53 -9.44,2.71 -19.22,3.88 -28.69,6.42 -10.08,2.71 -18.08,10.31 -28.26,12.72 -15.71,2.87 -30.86,-5.53 -46.59,-3.33 -7.45,0.57 -14.07,6.46 -21.73,4.33 -6,-1.66 -11.65,-4.31 -17.36,-6.72 -4.78,-2.02 -9.14,-4.99 -14.08,-6.58 -1.67,-0.06 -2.11,1.8 -2.61,3.02 -1.35,4.5 -0.1,9.63 3.02,13.13 0.76,3.78 0.99,7.86 3.2,11.17 4.04,6.48 11.91,9.7 19.34,9.72 3.91,1.77 6.28,5.53 9.46,8.26 6.62,5.9 13.71,11.57 22.02,14.89 3.94,1.65 8.27,1.46 12.47,1.57 -2.04,4.02 -2.23,8.57 -0.89,12.85 -6.95,-3.84 -14.35,-6.77 -21.36,-10.5 -27.29,-14.02 -54.43,-28.3 -81.82,-42.13 -5.65,-2.5 -10.71,-6.11 -16.35,-8.62 -4.76,-2.12 -8.97,-5.26 -13.79,-7.24 -2.48,-1 -4.66,-2.55 -6.64,-4.29 0.93,-4.82 4.35,-8.52 5.84,-13.11 1.63,-4.62 5.74,-7.76 7.81,-12.17 2.62,-4.49 1.74,-9.83 1.82,-14.77 2.31,-1.44 4.92,-2.74 6.39,-5.15 2.13,-3.69 2.87,-7.96 4.04,-12 2.37,-9.12 9.67,-15.6 15.71,-22.39 8.3,-9.25 19.14,-15.54 28.55,-23.5 6.92,-3.32 15.91,-4.34 20.06,-11.69 4.72,1.06 9.35,-1.11 12.44,-4.66 1.76,-2.68 5.63,-1.04 7.48,-3.6 4.82,-5.25 12.21,-6.12 18.92,-6.71 3.39,0.06 6.68,1.51 10.13,0.98 0.11,-0.56 0.32,-1.69 0.43,-2.25 m 100.62,18.24 c -6.1,1.64 -11.23,6 -14.59,11.24 -1.04,1.33 0.32,2.59 1.05,3.7 6.5,8.1 13.17,16.48 22.31,21.76 5.25,3.08 11.67,5.28 17.75,3.55 2.88,-0.78 5.15,-3.56 4.98,-6.6 -0.11,-5.51 -2.78,-10.56 -5.55,-15.18 -3.22,-5.01 -6.8,-9.83 -11.01,-14.05 -3.82,-3.87 -9.65,-5.63 -14.94,-4.42 m -178.82,35.1 c -4.27,0.36 -8.4,2.43 -10.98,5.88 -3.84,5.03 -5.82,11.13 -8,17 -1.82,5.54 -3.35,11.56 -2.08,17.39 0.62,3.43 4.18,5.9 7.62,5.42 6.31,-0.15 11.57,-4.19 15.76,-8.55 6.55,-7.56 11.12,-16.55 15.1,-25.65 0.36,-1.48 1.74,-3.66 0.18,-4.85 -4.95,-3.93 -11.11,-7.19 -17.6,-6.64 z"
         id="path2393" />
      <path
         fill="#dc9e55"
         stroke="#dc9e55"
         stroke-width="0.5"
         d="m 2315.436,701.204 c 5.29,-1.21 11.12,0.55 14.94,4.42 4.21,4.22 7.79,9.04 11.01,14.05 2.77,4.62 5.44,9.67 5.55,15.18 0.17,3.04 -2.1,5.82 -4.98,6.6 -6.08,1.73 -12.5,-0.47 -17.75,-3.55 -9.14,-5.28 -15.81,-13.66 -22.31,-21.76 -0.73,-1.11 -2.09,-2.37 -1.05,-3.7 3.36,-5.24 8.49,-9.6 14.59,-11.24 m -4.64,14.6 c 2.13,5.58 7,9.33 11.35,13.15 4.82,3.3 10.81,5.95 16.75,4.43 0.37,-5.63 -4.56,-9.5 -7.38,-13.82 -3.59,-3.9 -5.6,-10.18 -11.31,-11.4 -4.58,-0.21 -7.61,3.96 -9.41,7.64 z"
         id="path2395" />
      <path
         fill="#dbb690"
         stroke="#dbb690"
         stroke-width="0.5"
         d="m 2310.796,715.804 c 1.8,-3.68 4.83,-7.85 9.41,-7.64 5.71,1.22 7.72,7.5 11.31,11.4 2.82,4.32 7.75,8.19 7.38,13.82 -5.94,1.52 -11.93,-1.13 -16.75,-4.43 -4.35,-3.82 -9.22,-7.57 -11.35,-13.15 z"
         id="path2397" />
      <path
         fill="#d8984c"
         stroke="#d8984c"
         stroke-width="0.5"
         d="m 2136.616,736.304 c 6.49,-0.55 12.65,2.71 17.6,6.64 1.56,1.19 0.18,3.37 -0.18,4.85 -3.98,9.1 -8.55,18.09 -15.1,25.65 -4.19,4.36 -9.45,8.4 -15.76,8.55 -3.44,0.48 -7,-1.99 -7.62,-5.42 -1.27,-5.83 0.26,-11.85 2.08,-17.39 2.18,-5.87 4.16,-11.97 8,-17 2.58,-3.45 6.71,-5.52 10.98,-5.88 m -2.07,7.95 c -2.51,0.59 -3.68,3.1 -4.55,5.26 -1.81,4.53 -3.69,9.03 -5.41,13.59 -1,2.82 -2.23,5.77 -1.74,8.83 2.37,2.81 5.95,0.28 8.37,-1.14 7.06,-4.91 12.49,-12.54 14.25,-21.01 -1.66,-3.94 -6.69,-6.73 -10.92,-5.53 z"
         id="path2399" />
      <path
         fill="#dcb690"
         stroke="#dcb690"
         stroke-width="0.5"
         d="m 2134.546,744.254 c 4.23,-1.2 9.26,1.59 10.92,5.53 -1.76,8.47 -7.19,16.1 -14.25,21.01 -2.42,1.42 -6,3.95 -8.37,1.14 -0.49,-3.06 0.74,-6.01 1.74,-8.83 1.72,-4.56 3.6,-9.06 5.41,-13.59 0.87,-2.16 2.04,-4.67 4.55,-5.26 z"
         id="path2401" />
      <path
         fill="#6bb576"
         stroke="#6bb576"
         stroke-width="0.5"
         d="m 2371.836,748.684 c 22.52,17.48 41.35,39.82 54.32,65.23 11.21,21.67 18.05,45.59 20.02,69.91 2.74,33.37 -3.66,67.47 -18.55,97.48 -2.01,0.41 -4.04,0.83 -6.01,1.25 -0.43,-5.17 4.41,-8.49 6.54,-12.74 -2.88,1.1 -5.65,4.19 -8.88,3.21 0.23,-5.02 3.44,-9.18 5.06,-13.79 -1.88,1 -3.77,1.99 -5.65,2.94 0.76,-5.39 4.09,-9.88 5.51,-15.07 -2.66,1.96 -5.22,5.11 -8.88,4.5 -1.31,0.04 -1.97,-1.35 -2.4,-2.31 -1.01,-2.92 -1.19,-6.02 -1.58,-9.05 -1.57,0.59 -3.15,1.17 -4.67,1.77 0.39,-3.31 1.2,-6.54 2.42,-9.64 -3.56,-0.86 -7.79,-1.12 -10.1,-4.34 -2.62,-3.37 -5.11,-7.05 -6.26,-11.19 0.79,-2.67 2.2,-5.08 3.46,-7.55 -5.63,-0.17 -12.02,1.28 -16.74,-2.61 0.17,-1.24 0.36,-2.47 0.58,-3.69 1.1,-0.64 2.23,-1.27 3.39,-1.88 1.31,-4.06 3.5,-7.72 5.69,-11.36 2.36,-3.51 1.43,-7.89 2.13,-11.83 1.03,-4.42 -0.9,-8.72 -0.63,-13.15 0.18,-3.47 -2.2,-6.51 -1.98,-9.94 0.75,-1.84 2.09,-3.36 3.28,-4.94 -1.76,-3.91 -1.6,-8.19 -0.17,-12.16 1.98,-5.86 -0.22,-11.92 -0.05,-17.89 0.15,-6.57 -4.11,-11.92 -7.74,-16.96 -0.08,-1.64 -0.1,-3.26 -0.09,-4.87 -1.15,-0.44 -2.26,-0.86 -3.35,-1.28 0.48,-4.78 3.17,-9.53 1.44,-14.33 -1.48,-4.62 -0.48,-9.85 -3.11,-14.1 -3.47,-6.03 -7.74,-12.3 -7,-19.62 z"
         id="path2403" />
      <path
         fill="#6bb576"
         stroke="#6bb576"
         stroke-width="0.5"
         d="m 2035.766,895.784 c 0.58,-52.86 25.38,-104.6 65.33,-139 -1.17,4.04 -1.91,8.31 -4.04,12 -1.47,2.41 -4.08,3.71 -6.39,5.15 -0.08,4.94 0.8,10.28 -1.82,14.77 -2.07,4.41 -6.18,7.55 -7.81,12.17 -1.49,4.59 -4.91,8.29 -5.84,13.11 -4.45,1.25 -9.37,3.36 -11.09,8.03 -1.74,4.78 -1.99,9.93 -3.19,14.86 -1.39,5.22 1.91,9.97 2.75,14.98 0.58,2.21 -1.1,4.07 -1.89,5.99 1.37,1.36 3.31,2.38 4.15,4.2 -0.24,3.59 -2.57,6.64 -4.04,9.83 0.9,0.7 1.81,1.41 2.76,2.13 -1.05,2.25 -2.22,4.47 -2.86,6.89 0.24,4.27 0.8,8.53 1.11,12.81 3.12,5.42 9.46,8.91 10.33,15.6 2.47,0.88 5,1.54 7.59,2.13 0.4,1.24 0.83,2.49 1.28,3.76 2.04,0.08 4.08,0.16 6.15,0.27 0.59,1.08 1.22,2.19 1.87,3.29 2.21,-0.12 4.46,0.01 6.63,0.6 0.01,0.77 0.01,2.32 0.01,3.09 1.86,-0.07 3.73,-0.18 5.64,-0.02 1.27,1.3 2.18,2.92 3.1,4.51 2.05,3.4 -0.03,7.23 -2.07,10.08 -4.18,5.47 -10.48,8.74 -16.67,11.42 -4.75,2.07 -9.31,4.54 -13.91,6.9 1.51,3.16 3.65,6.93 1.46,10.33 -1.45,4.3 -7.47,5.28 -7.67,10.15 -1.14,5.98 -2.12,12.17 -5.28,17.5 -17.35,-29.3 -26.27,-63.49 -25.59,-97.53 z"
         id="path2405" />
      <path
         fill="#a56631"
         stroke="#a56631"
         stroke-width="0.5"
         d="m 2331.906,796.534 c 0.89,-1.16 1.18,-3.28 2.91,-3.46 3.37,9.21 3,20.66 -4.15,28.04 0.25,-2.46 0.35,-4.93 0.52,-7.39 -4.71,5.18 -9.08,11.67 -16.11,13.75 -16.28,1.16 -32.99,-0.15 -48.87,4.37 -8.41,2.05 -16.1,6.95 -24.93,7.18 -6.81,0.32 -13.21,-3.77 -20.04,-2.16 -8.45,1.62 -17.89,-0.56 -25.44,4.47 -6.21,4.38 -14.37,4.48 -21.41,2.41 -6.17,-1.85 -11.23,-6 -16.41,-9.62 -2.84,-1.91 -4.92,-5.12 -8.42,-5.82 -3.12,-3.5 -4.37,-8.63 -3.02,-13.13 0.5,-1.22 0.94,-3.08 2.61,-3.02 4.94,1.59 9.3,4.56 14.08,6.58 5.71,2.41 11.36,5.06 17.36,6.72 7.66,2.13 14.28,-3.76 21.73,-4.33 15.73,-2.2 30.88,6.2 46.59,3.33 10.18,-2.41 18.18,-10.01 28.26,-12.72 9.47,-2.54 19.25,-3.71 28.69,-6.42 4.38,-1.27 8.95,-0.72 13.44,-0.53 5.41,0.33 10.28,-3.59 12.61,-8.25 z"
         id="path2407" />
      <path
         fill="#c48748"
         stroke="#c48748"
         stroke-width="0.5"
         d="m 2367.326,813.974 c 4.92,-4.79 10.55,-8.81 15.25,-13.85 0.41,0.92 0.87,1.83 1.37,2.76 3.63,5.04 7.89,10.39 7.74,16.96 -0.17,5.97 2.03,12.03 0.05,17.89 -1.43,3.97 -1.59,8.25 0.17,12.16 -1.19,1.58 -2.53,3.1 -3.28,4.94 -0.22,3.43 2.16,6.47 1.98,9.94 -0.27,4.43 1.66,8.73 0.63,13.15 -0.7,3.94 0.23,8.32 -2.13,11.83 -2.19,3.64 -4.38,7.3 -5.69,11.36 -1.16,0.61 -2.29,1.24 -3.39,1.88 -0.22,1.22 -0.41,2.45 -0.58,3.69 -5.14,0.65 -7.86,5.55 -11.61,8.52 -2.08,0.21 -4.05,0.83 -5.84,1.85 -3.15,-0.27 -5.33,1.79 -6.99,4.18 -0.61,-0.33 -1.17,-0.64 -1.7,-0.93 -1.44,1.37 -2.86,2.75 -4.27,4.12 -5.18,-0.91 -9.53,2.19 -14.16,3.75 -8.31,0.45 -16.56,-1.29 -24.84,-1.72 -0.03,0.79 -0.1,2.37 -0.13,3.16 -0.95,-1.66 -1.9,-3.31 -2.81,-4.95 -1.44,0.81 -2.86,1.63 -4.26,2.46 -1.62,-2.49 -3.97,-4.27 -6.9,-4.83 -0.19,-0.65 -0.34,-1.28 -0.46,-1.91 -1.19,-0.26 -2.35,-0.5 -3.48,-0.73 -0.38,-0.46 -1.15,-1.38 -1.53,-1.84 -4.03,-0.41 -5.67,-4.19 -7.83,-7.04 -1.01,-1.27 -2.02,-2.52 -3,-3.76 l 0.81,-1.02 c 2.16,-4.75 -0.79,-9.79 -2.48,-14.22 1.73,-6.57 7.32,-11.11 12.49,-15.07 17.32,-12.73 33.9,-26.43 50.45,-40.14 5.07,-3.55 9.12,-8.28 13.95,-12.12 4.18,-3.45 8.56,-6.69 12.47,-10.47 z"
         id="path2409" />
      <path
         fill="#c48748"
         stroke="#c48748"
         stroke-width="0.5"
         d="m 2064.106,822.014 c 1.72,-4.67 6.64,-6.78 11.09,-8.03 1.98,1.74 4.16,3.29 6.64,4.29 4.82,1.98 9.03,5.12 13.79,7.24 5.64,2.51 10.7,6.12 16.35,8.62 27.39,13.83 54.53,28.11 81.82,42.13 7.01,3.73 14.41,6.66 21.36,10.5 6.8,3.42 12.71,8.57 16.48,15.24 -0.21,2.04 -0.26,4.09 -0.26,6.16 0,0.43 0,1.29 -0.01,1.72 -1.03,1.91 -2.3,3.68 -3.76,5.27 -3.14,2.14 -6.44,4.13 -8.88,7.09 -3.32,4.18 -9.16,3.97 -13.7,5.95 -0.22,0.56 -0.68,1.7 -0.91,2.26 -4.1,0.75 -8.31,0.61 -12.34,1.72 0.13,0.77 0.28,1.56 0.46,2.36 -1.59,-0.52 -3.11,-1.58 -4.78,-1.45 -1.48,0.69 -2.78,1.67 -4.09,2.58 -0.21,-0.68 -0.63,-2.05 -0.83,-2.73 -1.76,1.18 -3.49,2.36 -5.21,3.56 -0.74,-0.59 -1.46,-1.16 -2.14,-1.72 -2.78,1.05 -5.56,2.06 -8.34,3.05 0.09,-0.59 0.26,-1.76 0.34,-2.35 -5.51,0.78 -11.07,0.66 -16.6,0.86 -8.76,1.12 -16.6,-5.8 -25.45,-3.31 -2.07,-1.4 -4.07,-2.88 -6.03,-4.38 -1.3,0.21 -2.54,0.46 -3.78,0.7 -1.79,-1.43 -3.48,-3.01 -5.49,-4.07 -1.7,-0.84 -3.08,0.88 -4.34,1.66 -0.92,-1.59 -1.83,-3.21 -3.1,-4.51 -1.91,-0.16 -3.78,-0.05 -5.64,0.02 0,-0.77 0,-2.32 -0.01,-3.09 -2.17,-0.59 -4.42,-0.72 -6.63,-0.6 -0.65,-1.1 -1.28,-2.21 -1.87,-3.29 -2.07,-0.11 -4.11,-0.19 -6.15,-0.27 -0.45,-1.27 -0.88,-2.52 -1.28,-3.76 -2.59,-0.59 -5.12,-1.25 -7.59,-2.13 -0.87,-6.69 -7.21,-10.18 -10.33,-15.6 -0.31,-4.28 -0.87,-8.54 -1.11,-12.81 0.64,-2.42 1.81,-4.64 2.86,-6.89 -0.95,-0.72 -1.86,-1.43 -2.76,-2.13 1.47,-3.19 3.8,-6.24 4.04,-9.83 -0.84,-1.82 -2.78,-2.84 -4.15,-4.2 0.79,-1.92 2.47,-3.78 1.89,-5.99 -0.84,-5.01 -4.14,-9.76 -2.75,-14.98 1.2,-4.93 1.45,-10.08 3.19,-14.86 z"
         id="path2411" />
      <path
         fill="#855535"
         stroke="#855535"
         stroke-width="0.5"
         d="m 2315.076,827.474 c 7.03,-2.08 11.4,-8.57 16.11,-13.75 -0.17,2.46 -0.27,4.93 -0.52,7.39 -1.14,4.08 -3.22,7.77 -5.76,11.14 -2.92,1.54 -5.63,3.7 -8.95,4.28 -5.52,0.88 -11.19,0.14 -16.42,-1.73 1.03,1.7 1.94,3.52 2.45,5.49 -2.73,-2.65 -5.4,-5.71 -9.12,-6.89 -4.35,-0.81 -8.74,0.41 -12.71,2.1 -0.95,-0.15 -1.87,-0.3 -2.75,-0.44 -5.31,2.86 -11.24,4.01 -17.09,5.12 0.18,0.74 0.39,1.49 0.64,2.24 -4.57,1.82 -8.86,4.71 -13.87,5.09 -7.96,0.83 -15.36,-2.78 -23.03,-4.1 -3.19,0.1 -6.57,-1.62 -9.58,-0.32 -0.62,1.99 1.52,3.4 2.43,4.95 -0.02,0.55 -0.05,1.65 -0.06,2.2 -2.17,-2.06 -3.69,-5.34 -6.75,-6.08 -4.83,0.7 -9.62,2.46 -13.61,5.31 -4.78,-0.68 -9.52,0.54 -14.28,0.61 -3.41,0.1 -6.74,-0.79 -10.11,-0.89 -7.43,-0.02 -15.3,-3.24 -19.34,-9.72 -2.21,-3.31 -2.44,-7.39 -3.2,-11.17 3.5,0.7 5.58,3.91 8.42,5.82 5.18,3.62 10.24,7.77 16.41,9.62 7.04,2.07 15.2,1.97 21.41,-2.41 7.55,-5.03 16.99,-2.85 25.44,-4.47 6.83,-1.61 13.23,2.48 20.04,2.16 8.83,-0.23 16.52,-5.13 24.93,-7.18 15.88,-4.52 32.59,-3.21 48.87,-4.37 z"
         id="path2413" />
      <path
         fill="#894d2b"
         stroke="#894d2b"
         stroke-width="0.5"
         d="m 2315.956,836.534 c 3.32,-0.58 6.03,-2.74 8.95,-4.28 -2.34,7.29 -7.44,13.15 -12.46,18.75 -7.89,8.66 -18.84,15.82 -31.04,14.78 -6.08,-1.53 -12.9,-5 -14.53,-11.57 -1.18,-4.32 -3.88,-7.9 -5.92,-11.79 -0.25,-0.75 -0.46,-1.5 -0.64,-2.24 5.85,-1.11 11.78,-2.26 17.09,-5.12 0.88,0.14 1.8,0.29 2.75,0.44 -1.01,3.24 -2.78,7.03 -0.76,10.25 3.09,4.56 8.76,6.38 13.92,7.44 3.03,0.42 7.1,0.8 9.14,-2.05 2.11,-3.4 0.5,-7.38 -0.47,-10.85 -0.51,-1.97 -1.42,-3.79 -2.45,-5.49 5.23,1.87 10.9,2.61 16.42,1.73 z"
         id="path2415" />
      <path
         fill="#1d1511"
         stroke="#1d1511"
         stroke-width="0.5"
         d="m 2280.156,835.504 c 3.97,-1.69 8.36,-2.91 12.71,-2.1 3.72,1.18 6.39,4.24 9.12,6.89 0.97,3.47 2.58,7.45 0.47,10.85 -2.04,2.85 -6.11,2.47 -9.14,2.05 -5.16,-1.06 -10.83,-2.88 -13.92,-7.44 -2.02,-3.22 -0.25,-7.01 0.76,-10.25 m 5.21,1.77 c 0.1,1.92 -0.43,4.18 0.81,5.85 2.16,-0.81 4.2,-1.93 6.25,-3.05 -1.7,-2.31 -4.31,-3.22 -7.06,-2.8 z"
         id="path2417" />
      <path
         fill="#d1d9e2"
         stroke="#d1d9e2"
         stroke-width="0.5"
         d="m 2285.366,837.274 c 2.75,-0.42 5.36,0.49 7.06,2.8 -2.05,1.12 -4.09,2.24 -6.25,3.05 -1.24,-1.67 -0.71,-3.93 -0.81,-5.85 z"
         id="path2419" />
      <path
         fill="#8a4d2b"
         stroke="#8a4d2b"
         stroke-width="0.5"
         d="m 2214.476,843.094 c 3.01,-1.3 6.39,0.42 9.58,0.32 -7.12,8.66 -2.39,21.2 -8.01,30.5 -4.2,-0.11 -8.53,0.08 -12.47,-1.57 -8.31,-3.32 -15.4,-8.99 -22.02,-14.89 -3.18,-2.73 -5.55,-6.49 -9.46,-8.26 3.37,0.1 6.7,0.99 10.11,0.89 4.76,-0.07 9.5,-1.29 14.28,-0.61 -2.23,3.38 -4.43,7.22 -3.9,11.44 0.11,2.57 2.06,5.09 4.7,5.44 4.08,0.61 8.06,-1.05 11.64,-2.84 3.2,-1.59 6.3,-3.93 7.6,-7.4 0.42,-1.93 0.21,-3.92 0.32,-5.87 0.01,-0.55 0.04,-1.65 0.06,-2.2 -0.91,-1.55 -3.05,-2.96 -2.43,-4.95 z"
         id="path2421" />
      <path
         fill="#b7692b"
         stroke="#b7692b"
         stroke-width="0.5"
         d="m 2247.086,847.514 c 5.01,-0.38 9.3,-3.27 13.87,-5.09 2.04,3.89 4.74,7.47 5.92,11.79 1.63,6.57 8.45,10.04 14.53,11.57 -0.57,0.04 -1.71,0.11 -2.28,0.15 3.97,3.36 7.85,6.86 11.33,10.77 -5.17,3.96 -10.76,8.5 -12.49,15.07 -2.87,-6.39 -6.3,-12.55 -10.42,-18.21 -1.64,-1.96 -3.43,-4.29 -6.18,-4.48 -5.55,-0.61 -11.12,0.4 -16.61,1.01 -3.36,0.3 -6.75,2.48 -6.47,6.23 -3.96,8.01 -4.67,17.08 -6.65,25.68 -3.77,-6.67 -9.68,-11.82 -16.48,-15.24 -1.34,-4.28 -1.15,-8.83 0.89,-12.85 5.62,-9.3 0.89,-21.84 8.01,-30.5 7.67,1.32 15.07,4.93 23.03,4.1 z"
         id="path2423" />
      <path
         fill="#1d1510"
         stroke="#1d1510"
         stroke-width="0.5"
         d="m 2196.486,849.474 c 3.99,-2.85 8.78,-4.61 13.61,-5.31 3.06,0.74 4.58,4.02 6.75,6.08 -0.11,1.95 0.1,3.94 -0.32,5.87 -1.3,3.47 -4.4,5.81 -7.6,7.4 -3.58,1.79 -7.56,3.45 -11.64,2.84 -2.64,-0.35 -4.59,-2.87 -4.7,-5.44 -0.53,-4.22 1.67,-8.06 3.9,-11.44 m 6.87,3.7 c 2.09,0.46 4.18,1.06 6.23,1.8 0.33,-2.04 0.27,-4.1 -0.15,-6.11 -2.7,0.05 -6,1.08 -6.08,4.31 z"
         id="path2425" />
      <path
         fill="#d2dae2"
         stroke="#d2dae2"
         stroke-width="0.5"
         d="m 2203.356,853.174 c 0.08,-3.23 3.38,-4.26 6.08,-4.31 0.42,2.01 0.48,4.07 0.15,6.11 -2.05,-0.74 -4.14,-1.34 -6.23,-1.8 z"
         id="path2427" />
      <path
         fill="#161011"
         stroke="#161011"
         stroke-width="0.5"
         d="m 2244.756,870.094 c 5.49,-0.61 11.06,-1.62 16.61,-1.01 2.75,0.19 4.54,2.52 6.18,4.48 -0.53,2.44 0.17,5.71 -2.29,7.26 -2.58,0.58 -5.09,1.43 -7.36,2.77 1.5,1.31 3.15,2.95 5.4,2.55 1.04,-0.58 1.93,-1.42 2.9,-2.16 -0.09,0.62 -0.26,1.85 -0.35,2.47 -3.38,2.7 -7.33,4.63 -10.48,7.63 -3.09,-1.68 -6.17,-3.38 -9.46,-4.55 1.15,-0.5 2.33,-0.99 3.54,-1.46 -0.38,-3.86 -4.19,-4.43 -7.21,-5.36 -1.49,-2.03 -2.78,-4.19 -3.95,-6.39 -0.28,-3.75 3.11,-5.93 6.47,-6.23 m 1.4,6.44 c 4.47,-0.19 10.39,1.32 13.64,-2.63 0.04,-3.06 -3.69,-1.77 -5.62,-2.09 -3.2,-0.06 -8.32,0.37 -8.02,4.72 z"
         id="path2429" />
      <path
         fill="#4b5251"
         stroke="#4b5251"
         stroke-width="0.5"
         d="m 2246.156,876.534 c -0.3,-4.35 4.82,-4.78 8.02,-4.72 1.93,0.32 5.66,-0.97 5.62,2.09 -3.25,3.95 -9.17,2.44 -13.64,2.63 z"
         id="path2431" />
      <path
         fill="#8f5f3b"
         stroke="#8f5f3b"
         stroke-width="0.5"
         d="m 2267.546,873.564 c 4.12,5.66 7.55,11.82 10.42,18.21 1.69,4.43 4.64,9.47 2.48,14.22 -7.56,2.81 -15.82,1.85 -23.54,0.37 -2.99,-0.65 -5.88,0.51 -8.76,1.01 -5.54,0.94 -11.18,0.95 -16.77,0.79 0,-2.07 0.05,-4.12 0.26,-6.16 1.98,-8.6 2.69,-17.67 6.65,-25.68 1.17,2.2 2.46,4.36 3.95,6.39 0.21,1.96 0.47,3.92 0.76,5.89 0.94,0.28 1.91,0.59 2.91,0.93 3.29,1.17 6.37,2.87 9.46,4.55 3.15,-3 7.1,-4.93 10.48,-7.63 0.09,-0.62 0.26,-1.85 0.35,-2.47 -0.33,-1.06 -0.64,-2.12 -0.94,-3.16 2.46,-1.55 1.76,-4.82 2.29,-7.26 z"
         id="path2433" />
      <path
         fill="#404143"
         stroke="#404143"
         stroke-width="0.5"
         d="m 2257.896,883.594 c 2.27,-1.34 4.78,-2.19 7.36,-2.77 0.3,1.04 0.61,2.1 0.94,3.16 -0.97,0.74 -1.86,1.58 -2.9,2.16 -2.25,0.4 -3.9,-1.24 -5.4,-2.55 z"
         id="path2435" />
      <path
         fill="#42413f"
         stroke="#42413f"
         stroke-width="0.5"
         d="m 2242.236,882.714 c 3.02,0.93 6.83,1.5 7.21,5.36 -1.21,0.47 -2.39,0.96 -3.54,1.46 -1,-0.34 -1.97,-0.65 -2.91,-0.93 -0.29,-1.97 -0.55,-3.93 -0.76,-5.89 z"
         id="path2437" />
      <path
         fill="#1d120d"
         stroke="#1d120d"
         stroke-width="0.5"
         d="m 2248.146,907.374 c 2.88,-0.5 5.77,-1.66 8.76,-1.01 7.72,1.48 15.98,2.44 23.54,-0.37 l -0.81,1.02 c -3.06,3.57 -7.76,5.38 -12.41,5.13 -4.74,-0.01 -9.24,-2.92 -13.97,-1.51 -7.15,1.64 -15.15,3.01 -21.89,-0.75 0.01,-0.43 0.01,-1.29 0.01,-1.72 5.59,0.16 11.23,0.15 16.77,-0.79 z"
         id="path2439" />
      <path
         fill="#9f6233"
         stroke="#9f6233"
         stroke-width="0.5"
         d="m 2267.226,912.144 c 4.65,0.25 9.35,-1.56 12.41,-5.13 0.98,1.24 1.99,2.49 3,3.76 -4.19,4.64 -8.51,9.24 -13.73,12.73 -3.49,2.3 -7.09,5.6 -11.61,4.73 -10.78,-0.88 -23.5,-3.14 -29.69,-13.08 1.46,-1.59 2.73,-3.36 3.76,-5.27 6.74,3.76 14.74,2.39 21.89,0.75 4.73,-1.41 9.23,1.5 13.97,1.51 z"
         id="path2441" />
      <path
         fill="#c4a98b"
         stroke="#c4a98b"
         stroke-width="0.5"
         d="m 2367.836,915.204 c 3.75,-2.97 6.47,-7.87 11.61,-8.52 4.72,3.89 11.11,2.44 16.74,2.61 -1.26,2.47 -2.67,4.88 -3.46,7.55 1.15,4.14 3.64,7.82 6.26,11.19 2.31,3.22 6.54,3.48 10.1,4.34 -1.22,3.1 -2.03,6.33 -2.42,9.64 1.52,-0.6 3.1,-1.18 4.67,-1.77 0.39,3.03 0.57,6.13 1.58,9.05 0.43,0.96 1.09,2.35 2.4,2.31 3.66,0.61 6.22,-2.54 8.88,-4.5 -1.42,5.19 -4.75,9.68 -5.51,15.07 1.88,-0.95 3.77,-1.94 5.65,-2.94 -1.62,4.61 -4.83,8.77 -5.06,13.79 3.23,0.98 6,-2.11 8.88,-3.21 -2.13,4.25 -6.97,7.57 -6.54,12.74 1.97,-0.42 4,-0.84 6.01,-1.25 -21.96,45.02 -62.07,80.26 -108.68,98.13 -57.4,22.33 -124.44,18.56 -178.71,-10.7 -32.47,-17.35 -60.4,-43.5 -78.88,-75.42 3.16,-5.33 4.14,-11.52 5.28,-17.5 0.2,-4.87 6.22,-5.85 7.67,-10.15 2.19,-3.4 0.05,-7.17 -1.46,-10.33 4.6,-2.36 9.16,-4.83 13.91,-6.9 6.19,-2.68 12.49,-5.95 16.67,-11.42 2.04,-2.85 4.12,-6.68 2.07,-10.08 1.26,-0.78 2.64,-2.5 4.34,-1.66 2.01,1.06 3.7,2.64 5.49,4.07 1.24,-0.24 2.48,-0.49 3.78,-0.7 1.96,1.5 3.96,2.98 6.03,4.38 8.85,-2.49 16.69,4.43 25.45,3.31 5.53,-0.2 11.09,-0.08 16.6,-0.86 -0.08,0.59 -0.25,1.76 -0.34,2.35 2.78,-0.99 5.56,-2 8.34,-3.05 0.68,0.56 1.4,1.13 2.14,1.72 1.72,-1.2 3.45,-2.38 5.21,-3.56 0.2,0.68 0.62,2.05 0.83,2.73 1.31,-0.91 2.61,-1.89 4.09,-2.58 1.67,-0.13 3.19,0.93 4.78,1.45 -0.18,-0.8 -0.33,-1.59 -0.46,-2.36 4.03,-1.11 8.24,-0.97 12.34,-1.72 4.4,-1.28 8.7,0.94 13.14,0.65 4.14,-0.46 7.83,2.26 11.99,1.79 6.41,-0.38 12.92,-0.03 19.15,1.74 3.53,1.17 7.13,-0.54 10.74,-0.05 3.01,0.24 6.27,1.09 9.1,-0.52 8.31,-4.1 15.95,-9.45 23.76,-14.41 1.13,0.23 2.29,0.47 3.48,0.73 0.12,0.63 0.27,1.26 0.46,1.91 2.93,0.56 5.28,2.34 6.9,4.83 1.4,-0.83 2.82,-1.65 4.26,-2.46 0.91,1.64 1.86,3.29 2.81,4.95 0.03,-0.79 0.1,-2.37 0.13,-3.16 8.28,0.43 16.53,2.17 24.84,1.72 4.63,-1.56 8.98,-4.66 14.16,-3.75 1.41,-1.37 2.83,-2.75 4.27,-4.12 0.53,0.29 1.09,0.6 1.7,0.93 1.66,-2.39 3.84,-4.45 6.99,-4.18 1.79,-1.02 3.76,-1.64 5.84,-1.85 z"
         id="path2443" />
      <path
         fill="#c27c3e"
         stroke="#c27c3e"
         stroke-width="0.5"
         d="m 2282.636,910.774 c 2.16,2.85 3.8,6.63 7.83,7.04 0.38,0.46 1.15,1.38 1.53,1.84 -7.81,4.96 -15.45,10.31 -23.76,14.41 -2.83,1.61 -6.09,0.76 -9.1,0.52 -3.61,-0.49 -7.21,1.22 -10.74,0.05 -6.23,-1.77 -12.74,-2.12 -19.15,-1.74 -4.16,0.47 -7.85,-2.25 -11.99,-1.79 -4.44,0.29 -8.74,-1.93 -13.14,-0.65 0.23,-0.56 0.69,-1.7 0.91,-2.26 4.54,-1.98 10.38,-1.77 13.7,-5.95 2.44,-2.96 5.74,-4.95 8.88,-7.09 6.19,9.94 18.91,12.2 29.69,13.08 4.52,0.87 8.12,-2.43 11.61,-4.73 5.22,-3.49 9.54,-8.09 13.73,-12.73 z"
         id="path2445" />
    </g>
  </g>
</svg>
