<?xml version="1.0" encoding="UTF-8" standalone="no"?>
<svg
   xmlns:dc="http://purl.org/dc/elements/1.1/"
   xmlns:cc="http://creativecommons.org/ns#"
   xmlns:rdf="http://www.w3.org/1999/02/22-rdf-syntax-ns#"
   xmlns:svg="http://www.w3.org/2000/svg"
   xmlns="http://www.w3.org/2000/svg"
   xmlns:sodipodi="http://sodipodi.sourceforge.net/DTD/sodipodi-0.dtd"
   xmlns:inkscape="http://www.inkscape.org/namespaces/inkscape"
   width="108.90438mm"
   height="108.8793mm"
   viewBox="0 0 108.90438 108.8793"
   version="1.1"
   id="svg1653"
   inkscape:version="1.0.2 (e86c870879, 2021-01-15, custom)"
   sodipodi:docname="dog6.svg">
  <defs
     id="defs1647" />
  <sodipodi:namedview
     id="base"
     pagecolor="#ffffff"
     bordercolor="#666666"
     borderopacity="1.0"
     inkscape:pageopacity="0.0"
     inkscape:pageshadow="2"
     inkscape:zoom="0.35"
     inkscape:cx="145.87608"
     inkscape:cy="31.516889"
     inkscape:document-units="mm"
     inkscape:current-layer="layer1"
     inkscape:document-rotation="0"
     showgrid="false"
     inkscape:window-width="1320"
     inkscape:window-height="900"
     inkscape:window-x="-13"
     inkscape:window-y="14"
     inkscape:window-maximized="0" />
  <metadata
     id="metadata1650">
    <rdf:RDF>
      <cc:Work
         rdf:about="">
        <dc:format>image/svg+xml</dc:format>
        <dc:type
           rdf:resource="http://purl.org/dc/dcmitype/StillImage" />
        <dc:title></dc:title>
      </cc:Work>
    </rdf:RDF>
  </metadata>
  <g
     inkscape:label="Layer 1"
     inkscape:groupmode="layer"
     id="layer1"
     transform="translate(-67.236955,-139.82782)">
    <g
       id="g1040"
       transform="matrix(0.26458333,0,0,0.26458333,-207.49687,-42.604603)">
      <path
         fill="#e9cbaf"
         stroke="#e9cbaf"
         stroke-width="0.5"
         d="m 1194.126,693.644 c 6.48,-3.96 14.48,-4.45 21.84,-3.42 4.82,0.51 9.37,2.84 14.31,2.24 7.48,-0.57 14.9,1.18 22.03,3.3 5.13,1.76 10.73,0.34 15.87,2.07 7.34,2.17 12.83,7.77 19.07,11.88 3.54,1.65 7.59,2.03 11.01,4.05 10.39,5.33 15.77,16.72 25.79,22.49 -2.44,0.89 -4.87,2.37 -5.24,5.18 -1.65,7.8 1.27,15.63 3.98,22.84 2.89,7.83 8.25,14.63 10.06,22.87 2.61,11.03 2.96,22.4 4.18,33.63 0.81,7.21 1.3,14.46 2.22,21.66 -5.7,2.47 -11.21,5.34 -16.9,7.79 -0.42,-0.18 -1.24,-0.55 -1.65,-0.73 -1.42,-6.01 -0.98,-12.22 -1.97,-18.26 -2.22,-7.39 -3.62,-15.05 -6.82,-22.11 -2.02,-4.54 -3.9,-9.75 -8.57,-12.22 0.49,0.01 1.47,0.03 1.96,0.04 -0.02,-2.58 -0.79,-5.05 -2.07,-7.24 0.57,-0.01 1.7,-0.03 2.27,-0.04 -2.29,-7.23 -7.29,-13.24 -12.9,-18.16 -3.49,-2.87 -7.63,-5.68 -12.34,-5.46 -3.3,-0.07 -5.84,2.35 -8.75,3.52 -1.4,0.46 -2.82,0.85 -4.22,1.25 0.59,-3.85 1.34,-7.71 1.2,-11.62 -4.35,2.68 -3.81,8.26 -5,12.6 -1.18,5.3 -4.68,10.36 -3.38,16 1.06,4.97 5.97,7.56 10.24,9.4 -0.7,-1.46 -1.39,-2.9 -2.07,-4.34 0.65,0.59 1.31,1.2 1.99,1.81 2.79,8.25 8.41,15.04 12.41,22.7 4.88,8.14 9.41,16.49 14.84,24.28 2.69,5.45 6.26,10.36 9.5,15.48 -7.84,4.14 -16.15,7.31 -23.86,11.68 8.39,-2.67 16.14,-7 24.23,-10.43 4.18,3.82 8.79,7.3 12.14,11.94 -8.99,1.92 -18.22,0.9 -27.25,2.27 -4.15,0.39 -8.37,-0.14 -12.44,0.89 5.38,0.72 10.85,0.74 16.25,0.1 6.64,-0.96 13.38,-0.28 20.01,-1.29 2.48,-0.57 4.71,0.7 6.73,2 0.22,-0.5 0.66,-1.5 0.87,-2 7.22,-1.42 14.73,-0.55 21.84,-2.49 3.38,-0.79 6.86,-1.01 10.33,-1.12 -0.9,-10.3 -1.77,-20.6 -2.21,-30.93 -1.49,0.34 -2.95,0.75 -4.45,0.85 1.27,-1.82 4.34,-2.36 4.55,-4.84 2.1,-20.21 -0.61,-41.07 -8.65,-59.79 -5.68,-12.03 -12.04,-23.74 -18.91,-35.13 1.14,0.32 2.31,0.67 3.48,1.04 l 0.48,0.61 c 3.95,4.9 9.58,8.02 14.25,12.18 14.08,11.51 28.17,23.1 40.98,36.05 3.85,4.06 7.79,8.1 10.92,12.78 2.03,3.03 2.1,6.84 2.99,10.3 -0.36,-2.4 -0.79,-4.79 -1.13,-7.17 2.73,12.85 6.24,26.57 2.22,39.53 0.31,-6.56 1.26,-13.46 -1.54,-19.65 -5.08,6.85 -11.35,12.73 -18.23,17.75 -4.6,3.34 -10.57,3.73 -15.34,6.71 -3.74,2.61 -3.52,7.78 -3.18,11.82 0.93,6.03 0.28,12.23 1.93,18.15 -1.95,6.52 -4.92,12.91 -4.05,19.92 -0.97,-0.22 -1.92,-0.43 -2.85,-0.65 -0.14,-0.16 -0.42,-0.48 -0.56,-0.64 -2.23,-3.07 -3.88,-6.49 -5.26,-9.99 1.98,3.41 4.07,7.15 7.99,8.62 1.61,-8.97 -1.85,-17.6 -3.49,-26.27 -3.37,-0.43 -6.77,-0.31 -10.03,0.65 0.08,0.86 0.26,2.6 0.34,3.47 -0.5,-1.07 -1.04,-2.11 -1.62,-3.1 -3.29,0.72 -4.83,4.12 -6.33,6.79 -2.46,5.31 -5.53,10.64 -5.51,16.68 -0.36,0.11 -1.09,0.33 -1.46,0.44 -6.86,-0.25 -13.6,-2.61 -20.49,-1.52 6.67,1.44 13.53,1.6 20.26,2.7 -1.8,4.72 -2.55,9.9 -5.34,14.21 -9.66,14.33 -19.12,28.81 -28.75,43.17 -2,3.26 -4.52,6.22 -6.11,9.71 1.12,3.39 2.37,7.14 0.29,10.48 -7.19,13.44 -20.88,22.06 -34.81,27.26 -9.08,3.14 -19.04,6.06 -28.62,3.57 -11.71,-4.24 -22.2,-11.15 -32.47,-18.07 l -0.02,1.52 c -3.61,-6.8 -7.75,-13.5 -9.7,-20.99 -0.89,-3.7 -2.63,-7.2 -2.65,-11.06 -4.71,-4.89 -10.48,-8.55 -15.75,-12.79 -5.1,-3.87 -10.11,-7.85 -15.19,-11.73 0.78,-0.3 2.36,-0.91 3.15,-1.21 -1.98,-4.59 -4.1,-9.12 -6.2,-13.65 3.61,-2.15 7.11,-4.46 10.66,-6.72 1.52,1.9 2.93,3.91 3.9,6.17 2.57,5.86 5.51,11.56 8.93,16.98 2.46,4.12 6.23,7.24 8.69,11.38 4.09,5.73 8.68,12.17 15.92,13.94 -0.56,3.85 -0.97,7.73 -0.94,11.63 6.82,4.38 11.9,10.99 18.8,15.22 9.23,2.55 18.85,3.42 28.26,5.16 -9.7,1.95 -19.64,0.63 -29.14,-1.69 -0.62,3.64 2.32,6.08 5.38,7.27 7.65,3.16 16.13,5.39 24.44,3.74 5.93,-1.12 11.91,-2.44 17.47,-4.85 2.68,-1.75 5.01,-4.58 5.77,-7.72 0.42,-2.2 -2.33,-1.8 -3.59,-1.48 -2.89,0.7 -5.69,1.74 -8.66,2.03 8.95,-5.26 17.9,-10.65 25.76,-17.48 2.42,-2.23 4.99,-4.56 6.23,-7.68 0.78,-2.92 0.31,-6.01 -0.41,-8.89 -3.39,-1.39 -3.48,-5.36 -3.39,-8.46 9.69,-3.23 15.29,-13.99 14.96,-23.82 1.73,-2.21 3.6,-4.43 4.43,-7.16 1.11,-3.42 0.2,-7.2 1.61,-10.53 1.41,-2.85 3.33,-5.4 5.04,-8.07 0.4,-0.27 1.18,-0.81 1.58,-1.08 -0.68,0.05 -2.03,0.15 -2.71,0.2 -0.05,-0.36 -0.16,-1.08 -0.21,-1.44 l -0.2,-1.23 1.18,-0.03 c 1.08,-0.06 2.18,-0.12 3.3,-0.18 1.07,-3.5 2.86,-7.06 2.17,-10.81 -0.42,-2.39 -3.23,-2.76 -4.96,-3.78 -1.59,3.75 -2.5,7.72 -3.22,11.72 -0.84,0.95 -1.75,1.83 -2.6,2.74 -11.04,-1.2 -22.03,-3.11 -33.14,-3.32 10.6,1.46 21.22,2.8 31.83,4.3 -7.82,6.84 -16.8,14.52 -27.94,13.47 -3.38,-1.22 -6.78,-2.35 -10.24,-3.28 -1.83,-4.51 -4.64,-8.56 -6.25,-13.16 -1.32,-3.48 0.2,-7.15 -0.14,-10.72 -0.42,-2.66 -1.93,-4.96 -3.15,-7.29 3.42,-2.79 6.77,-6.91 5.84,-11.62 -0.74,-2.83 -3.9,-3.75 -6.36,-4.39 1.54,-3.25 2.94,-6.56 4.56,-9.77 2.4,-3.06 4.33,-6.8 2.94,-10.77 -0.48,-2.98 -0.65,-6.19 -2.4,-8.76 -2.76,-4.2 -7.68,-6.42 -12.49,-7.23 -6.97,-0.99 -14.24,-1.36 -21.01,0.91 -6.66,2.27 -13.88,2.73 -20.28,5.75 -2.34,1.28 -3.77,3.54 -4.59,6.02 -2.76,3.6 -6.47,6.73 -7.83,11.21 -1.04,2.69 0.51,5.33 1.52,7.77 1.41,4.99 5.77,8.79 6.25,14.03 -1.17,2.72 -0.26,5.51 1.13,7.95 -1.81,7.27 -1.73,14.81 -1.77,22.25 -0.05,4.88 0.39,9.76 1.42,14.54 -1.12,0.87 -2.18,1.83 -3.26,2.74 -7.23,4.67 -16.94,4.55 -24.39,0.47 -3.1,-1.49 -5.54,-3.94 -8.43,-5.72 -0.82,0.16 -1.61,0.36 -2.38,0.61 l -1.38,-0.08 -0.38,-0.2 c 1.35,-0.17 2.5,-1.77 1.24,-2.84 -2.37,-3.79 -4.33,-7.83 -6.87,-11.51 -1.69,1.27 -4.22,2.35 -4.06,4.89 0.47,4.52 3.83,7.95 6.44,11.43 -3.3,2 -6.46,4.22 -9.71,6.28 -2.06,-5.38 -4.79,-10.49 -8.27,-15.07 -3.75,-4.85 -4.48,-11.13 -5.92,-16.9 18.57,-1.95 37.02,-4.86 55.51,-7.41 -11.14,0.51 -22.14,2.55 -33.26,3.31 2.38,-8.84 5.5,-17.47 7.42,-26.43 3.3,-15.5 7.91,-30.7 10.93,-46.25 -7.06,3.48 -14.3,6.67 -21.99,8.5 -3.64,1.23 -7.85,1.39 -10.96,3.79 -3.6,6.24 -3.42,13.79 -3.35,20.78 0.18,5.96 -0.48,11.98 0.54,17.89 1.71,7.77 3.34,15.56 4.81,23.38 -3.36,0.44 -6.7,0.89 -10.05,1.31 -0.6,-2.51 -1.23,-5.02 -1.85,-7.5 -5.3,1.32 -10.35,4.15 -12.69,9.31 -2.12,0.28 -4.24,0.57 -6.34,0.86 2.43,-8.21 1.75,-16.85 2.49,-25.28 0.97,-10.62 1.22,-21.29 2.14,-31.92 0.57,-6.39 1.56,-12.88 4.4,-18.69 3.64,-7.44 7.16,-15.04 8.96,-23.17 0.97,-4.61 1.89,-9.49 0.38,-14.1 -0.67,-2.35 -3.02,-3.58 -4.71,-5.09 -5.07,5.4 -7.61,12.5 -11.06,18.92 -4.91,10.34 -10.61,20.49 -13.18,31.74 -3.82,15.07 -4.72,30.85 -2.75,46.27 1.01,7.67 0.28,15.39 0.07,23.09 -3.69,0.46 -7.37,0.98 -11.01,1.73 3.64,-0.06 7.29,-0.37 10.91,-0.89 -0.33,7.1 -0.12,14.29 -1.76,21.27 -1.33,5.66 -2.57,11.43 -1.97,17.28 0.77,0.31 2.32,0.92 3.09,1.23 -2.3,0.06 -4.55,-0.46 -6.76,-0.98 -2.83,-5.01 -3.13,-10.8 -2.76,-16.41 -0.25,-0.15 -0.74,-0.44 -0.98,-0.59 1.73,-0.44 3.16,-1.63 2.51,-3.57 -0.64,-5.54 -1.64,-11.03 -2.06,-16.58 -2.43,0.04 -4.85,0.1 -7.26,0.19 2.08,-0.56 4.56,-0.36 6.33,-1.72 1.14,-3.01 -0.7,-6.38 -3.14,-8.16 -2.59,-2.06 -6.07,-1.96 -9.17,-2.36 -8.07,-0.77 -14.94,-5.51 -21.6,-9.71 -3.18,-1.93 -5.86,-4.54 -8.18,-7.42 -0.28,2.26 -0.6,4.51 -0.86,6.78 -0.06,-3.35 -0.72,-6.65 -0.74,-9.99 0.04,-4.48 3.56,-8.07 7.37,-9.92 0.53,-0.26 1.57,-0.79 2.1,-1.05 2.45,-7.31 5.87,-14.23 8.58,-21.43 4.32,-7.65 8.25,-15.59 13.4,-22.74 10.14,-14.97 19.06,-30.73 29.4,-45.56 3.59,-5 7.24,-10 11.64,-14.32 2.34,-2.33 5.19,-4.13 7.24,-6.75 5.12,-6.54 10.84,-12.6 16.93,-18.24 3.91,-3.72 9.46,-4.42 14.18,-6.66 10.43,-4.28 19.91,-11.15 31.29,-12.83 3.09,-0.33 5.66,-2.09 8.17,-3.79 m 64.5,53.61 c -3.48,0.39 -7.33,1.94 -8.23,5.69 -0.27,3.79 0.82,7.5 1.41,11.22 0.51,1.65 0.36,4.29 2.57,4.64 2.29,0.45 4.4,-1.25 5.72,-2.98 3.43,-4.72 6.6,-10.58 4.76,-16.56 -1.23,-2.01 -4.06,-2.56 -6.23,-2.01 m -96.9,20.17 c 1.39,3.04 3.02,6.19 5.8,8.21 0.04,0.55 0.13,1.65 0.18,2.2 -1.96,-0.07 -3.89,-0.12 -5.82,-0.1 -5.35,-3.28 -11.93,-0.29 -15.38,4.31 -5.42,6.91 -9.44,15.45 -9.54,24.36 0.55,-0.23 1.66,-0.68 2.21,-0.91 -0.62,2.75 -1.66,7.47 2.04,8.51 4.83,0.58 9.54,-1.22 13.87,-3.17 5.06,1.61 9.92,-1.65 14.09,-4.15 4.53,-3.31 9.92,-7.08 10.76,-13.09 0.31,-5.56 -3.51,-10.18 -6.99,-14.09 1.41,-0.83 3.44,-1.56 3.35,-3.56 0.28,-4.59 0.38,-9.28 -0.43,-13.81 -2.4,-3.74 -7.61,-4.04 -11.55,-3.23 -3.49,1.07 -3.98,5.63 -2.59,8.52 m 13.26,131.19 c -3.61,2.55 -7.9,4.16 -11,7.36 2.77,-0.73 5.14,-2.4 7.54,-3.91 5.63,-3.64 11.42,-7.07 16.73,-11.17 -4.74,1.99 -8.8,5.24 -13.27,7.72 z"
         id="path924" />
      <path
         fill="#d6ac82"
         stroke="#d6ac82"
         stroke-width="0.5"
         d="m 1318.806,741.434 c 0.37,-2.81 2.8,-4.29 5.24,-5.18 0.75,0.81 1.47,1.68 2.15,2.58 6.87,11.39 13.23,23.1 18.91,35.13 8.04,18.72 10.75,39.58 8.65,59.79 -0.21,2.48 -3.28,3.02 -4.55,4.84 1.5,-0.1 2.96,-0.51 4.45,-0.85 0.44,10.33 1.31,20.63 2.21,30.93 -3.47,0.11 -6.95,0.33 -10.33,1.12 l -0.77,0.01 c -1.16,-8.86 -4.54,-17.24 -5.71,-26.11 2.96,-1.48 5.97,-2.87 8.87,-4.49 -3.08,0.5 -5.85,2.04 -8.68,3.23 -0.92,-7.2 -1.41,-14.45 -2.22,-21.66 -1.22,-11.23 -1.57,-22.6 -4.18,-33.63 -1.81,-8.24 -7.17,-15.04 -10.06,-22.87 -2.71,-7.21 -5.63,-15.04 -3.98,-22.84 z"
         id="path926" />
      <path
         fill="#02ba5a"
         stroke="#02ba5a"
         stroke-width="0.5"
         d="m 1330.156,740.484 c 34.89,14.61 65.8,38.95 87.43,70.06 23.31,33.31 35.04,74.79 31.52,115.38 -2.78,37.17 -18.12,73.05 -42.2,101.39 -7.34,-18.34 -16.44,-35.91 -25.85,-53.25 -13.75,-25.07 -28.23,-49.72 -42.88,-74.26 -0.65,-1.05 -1.31,-2.12 -1.93,-3.16 4.23,0.56 8.49,1.02 12.77,0.78 2.49,0.33 5.02,0.43 7.55,0.14 0.14,0.16 0.42,0.48 0.56,0.64 0.93,0.22 1.88,0.43 2.85,0.65 -0.87,-7.01 2.1,-13.4 4.05,-19.92 0.22,0.22 0.67,0.66 0.9,0.88 -0.59,0.9 -1.15,1.82 -1.7,2.74 3.28,-4.53 8.68,-6.48 13.04,-9.72 10.35,-7.13 20.11,-16.46 24.12,-28.68 4.02,-12.96 0.51,-26.68 -2.22,-39.53 0.34,2.38 0.77,4.77 1.13,7.17 -0.89,-3.46 -0.96,-7.27 -2.99,-10.3 -3.13,-4.68 -7.07,-8.72 -10.92,-12.78 -12.81,-12.95 -26.9,-24.54 -40.98,-36.05 -4.67,-4.16 -10.3,-7.28 -14.25,-12.18 z"
         id="path928" />
      <path
         fill="#e3c394"
         stroke="#e3c394"
         stroke-width="0.5"
         d="m 1258.626,747.254 c 2.17,-0.55 5,0 6.23,2.01 1.84,5.98 -1.33,11.84 -4.76,16.56 -1.32,1.73 -3.43,3.43 -5.72,2.98 -2.21,-0.35 -2.06,-2.99 -2.57,-4.64 -0.59,-3.72 -1.68,-7.43 -1.41,-11.22 0.9,-3.75 4.75,-5.3 8.23,-5.69 z"
         id="path930" />
      <path
         fill="#e3c394"
         stroke="#e3c394"
         stroke-width="0.5"
         d="m 1161.726,767.424 c -1.39,-2.89 -0.9,-7.45 2.59,-8.52 3.94,-0.81 9.15,-0.51 11.55,3.23 0.81,4.53 0.71,9.22 0.43,13.81 0.09,2 -1.94,2.73 -3.35,3.56 -1.75,-1.39 -3.63,-2.58 -5.42,-3.87 -2.78,-2.02 -4.41,-5.17 -5.8,-8.21 z"
         id="path932" />
      <path
         fill="#6a5748"
         stroke="#6a5748"
         stroke-width="0.5"
         d="m 1263.486,771.794 c 1.19,-4.34 0.65,-9.92 5,-12.6 0.14,3.91 -0.61,7.77 -1.2,11.62 1.4,-0.4 2.82,-0.79 4.22,-1.25 0.11,2.02 0.84,3.9 1.92,5.63 -2.87,2.51 -6.27,5.43 -6.23,9.6 -0.3,4.07 2.87,7.08 4.75,10.38 l -1.68,-0.51 c -0.68,-0.61 -1.34,-1.22 -1.99,-1.81 0.68,1.44 1.37,2.88 2.07,4.34 -4.27,-1.84 -9.18,-4.43 -10.24,-9.4 -1.3,-5.64 2.2,-10.7 3.38,-16 z"
         id="path934" />
      <path
         fill="#6e4019"
         stroke="#6e4019"
         stroke-width="0.5"
         d="m 1271.506,769.564 c 2.91,-1.17 5.45,-3.59 8.75,-3.52 4.71,-0.22 8.85,2.59 12.34,5.46 5.61,4.92 10.61,10.93 12.9,18.16 -0.57,0.01 -1.7,0.03 -2.27,0.04 -5.07,-6.86 -11.56,-12.87 -19.33,-16.48 -3.58,-1.87 -7.48,-0.17 -10.47,1.97 -1.08,-1.73 -1.81,-3.61 -1.92,-5.63 z"
         id="path936" />
      <path
         fill="#d6ac82"
         stroke="#d6ac82"
         stroke-width="0.5"
         d="m 1115.096,785.734 c 3.45,-6.42 5.99,-13.52 11.06,-18.92 1.69,1.51 4.04,2.74 4.71,5.09 1.51,4.61 0.59,9.49 -0.38,14.1 -1.8,8.13 -5.32,15.73 -8.96,23.17 -2.84,5.81 -3.83,12.3 -4.4,18.69 -0.92,10.63 -1.17,21.3 -2.14,31.92 -0.74,8.43 -0.06,17.07 -2.49,25.28 -4.43,0.56 -8.84,1.2 -13.26,1.77 0.21,-7.7 0.94,-15.42 -0.07,-23.09 -1.97,-15.42 -1.07,-31.2 2.75,-46.27 2.57,-11.25 8.27,-21.4 13.18,-31.74 z"
         id="path938" />
      <path
         fill="#25201a"
         stroke="#25201a"
         stroke-width="0.5"
         d="m 1273.426,775.194 c 2.99,-2.14 6.89,-3.84 10.47,-1.97 7.77,3.61 14.26,9.62 19.33,16.48 1.28,2.19 2.05,4.66 2.07,7.24 -0.49,-0.01 -1.47,-0.03 -1.96,-0.04 -2.55,-0.12 -5.09,-0.01 -7.61,0.16 -0.12,-2.4 -0.39,-4.79 -0.69,-7.16 -1.61,2.42 -3.3,4.77 -4.91,7.18 -6.11,0.15 -12.3,-0.16 -18.18,-1.91 -1.88,-3.3 -5.05,-6.31 -4.75,-10.38 -0.04,-4.17 3.36,-7.09 6.23,-9.6 m -2.96,8.69 c 0.44,1.37 1.38,1.94 2.83,1.72 2.39,0.42 2.89,-2.55 4.13,-3.96 -0.51,-1.33 -1,-2.65 -1.51,-3.95 -2.15,1.68 -4.88,3.3 -5.45,6.19 z"
         id="path940" />
      <path
         fill="#6a5749"
         stroke="#6a5749"
         stroke-width="0.5"
         d="m 1167.526,775.634 c 1.79,1.29 3.67,2.48 5.42,3.87 3.48,3.91 7.3,8.53 6.99,14.09 -0.84,6.01 -6.23,9.78 -10.76,13.09 -4.17,2.5 -9.03,5.76 -14.09,4.15 4.58,-2.27 9.04,-4.83 13.19,-7.83 5.13,-3.24 6.18,-11.63 1.53,-15.71 -1.86,-1.7 -4.2,-2.74 -6.49,-3.69 0.54,-1.19 1.11,-2.38 1.68,-3.55 -1.03,-0.79 -2.07,-1.59 -3.11,-2.32 1.93,-0.02 3.86,0.03 5.82,0.1 -0.05,-0.55 -0.14,-1.65 -0.18,-2.2 z"
         id="path942" />
      <path
         fill="#6e4018"
         stroke="#6e4018"
         stroke-width="0.5"
         d="m 1146.506,782.044 c 3.45,-4.6 10.03,-7.59 15.38,-4.31 1.04,0.73 2.08,1.53 3.11,2.32 -0.57,1.17 -1.14,2.36 -1.68,3.55 -3.18,-0.95 -6.94,-1.96 -9.7,0.52 -6.95,5.31 -11.41,13.3 -14.44,21.37 -0.55,0.23 -1.66,0.68 -2.21,0.91 0.1,-8.91 4.12,-17.45 9.54,-24.36 z"
         id="path944" />
      <path
         fill="#f6f4f0"
         stroke="#f6f4f0"
         stroke-width="0.5"
         d="m 1270.466,783.884 c 0.57,-2.89 3.3,-4.51 5.45,-6.19 0.51,1.3 1,2.62 1.51,3.95 -1.24,1.41 -1.74,4.38 -4.13,3.96 -1.45,0.22 -2.39,-0.35 -2.83,-1.72 z"
         id="path946" />
      <path
         fill="#25201a"
         stroke="#25201a"
         stroke-width="0.5"
         d="m 1153.616,784.124 c 2.76,-2.48 6.52,-1.47 9.7,-0.52 2.29,0.95 4.63,1.99 6.49,3.69 4.65,4.08 3.6,12.47 -1.53,15.71 -4.15,3 -8.61,5.56 -13.19,7.83 -4.33,1.95 -9.04,3.75 -13.87,3.17 -3.7,-1.04 -2.66,-5.76 -2.04,-8.51 3.03,-8.07 7.49,-16.06 14.44,-21.37 m 8.06,6.94 c 1.61,2.39 5.51,4.3 7.22,0.95 -0.53,-3.33 -4.43,-4.05 -6.92,-5.45 -0.13,1.49 -0.23,2.99 -0.3,4.5 m -14.38,12.8 c 0.3,2.17 -0.17,4.7 1.36,6.52 1.9,0.74 3.37,-1.04 4.84,-1.95 -2.24,-1.29 -4.42,-2.69 -6.2,-4.57 z"
         id="path948" />
      <path
         fill="#f6f1ed"
         stroke="#f6f1ed"
         stroke-width="0.5"
         d="m 1161.676,791.064 c 0.07,-1.51 0.17,-3.01 0.3,-4.5 2.49,1.4 6.39,2.12 6.92,5.45 -1.71,3.35 -5.61,1.44 -7.22,-0.95 z"
         id="path950" />
      <path
         fill="#ecd6be"
         stroke="#ecd6be"
         stroke-width="0.5"
         d="m 1290.126,797.084 c 1.61,-2.41 3.3,-4.76 4.91,-7.18 0.3,2.37 0.57,4.76 0.69,7.16 2.52,-0.17 5.06,-0.28 7.61,-0.16 4.67,2.47 6.55,7.68 8.57,12.22 3.2,7.06 4.6,14.72 6.82,22.11 0.99,6.04 0.55,12.25 1.97,18.26 0.41,0.18 1.23,0.55 1.65,0.73 -5.17,2.18 -10.34,4.34 -15.33,6.9 -3.24,-5.12 -6.81,-10.03 -9.5,-15.48 -5.43,-7.79 -9.96,-16.14 -14.84,-24.28 -4,-7.66 -9.62,-14.45 -12.41,-22.7 l 1.68,0.51 c 5.88,1.75 12.07,2.06 18.18,1.91 z"
         id="path952" />
      <path
         fill="#d8cfca"
         stroke="#d8cfca"
         stroke-width="0.5"
         d="m 1147.296,803.864 c 1.78,1.88 3.96,3.28 6.2,4.57 -1.47,0.91 -2.94,2.69 -4.84,1.95 -1.53,-1.82 -1.06,-4.35 -1.36,-6.52 z"
         id="path954" />
      <path
         fill="#ecd6be"
         stroke="#ecd6be"
         stroke-width="0.5"
         d="m 1152.386,815.244 c 7.69,-1.83 14.93,-5.02 21.99,-8.5 -3.02,15.55 -7.63,30.75 -10.93,46.25 -1.92,8.96 -5.04,17.59 -7.42,26.43 -4.22,0.42 -8.4,1.14 -12.6,1.66 -1.47,-7.82 -3.1,-15.61 -4.81,-23.38 -1.02,-5.91 -0.36,-11.93 -0.54,-17.89 -0.07,-6.99 -0.25,-14.54 3.35,-20.78 3.11,-2.4 7.32,-2.56 10.96,-3.79 z"
         id="path956" />
      <path
         fill="#a09c94"
         stroke="#a09c94"
         stroke-width="0.5"
         d="m 1225.296,819.904 c 6.77,-2.27 14.04,-1.9 21.01,-0.91 4.81,0.81 9.73,3.03 12.49,7.23 1.75,2.57 1.92,5.78 2.4,8.76 -3.12,-3.98 -7.21,-7.33 -11.98,-9.1 -9.85,-1.64 -19.21,3.53 -29.02,3.33 -6.5,0.05 -13,0.55 -19.31,2.16 0.99,-2.16 2.32,-4.16 4.13,-5.72 6.4,-3.02 13.62,-3.48 20.28,-5.75 z"
         id="path958" />
      <path
         fill="#02ba5a"
         stroke="#02ba5a"
         stroke-width="0.5"
         d="m 1061.876,824.534 c -2.71,7.2 -6.13,14.12 -8.58,21.43 -0.53,0.26 -1.57,0.79 -2.1,1.05 2.93,-7.77 6.79,-15.16 10.68,-22.48 z"
         id="path960" />
      <path
         fill="#e3a957"
         stroke="#e3a957"
         stroke-width="0.5"
         d="m 1380.616,842.254 c 6.88,-5.02 13.15,-10.9 18.23,-17.75 2.8,6.19 1.85,13.09 1.54,19.65 -4.01,12.22 -13.77,21.55 -24.12,28.68 -4.36,3.24 -9.76,5.19 -13.04,9.72 0.55,-0.92 1.11,-1.84 1.7,-2.74 -0.23,-0.22 -0.68,-0.66 -0.9,-0.88 -1.65,-5.92 -1,-12.12 -1.93,-18.15 -0.34,-4.04 -0.56,-9.21 3.18,-11.82 4.77,-2.98 10.74,-3.37 15.34,-6.71 z"
         id="path962" />
      <path
         fill="#110b0b"
         stroke="#110b0b"
         stroke-width="0.5"
         d="m 1200.426,831.674 c 0.82,-2.48 2.25,-4.74 4.59,-6.02 -1.81,1.56 -3.14,3.56 -4.13,5.72 6.31,-1.61 12.81,-2.11 19.31,-2.16 9.81,0.2 19.17,-4.97 29.02,-3.33 4.77,1.77 8.86,5.12 11.98,9.1 1.39,3.97 -0.54,7.71 -2.94,10.77 -3.67,2.02 -7.69,3.7 -11.95,3.53 -3.02,-0.05 -5.69,-1.56 -8.38,-2.71 1.01,7.75 9.86,7.66 15.77,8.95 2.46,0.64 5.62,1.56 6.36,4.39 0.93,4.71 -2.42,8.83 -5.84,11.62 -6.43,4.74 -13.7,8.46 -21.3,10.86 -6.01,0.37 -11.93,-1.4 -17.73,-2.78 -4.97,-1.36 -9.83,-3.49 -13.69,-6.98 -1.39,-2.44 -2.3,-5.23 -1.13,-7.95 4.16,-4.24 10.43,-5.06 14.94,-8.74 2.14,-1.64 2.3,-4.43 2.25,-6.89 -5.93,6.68 -16.53,6.83 -23.44,1.6 -1.01,-2.44 -2.56,-5.08 -1.52,-7.77 1.36,-4.48 5.07,-7.61 7.83,-11.21 m 38.96,-3.59 c -2.73,0.28 -5.41,0.92 -7.98,1.85 -6.52,2.28 -13.54,0.83 -20.24,1.65 -3.23,1.83 -2.94,7.24 0.01,9.25 3.43,-0.37 6.59,-2.19 10.1,-2.12 3.3,0.07 6.77,0.46 9.85,-1.04 3.79,-1.97 8.38,-0.75 12.09,-2.9 1.99,-1.17 4.26,-2.58 4.84,-4.98 -1.74,-2.87 -5.89,-1.78 -8.67,-1.71 m -1.4,39.52 c -3.31,2.05 -6.08,5.1 -6.35,9.17 -1.26,-2.09 -2.38,-4.51 -4.71,-5.57 -7.45,-3.71 -15.71,-5.16 -23.72,-7.07 -3.28,0.64 -2.12,6.11 -0.08,7.94 5.1,3.54 11.24,5.28 17.18,6.94 4.98,0.97 10.37,3.71 15.32,1.14 7.56,-3.85 15.23,-7.85 21.41,-13.76 2.55,-2.54 2.18,-7.1 -0.57,-9.35 -6.03,3.76 -12.74,6.32 -18.48,10.56 z"
         id="path964" />
      <path
         fill="#8b8283"
         stroke="#8b8283"
         stroke-width="0.5"
         d="m 1239.386,828.084 c 2.78,-0.07 6.93,-1.16 8.67,1.71 -0.58,2.4 -2.85,3.81 -4.84,4.98 -3.71,2.15 -8.3,0.93 -12.09,2.9 -3.08,1.5 -6.55,1.11 -9.85,1.04 -3.51,-0.07 -6.67,1.75 -10.1,2.12 -2.95,-2.01 -3.24,-7.42 -0.01,-9.25 6.7,-0.82 13.72,0.63 20.24,-1.65 2.57,-0.93 5.25,-1.57 7.98,-1.85 z"
         id="path966" />
      <path
         fill="#ffffff"
         stroke="#ffffff"
         stroke-width="0.5"
         d="m 1339.246,842.434 c 2.83,-1.19 5.6,-2.73 8.68,-3.23 -2.9,1.62 -5.91,3.01 -8.87,4.49 -6.07,2.88 -12.22,5.56 -18.21,8.61 -4.47,2.06 -8.94,4.11 -13.46,6.07 -8.09,3.43 -15.84,7.76 -24.23,10.43 7.71,-4.37 16.02,-7.54 23.86,-11.68 4.99,-2.56 10.16,-4.72 15.33,-6.9 5.69,-2.45 11.2,-5.32 16.9,-7.79 z"
         id="path968" />
      <path
         fill="#e9cbaf"
         stroke="#e9cbaf"
         stroke-width="0.5"
         d="m 1320.846,852.304 c 5.99,-3.05 12.14,-5.73 18.21,-8.61 1.17,8.87 4.55,17.25 5.71,26.11 -7.18,-0.54 -14.3,0.32 -21.42,0.98 -1.59,-6.04 -1.94,-12.29 -2.5,-18.48 z"
         id="path970" />
      <path
         fill="#847464"
         stroke="#847464"
         stroke-width="0.5"
         d="m 1246.306,849.284 c 4.26,0.17 8.28,-1.51 11.95,-3.53 -1.62,3.21 -3.02,6.52 -4.56,9.77 -5.91,-1.29 -14.76,-1.2 -15.77,-8.95 2.69,1.15 5.36,2.66 8.38,2.71 z"
         id="path972" />
      <path
         fill="#857464"
         stroke="#857464"
         stroke-width="0.5"
         d="m 1194.116,850.654 c 6.91,5.23 17.51,5.08 23.44,-1.6 0.05,2.46 -0.11,5.25 -2.25,6.89 -4.51,3.68 -10.78,4.5 -14.94,8.74 -0.48,-5.24 -4.84,-9.04 -6.25,-14.03 z"
         id="path974" />
      <path
         fill="#ecd7be"
         stroke="#ecd7be"
         stroke-width="0.5"
         d="m 1307.386,858.374 c 4.52,-1.96 8.99,-4.01 13.46,-6.07 0.56,6.19 0.91,12.44 2.5,18.48 7.12,-0.66 14.24,-1.52 21.42,-0.98 l 0.77,-0.01 c -7.11,1.94 -14.62,1.07 -21.84,2.49 -0.21,0.5 -0.65,1.5 -0.87,2 -2.02,-1.3 -4.25,-2.57 -6.73,-2 -6.63,1.01 -13.37,0.33 -20.01,1.29 -5.4,0.64 -10.87,0.62 -16.25,-0.1 4.07,-1.03 8.29,-0.5 12.44,-0.89 9.03,-1.37 18.26,-0.35 27.25,-2.27 -3.35,-4.64 -7.96,-8.12 -12.14,-11.94 z"
         id="path976" />
      <path
         fill="#8b8283"
         stroke="#8b8283"
         stroke-width="0.5"
         d="m 1237.986,867.604 c 5.74,-4.24 12.45,-6.8 18.48,-10.56 2.75,2.25 3.12,6.81 0.57,9.35 -6.18,5.91 -13.85,9.91 -21.41,13.76 -4.95,2.57 -10.34,-0.17 -15.32,-1.14 -5.94,-1.66 -12.08,-3.4 -17.18,-6.94 -2.04,-1.83 -3.2,-7.3 0.08,-7.94 8.01,1.91 16.27,3.36 23.72,7.07 2.33,1.06 3.45,3.48 4.71,5.57 0.27,-4.07 3.04,-7.12 6.35,-9.17 z"
         id="path978" />
      <path
         fill="#e3a957"
         stroke="#e3a957"
         stroke-width="0.5"
         d="m 1045.426,860.144 c 2.32,2.88 5,5.49 8.18,7.42 6.66,4.2 13.53,8.94 21.6,9.71 3.1,0.4 6.58,0.3 9.17,2.36 2.44,1.78 4.28,5.15 3.14,8.16 -1.77,1.36 -4.25,1.16 -6.33,1.72 2.41,-0.09 4.83,-0.15 7.26,-0.19 0.42,5.55 1.42,11.04 2.06,16.58 0.65,1.94 -0.78,3.13 -2.51,3.57 -4.11,-2.26 -8.44,-4.1 -12.48,-6.48 -2.44,-2.89 -6.75,-2.45 -9.62,-4.8 -11.79,-5.71 -20.37,-17.64 -21.36,-30.8 l 0.03,-0.47 c 0.26,-2.27 0.58,-4.52 0.86,-6.78 z"
         id="path980" />
      <path
         fill="#02ba5a"
         stroke="#02ba5a"
         stroke-width="0.5"
         d="m 1044.536,867.394 c 0.99,13.16 9.57,25.09 21.36,30.8 2.87,2.35 7.18,1.91 9.62,4.8 4.04,2.38 8.37,4.22 12.48,6.48 0.24,0.15 0.73,0.44 0.98,0.59 -0.37,5.61 -0.07,11.4 2.76,16.41 2.21,0.52 4.46,1.04 6.76,0.98 2.52,-2.12 4.42,-4.88 5.31,-8.06 4,-6.2 5.67,-13.47 6.08,-20.76 0.7,-4.23 1.83,-8.38 2.28,-12.64 3.43,3.82 4.57,9.08 7.69,13.16 3.75,4.87 5.48,10.98 9.55,15.64 1.8,2.18 3.75,4.23 5.71,6.29 -0.17,0.66 -0.51,1.99 -0.68,2.65 -6.77,5.1 -14.13,9.35 -21.19,14.03 6.93,-3.32 13.15,-7.9 19.86,-11.62 -10.46,32.58 -14.63,66.73 -20.24,100.37 -1.55,6.2 -3.17,12.5 -3.11,18.94 -0.17,2.95 -0.31,5.91 -0.35,8.88 -30.53,-23.69 -53.5,-57.23 -64.13,-94.43 -8.43,-30.01 -9.06,-62.41 -0.74,-92.51 m 26.6,34.83 c 0.44,1.31 2.43,2.39 3.7,1.57 -0.31,-1.23 -2.56,-2.61 -3.7,-1.57 z"
         id="path982" />
      <path
         fill="#d6ac83"
         stroke="#d6ac83"
         stroke-width="0.5"
         d="m 1345.776,870.574 c 3.26,-0.96 6.66,-1.08 10.03,-0.65 1.64,8.67 5.1,17.3 3.49,26.27 -3.92,-1.47 -6.01,-5.21 -7.99,-8.62 -1.77,-4.5 -3.54,-9 -5.19,-13.53 -0.08,-0.87 -0.26,-2.61 -0.34,-3.47 z"
         id="path984" />
      <path
         fill="#867362"
         stroke="#867362"
         stroke-width="0.5"
         d="m 1232.916,882.394 c 7.6,-2.4 14.87,-6.12 21.3,-10.86 1.22,2.33 2.73,4.63 3.15,7.29 0.34,3.57 -1.18,7.24 0.14,10.72 1.61,4.6 4.42,8.65 6.25,13.16 -8.52,-2.46 -17.04,-5.15 -25.03,-9.04 -2.9,-1.33 -6.31,-1.17 -9,0.53 -5.1,2.92 -10.2,5.81 -15.33,8.66 -4.32,2.38 -9.18,3.72 -13.25,6.57 -1.03,-4.78 -1.47,-9.66 -1.42,-14.54 0.04,-7.44 -0.04,-14.98 1.77,-22.25 3.86,3.49 8.72,5.62 13.69,6.98 5.8,1.38 11.72,3.15 17.73,2.78 z"
         id="path986" />
      <path
         fill="#04b959"
         stroke="#04b959"
         stroke-width="0.5"
         d="m 1338.166,877.734 c 1.5,-2.67 3.04,-6.07 6.33,-6.79 0.58,0.99 1.12,2.03 1.62,3.1 1.65,4.53 3.42,9.03 5.19,13.53 1.38,3.5 3.03,6.92 5.26,9.99 -2.53,0.29 -5.06,0.19 -7.55,-0.14 -5.94,-0.86 -11.87,-1.78 -17.82,-2.57 0.37,-0.11 1.1,-0.33 1.46,-0.44 -0.02,-6.04 3.05,-11.37 5.51,-16.68 z"
         id="path988" />
      <path
         fill="#a99160"
         stroke="#a99160"
         stroke-width="0.5"
         d="m 1118.836,884.204 c 2.34,-5.16 7.39,-7.99 12.69,-9.31 0.62,2.48 1.25,4.99 1.85,7.5 -4.85,0.58 -9.7,1.18 -14.54,1.81 z"
         id="path990" />
      <path
         fill="#ffffff"
         stroke="#ffffff"
         stroke-width="0.5"
         d="m 1156.026,879.424 c 11.12,-0.76 22.12,-2.8 33.26,-3.31 -18.49,2.55 -36.94,5.46 -55.51,7.41 -5.06,0.69 -10.13,1.27 -15.2,1.83 -2.15,0.21 -4.29,0.39 -6.41,0.64 -4.33,0.65 -8.68,1.14 -13.03,1.68 -3.62,0.52 -7.27,0.83 -10.91,0.89 3.64,-0.75 7.32,-1.27 11.01,-1.73 4.42,-0.57 8.83,-1.21 13.26,-1.77 2.1,-0.29 4.22,-0.58 6.34,-0.86 4.84,-0.63 9.69,-1.23 14.54,-1.81 3.35,-0.42 6.69,-0.87 10.05,-1.31 4.2,-0.52 8.38,-1.24 12.6,-1.66 z"
         id="path992" />
      <path
         fill="#8c6844"
         stroke="#8c6844"
         stroke-width="0.5"
         d="m 1305.846,888.794 c 0.72,-4 1.63,-7.97 3.22,-11.72 1.73,1.02 4.54,1.39 4.96,3.78 0.69,3.75 -1.1,7.31 -2.17,10.81 -1.12,0.06 -2.22,0.12 -3.3,0.18 0.35,-1.45 0.67,-2.91 1.05,-4.34 -1.27,0.42 -2.52,0.85 -3.76,1.29 z"
         id="path994" />
      <path
         fill="#a99160"
         stroke="#a99160"
         stroke-width="0.5"
         d="m 1118.576,885.354 c 5.07,-0.56 10.14,-1.14 15.2,-1.83 1.44,5.77 2.17,12.05 5.92,16.9 3.48,4.58 6.21,9.69 8.27,15.07 -4.46,2.83 -8.94,5.63 -13.53,8.24 0.17,-0.66 0.51,-1.99 0.68,-2.65 0.43,-0.4 1.27,-1.21 1.69,-1.61 -3.77,-5.57 -8.6,-10.35 -12.04,-16.16 -3.57,-5.34 -6.46,-11.38 -6.19,-17.96 z"
         id="path996" />
      <path
         fill="#e7cdaf"
         stroke="#e7cdaf"
         stroke-width="0.5"
         d="m 1112.166,885.994 c 2.12,-0.25 4.26,-0.43 6.41,-0.64 -0.27,6.58 2.62,12.62 6.19,17.96 3.44,5.81 8.27,10.59 12.04,16.16 -0.42,0.4 -1.26,1.21 -1.69,1.61 -1.96,-2.06 -3.91,-4.11 -5.71,-6.29 -4.07,-4.66 -5.8,-10.77 -9.55,-15.64 -3.12,-4.08 -4.26,-9.34 -7.69,-13.16 z"
         id="path998" />
      <path
         fill="#d6ac82"
         stroke="#d6ac82"
         stroke-width="0.5"
         d="m 1099.136,887.674 c 4.35,-0.54 8.7,-1.03 13.03,-1.68 -0.45,4.26 -1.58,8.41 -2.28,12.64 -2.21,2.15 -2.1,5.32 -2.58,8.14 -0.55,4.38 -3.53,8.11 -3.5,12.62 -0.89,3.18 -2.79,5.94 -5.31,8.06 -0.77,-0.31 -2.32,-0.92 -3.09,-1.23 -0.6,-5.85 0.64,-11.62 1.97,-17.28 1.64,-6.98 1.43,-14.17 1.76,-21.27 z"
         id="path1000" />
      <path
         fill="#ffffff"
         stroke="#ffffff"
         stroke-width="0.5"
         d="m 1270.106,888.214 c 11.11,0.21 22.1,2.12 33.14,3.32 1.36,0.13 2.72,0.22 4.13,0.34 l 0.2,1.23 c -1.9,-0.2 -3.78,-0.38 -5.64,-0.59 -10.61,-1.5 -21.23,-2.84 -31.83,-4.3 z"
         id="path1002" />
      <path
         fill="#0a0305"
         stroke="#0a0305"
         stroke-width="0.5"
         d="m 1305.846,888.794 c 1.24,-0.44 2.49,-0.87 3.76,-1.29 -0.38,1.43 -0.7,2.89 -1.05,4.34 l -1.18,0.03 c -1.41,-0.12 -2.77,-0.21 -4.13,-0.34 0.85,-0.91 1.76,-1.79 2.6,-2.74 z"
         id="path1004" />
      <path
         fill="#ffffff"
         stroke="#ffffff"
         stroke-width="0.5"
         d="m 1174.986,898.614 c 4.47,-2.48 8.53,-5.73 13.27,-7.72 -5.31,4.1 -11.1,7.53 -16.73,11.17 -2.4,1.51 -4.77,3.18 -7.54,3.91 3.1,-3.2 7.39,-4.81 11,-7.36 z"
         id="path1006" />
      <path
         fill="#b94456"
         stroke="#b94456"
         stroke-width="0.5"
         d="m 1229.726,894.194 c 2.69,-1.7 6.1,-1.86 9,-0.53 7.99,3.89 16.51,6.58 25.03,9.04 3.46,0.93 6.86,2.06 10.24,3.28 0.41,0.31 1.22,0.92 1.63,1.22 -0.58,10.13 4.15,19.6 3.46,29.71 -0.07,4.79 -2.96,8.84 -5.54,12.65 -0.89,-0.11 -2.67,-0.31 -3.56,-0.42 -0.44,-2.7 0.94,-7.29 -2.81,-8 -2.15,1.52 -1.81,4.37 -1.95,6.67 0.08,4.24 -0.21,8.73 1.78,12.64 -1.67,7.23 -7.1,13.32 -13.94,16.09 -6.91,2.86 -14.62,2.63 -21.9,1.8 -5.05,-0.65 -10.18,-2.07 -14.26,-5.21 -2.61,-2 -4.03,-5.04 -6.05,-7.53 0.03,-6.08 0.35,-12.65 -2.59,-18.16 -0.74,0.07 -2.23,0.21 -2.97,0.29 -1.27,3.3 0.08,6.84 0.71,10.15 -3.16,-6.33 -6.11,-14.36 -13.64,-16.45 1.76,-9.77 4.41,-19.4 5.52,-29.27 1.08,-0.91 2.14,-1.87 3.26,-2.74 4.07,-2.85 8.93,-4.19 13.25,-6.57 5.13,-2.85 10.23,-5.74 15.33,-8.66 z"
         id="path1008" />
      <path
         fill="#0a0305"
         stroke="#0a0305"
         stroke-width="0.5"
         d="m 1301.936,892.514 c 1.86,0.21 3.74,0.39 5.64,0.59 0.05,0.36 0.16,1.08 0.21,1.44 0.68,-0.05 2.03,-0.15 2.71,-0.2 -0.4,0.27 -1.18,0.81 -1.58,1.08 -1.71,2.67 -3.63,5.22 -5.04,8.07 -1.41,3.33 -0.5,7.11 -1.61,10.53 -0.83,2.73 -2.7,4.95 -4.43,7.16 0.33,9.83 -5.27,20.59 -14.96,23.82 -0.09,3.1 0,7.07 3.39,8.46 0.72,2.88 1.19,5.97 0.41,8.89 -1.24,3.12 -3.81,5.45 -6.23,7.68 -7.86,6.83 -16.81,12.22 -25.76,17.48 -3.63,1.81 -7.68,2.36 -11.67,2.7 -9.41,-1.74 -19.03,-2.61 -28.26,-5.16 -6.9,-4.23 -11.98,-10.84 -18.8,-15.22 -0.03,-3.9 0.38,-7.78 0.94,-11.63 -7.24,-1.77 -11.83,-8.21 -15.92,-13.94 -2.46,-4.14 -6.23,-7.26 -8.69,-11.38 -3.42,-5.42 -6.36,-11.12 -8.93,-16.98 -0.97,-2.26 -2.38,-4.27 -3.9,-6.17 1.08,-0.72 2.13,-1.48 3.23,-2.21 0.77,-0.25 1.56,-0.45 2.38,-0.61 2.89,1.78 5.33,4.23 8.43,5.72 7.45,4.08 17.16,4.2 24.39,-0.47 -1.11,9.87 -3.76,19.5 -5.52,29.27 7.53,2.09 10.48,10.12 13.64,16.45 0.93,2.96 1.23,6.77 4.85,7.72 2.02,2.49 3.44,5.53 6.05,7.53 4.08,3.14 9.21,4.56 14.26,5.21 7.28,0.83 14.99,1.06 21.9,-1.8 6.84,-2.77 12.27,-8.86 13.94,-16.09 0.44,-0.62 1.31,-1.85 1.74,-2.47 0.5,-2.85 0.86,-5.73 1.04,-8.62 1.24,0.09 2.49,0.15 3.76,0.2 2.58,-3.81 5.47,-7.86 5.54,-12.65 0.69,-10.11 -4.04,-19.58 -3.46,-29.71 -0.41,-0.3 -1.22,-0.91 -1.63,-1.22 11.14,1.05 20.12,-6.63 27.94,-13.47 z"
         id="path1010" />
      <path
         fill="#ffffff"
         stroke="#ffffff"
         stroke-width="0.5"
         d="m 1310.706,893.334 c 6.89,-1.09 13.63,1.27 20.49,1.52 5.95,0.79 11.88,1.71 17.82,2.57 -4.28,0.24 -8.54,-0.22 -12.77,-0.78 -1.78,-0.21 -3.53,-0.4 -5.28,-0.61 -6.73,-1.1 -13.59,-1.26 -20.26,-2.7 z"
         id="path1012" />
      <path
         fill="#8d6742"
         stroke="#8d6742"
         stroke-width="0.5"
         d="m 1151.236,897.784 c -0.16,-2.54 2.37,-3.62 4.06,-4.89 2.54,3.68 4.5,7.72 6.87,11.51 -1.35,-0.06 -3.16,2.21 -1.24,2.84 l 0.38,0.2 c -1.26,0.51 -2.47,1.1 -3.63,1.77 -2.61,-3.48 -5.97,-6.91 -6.44,-11.43 z"
         id="path1014" />
      <path
         fill="#a18466"
         stroke="#a18466"
         stroke-width="0.5"
         d="m 1330.966,896.034 c 1.75,0.21 3.5,0.4 5.28,0.61 0.62,1.04 1.28,2.11 1.93,3.16 -2.06,4.56 -3.35,9.4 -4.8,14.17 -1.34,4.5 -4.38,8.16 -6.91,12.03 -10.34,15.54 -20.7,31.06 -30.96,46.66 2.32,3.24 2.53,7.47 0.4,10.89 -7.97,14.1 -22.77,22.9 -37.78,27.86 -7.49,2.16 -15.42,4.33 -23.24,2.94 -8.52,-2.28 -16.12,-7 -23.67,-11.42 -6.09,-4.08 -13.54,-7.61 -16.08,-15.05 l 0.02,-1.52 c 10.27,6.92 20.76,13.83 32.47,18.07 9.58,2.49 19.54,-0.43 28.62,-3.57 13.93,-5.2 27.62,-13.82 34.81,-27.26 2.08,-3.34 0.83,-7.09 -0.29,-10.48 1.59,-3.49 4.11,-6.45 6.11,-9.71 9.63,-14.36 19.09,-28.84 28.75,-43.17 2.79,-4.31 3.54,-9.49 5.34,-14.21 z"
         id="path1016" />
      <path
         fill="#afc38e"
         stroke="#afc38e"
         stroke-width="0.5"
         d="m 1107.306,906.774 c 0.48,-2.82 0.37,-5.99 2.58,-8.14 -0.41,7.29 -2.08,14.56 -6.08,20.76 -0.03,-4.51 2.95,-8.24 3.5,-12.62 z"
         id="path1018" />
      <path
         fill="#e6d6b4"
         stroke="#e6d6b4"
         stroke-width="0.5"
         d="m 1333.376,913.974 c 1.45,-4.77 2.74,-9.61 4.8,-14.17 14.65,24.54 29.13,49.19 42.88,74.26 9.41,17.34 18.51,34.91 25.85,53.25 l 0.11,0.27 c -6.08,6.25 -11.6,13.08 -18.34,18.68 -27.85,25.41 -62.88,42.57 -99.76,50.08 -40.14,7.98 -82.56,5.28 -121,-8.99 -20.98,-7.59 -40.6,-18.73 -58.19,-32.42 0.16,-3.41 0.09,-6.83 0.35,-10.23 2.3,-5.76 2.22,-12.11 2.79,-18.19 5.61,-33.64 9.78,-67.79 20.24,-100.37 0.99,-0.6 1.99,-1.21 3,-1.8 14.18,16.65 32.54,28.8 49.33,42.55 1.95,7.49 6.09,14.19 9.7,20.99 2.54,7.44 9.99,10.97 16.08,15.05 7.55,4.42 15.15,9.14 23.67,11.42 7.82,1.39 15.75,-0.78 23.24,-2.94 15.01,-4.96 29.81,-13.76 37.78,-27.86 2.13,-3.42 1.92,-7.65 -0.4,-10.89 10.26,-15.6 20.62,-31.12 30.96,-46.66 2.53,-3.87 5.57,-7.53 6.91,-12.03 z"
         id="path1020" />
      <path
         fill="#36a94c"
         stroke="#36a94c"
         stroke-width="0.5"
         d="m 1071.136,902.224 c 1.14,-1.04 3.39,0.34 3.7,1.57 -1.27,0.82 -3.26,-0.26 -3.7,-1.57 z"
         id="path1022" />
      <path
         fill="#0a0305"
         stroke="#0a0305"
         stroke-width="0.5"
         d="m 1160.926,907.244 c -1.92,-0.63 -0.11,-2.9 1.24,-2.84 1.26,1.07 0.11,2.67 -1.24,2.84 z"
         id="path1024" />
      <path
         fill="#ffffff"
         stroke="#ffffff"
         stroke-width="0.5"
         d="m 1157.676,909.214 c 1.16,-0.67 2.37,-1.26 3.63,-1.77 l 1.38,0.08 c -1.1,0.73 -2.15,1.49 -3.23,2.21 -3.55,2.26 -7.05,4.57 -10.66,6.72 -3.03,1.79 -6.04,3.63 -8.99,5.54 -1.24,0.78 -2.47,1.57 -3.7,2.35 -1.01,0.59 -2.01,1.2 -3,1.8 -6.71,3.72 -12.93,8.3 -19.86,11.62 7.06,-4.68 14.42,-8.93 21.19,-14.03 4.59,-2.61 9.07,-5.41 13.53,-8.24 3.25,-2.06 6.41,-4.28 9.71,-6.28 z"
         id="path1026" />
      <path
         fill="#a89161"
         stroke="#a89161"
         stroke-width="0.5"
         d="m 1139.806,921.994 c 2.95,-1.91 5.96,-3.75 8.99,-5.54 2.1,4.53 4.22,9.06 6.2,13.65 -0.79,0.3 -2.37,0.91 -3.15,1.21 -4.47,-2.47 -8.75,-5.38 -12.04,-9.32 z"
         id="path1028" />
      <path
         fill="#b59473"
         stroke="#b59473"
         stroke-width="0.5"
         d="m 1136.106,924.344 c 1.23,-0.78 2.46,-1.57 3.7,-2.35 3.29,3.94 7.57,6.85 12.04,9.32 5.08,3.88 10.09,7.86 15.19,11.73 5.27,4.24 11.04,7.9 15.75,12.79 0.02,3.86 1.76,7.36 2.65,11.06 -16.79,-13.75 -35.15,-25.9 -49.33,-42.55 z"
         id="path1030" />
      <path
         fill="#fad2c2"
         stroke="#fad2c2"
         stroke-width="0.5"
         d="m 1265.226,947.814 c 0.14,-2.3 -0.2,-5.15 1.95,-6.67 3.75,0.71 2.37,5.3 2.81,8 0.89,0.11 2.67,0.31 3.56,0.42 -1.27,-0.05 -2.52,-0.11 -3.76,-0.2 -0.18,2.89 -0.54,5.77 -1.04,8.62 -0.43,0.62 -1.3,1.85 -1.74,2.47 -1.99,-3.91 -1.7,-8.4 -1.78,-12.64 z"
         id="path1032" />
      <path
         fill="#ffc2b7"
         stroke="#ffc2b7"
         stroke-width="0.5"
         d="m 1205.296,947.734 c 0.74,-0.08 2.23,-0.22 2.97,-0.29 2.94,5.51 2.62,12.08 2.59,18.16 -3.62,-0.95 -3.92,-4.76 -4.85,-7.72 -0.63,-3.31 -1.98,-6.85 -0.71,-10.15 z"
         id="path1034" />
      <path
         fill="#997c39"
         stroke="#997c39"
         stroke-width="0.5"
         d="m 1254.686,987.514 c 2.97,-0.29 5.77,-1.33 8.66,-2.03 1.26,-0.32 4.01,-0.72 3.59,1.48 -0.76,3.14 -3.09,5.97 -5.77,7.72 -5.56,2.41 -11.54,3.73 -17.47,4.85 -8.31,1.65 -16.79,-0.58 -24.44,-3.74 -3.06,-1.19 -6,-3.63 -5.38,-7.27 9.5,2.32 19.44,3.64 29.14,1.69 3.99,-0.34 8.04,-0.89 11.67,-2.7 z"
         id="path1036" />
      <path
         fill="#4bbc70"
         stroke="#4bbc70"
         stroke-width="0.5"
         d="m 1109.756,1045.454 c -0.06,-6.44 1.56,-12.74 3.11,-18.94 -0.57,6.08 -0.49,12.43 -2.79,18.19 z"
         id="path1038" />
    </g>
  </g>
</svg>
